<svg width="283" height="76" viewBox="0 0 283 76" fill="none" xmlns="http://www.w3.org/2000/svg">
<g clip-path="url(#clip0_438_1401)">
<path d="M18.3881 31.2206H3.39952C3.21809 31.2201 3.03843 31.2564 2.87133 31.3275C2.70423 31.3986 2.55313 31.5029 2.42715 31.6342C2.30116 31.7656 2.20287 31.9212 2.1382 32.0917C2.07352 32.2622 2.0438 32.4442 2.05081 32.6265C2.40581 43.6497 6.9172 54.1239 14.6691 61.9225C22.4209 69.7212 32.8323 74.2598 43.7893 74.617C43.9706 74.6231 44.1514 74.5925 44.3207 74.5269C44.49 74.4613 44.6445 74.3621 44.7749 74.2352C44.9053 74.1082 45.0089 73.9562 45.0797 73.7881C45.1505 73.6201 45.1869 73.4394 45.1868 73.2569V54.2675C45.1824 53.9207 45.0498 53.588 44.8149 53.3342C44.58 53.0803 44.2596 52.9235 43.9161 52.8943C39.2136 52.6158 34.7307 50.7975 31.1514 47.7166C27.5721 44.6357 25.0927 40.4615 24.0917 35.8307C23.8035 34.5244 23.0815 33.356 22.0446 32.5179C21.0078 31.6799 19.7181 31.2223 18.3881 31.2206Z" fill="url(#paint0_linear_438_1401)"/>
<path d="M12.8176 25.79C19.8966 25.79 25.6352 20.0167 25.6352 12.895C25.6352 5.77328 19.8966 0 12.8176 0C5.73864 0 0 5.77328 0 12.895C0 20.0167 5.73864 25.79 12.8176 25.79Z" fill="url(#paint1_linear_438_1401)"/>
<path d="M97.7831 1.37976H43.8347C42.7616 1.37976 41.7325 1.80862 40.9737 2.572C40.2149 3.33537 39.7886 4.37074 39.7886 5.45032V21.7325C39.7886 22.0924 39.9307 22.4375 40.1836 22.692C40.4365 22.9464 40.7796 23.0894 41.1373 23.0894H57.3218C57.6795 23.0894 58.0226 23.2323 58.2755 23.4868C58.5284 23.7412 58.6705 24.0864 58.6705 24.4462V73.2765C58.6705 73.6364 58.8126 73.9815 59.0655 74.2359C59.3185 74.4904 59.6615 74.6334 60.0192 74.6334H76.2037C77.2766 74.6325 78.3052 74.2034 79.0638 73.4402C79.8224 72.677 80.249 71.6421 80.2499 70.5628V24.4299C80.2499 24.07 80.392 23.7249 80.6449 23.4704C80.8978 23.216 81.2409 23.073 81.5986 23.073H95.0824C95.6139 23.0735 96.1402 22.9685 96.6313 22.764C97.1224 22.5596 97.5686 22.2598 97.9444 21.8818C98.3202 21.5037 98.6183 21.0548 98.8214 20.5607C99.0246 20.0667 99.129 19.5371 99.1286 19.0025V2.72027C99.1243 2.36381 98.9808 2.02337 98.729 1.77253C98.4772 1.52168 98.1374 1.38059 97.7831 1.37976Z" fill="#01286D"/>
<path d="M139.603 0C132.133 0 124.83 2.22857 118.619 6.40388C112.407 10.5792 107.566 16.5137 104.708 23.457C101.849 30.4003 101.101 38.0405 102.558 45.4115C104.016 52.7824 107.613 59.5531 112.895 64.8673C118.177 70.1814 124.908 73.8004 132.234 75.2666C139.561 76.7328 147.155 75.9803 154.057 73.1043C160.959 70.2283 166.858 65.3579 171.008 59.1091C175.158 52.8603 177.373 45.5137 177.373 37.9984C177.373 27.9206 173.394 18.2555 166.311 11.1295C159.227 4.00338 149.62 0 139.603 0ZM139.603 53.6463C136.526 53.6469 133.519 52.7298 130.961 51.0107C128.402 49.2917 126.408 46.8481 125.231 43.9888C124.053 41.1296 123.744 37.9832 124.344 34.9476C124.944 31.912 126.425 29.1235 128.6 26.9348C130.775 24.746 133.547 23.2554 136.564 22.6514C139.581 22.0473 142.709 22.357 145.551 23.5413C148.393 24.7255 150.823 26.7311 152.532 29.3045C154.241 31.8779 155.154 34.9034 155.154 37.9984C155.154 42.1479 153.515 46.1275 150.599 49.062C147.683 51.9964 143.728 53.6454 139.603 53.6463Z" fill="#01286D"/>
<path d="M207.028 51.5669V5.43396C207.023 4.35749 206.595 3.32683 205.837 2.56717C205.079 1.80751 204.052 1.38061 202.982 1.37976H186.798C186.444 1.38145 186.105 1.52291 185.854 1.77366C185.603 2.02441 185.46 2.36438 185.456 2.72027V59.708C185.456 63.6665 187.019 67.4628 189.801 70.2618C192.583 73.0609 196.357 74.6334 200.291 74.6334H229.963C230.321 74.6334 230.664 74.4904 230.917 74.2359C231.17 73.9815 231.312 73.6364 231.312 73.2765V56.9943C231.312 55.9147 230.885 54.8794 230.127 54.116C229.368 53.3526 228.339 52.9238 227.266 52.9238H208.384C208.206 52.9246 208.03 52.8901 207.866 52.8223C207.701 52.7545 207.552 52.6547 207.426 52.5287C207.3 52.4026 207.2 52.2527 207.132 52.0877C207.064 51.9226 207.028 51.7456 207.028 51.5669Z" fill="#01286D"/>
<path d="M258.276 51.5669V5.43396C258.272 4.35722 257.844 3.32605 257.085 2.56621C256.327 1.80636 255.3 1.37975 254.23 1.37976H238.045C237.688 1.37976 237.345 1.52272 237.092 1.77718C236.839 2.03163 236.697 2.37675 236.697 2.73661V59.708C236.697 61.668 237.081 63.6089 237.826 65.4197C238.572 67.2305 239.664 68.8759 241.042 70.2618C242.42 71.6478 244.055 72.7472 245.855 73.4972C247.655 74.2473 249.584 74.6334 251.533 74.6334H281.204C281.562 74.6334 281.905 74.4904 282.158 74.2359C282.411 73.9815 282.553 73.6364 282.553 73.2765V56.9943C282.553 56.4596 282.449 55.9301 282.246 55.4361C282.043 54.942 281.745 54.4931 281.369 54.115C280.993 53.737 280.547 53.4371 280.056 53.2327C279.565 53.0283 279.038 52.9233 278.507 52.9238H259.625C259.267 52.9238 258.924 52.7808 258.671 52.5263C258.418 52.2719 258.276 51.9268 258.276 51.5669Z" fill="#01286D"/>
</g>
<defs>
<linearGradient id="paint0_linear_438_1401" x1="23.6172" y1="78.4946" x2="23.6172" y2="16.825" gradientUnits="userSpaceOnUse">
<stop stop-color="#00BC3B"/>
<stop offset="1" stop-color="#47E531"/>
</linearGradient>
<linearGradient id="paint1_linear_438_1401" x1="1011.05" y1="6088.76" x2="1011.05" y2="1174.22" gradientUnits="userSpaceOnUse">
<stop stop-color="#00BC3B"/>
<stop offset="1" stop-color="#47E531"/>
</linearGradient>
<clipPath id="clip0_438_1401">
<rect width="283" height="76" fill="white"/>
</clipPath>
</defs>
</svg>
