<svg width="129" height="36" viewBox="0 0 129 36" fill="none" xmlns="http://www.w3.org/2000/svg">
<g clip-path="url(#clip0_4095_4761)">
<path d="M8.81748 14.9337H2.03821C1.95615 14.9335 1.87489 14.9499 1.79931 14.982C1.72373 15.0142 1.65539 15.0614 1.5984 15.1208C1.54142 15.1802 1.49697 15.2506 1.46771 15.3277C1.43846 15.4048 1.42502 15.4871 1.42819 15.5696C1.58875 20.5554 3.62924 25.2928 7.13539 28.8201C10.6415 32.3474 15.3505 34.4002 20.3064 34.5617C20.3884 34.5645 20.4701 34.5507 20.5467 34.521C20.6233 34.4913 20.6932 34.4465 20.7521 34.3891C20.8111 34.3317 20.858 34.2629 20.89 34.1869C20.922 34.1108 20.9385 34.0291 20.9385 33.9466V25.3577C20.9364 25.2009 20.8765 25.0504 20.7702 24.9356C20.664 24.8208 20.5191 24.7499 20.3637 24.7366C18.2368 24.6107 16.2092 23.7882 14.5903 22.3948C12.9714 21.0013 11.85 19.1133 11.3972 17.0188C11.2669 16.428 10.9403 15.8995 10.4713 15.5205C10.0024 15.1414 9.41904 14.9345 8.81748 14.9337Z" fill="url(#paint0_linear_4095_4761)"/>
<path d="M6.29736 12.4774C9.49916 12.4774 12.0947 9.8662 12.0947 6.64508C12.0947 3.42395 9.49916 0.812714 6.29736 0.812714C3.09557 0.812714 0.5 3.42395 0.5 6.64508C0.5 9.8662 3.09557 12.4774 6.29736 12.4774Z" fill="url(#paint1_linear_4095_4761)"/>
<path d="M44.7268 1.43677H20.3261C19.8408 1.43677 19.3753 1.63074 19.0321 1.97601C18.6889 2.32128 18.4961 2.78958 18.4961 3.27787V10.6423C18.4961 10.805 18.5604 10.9611 18.6748 11.0762C18.7892 11.1913 18.9443 11.256 19.1061 11.256H26.4263C26.5881 11.256 26.7433 11.3206 26.8577 11.4357C26.9721 11.5508 27.0363 11.7069 27.0363 11.8697V33.9554C27.0363 34.1182 27.1006 34.2743 27.215 34.3894C27.3294 34.5045 27.4846 34.5691 27.6464 34.5691H34.9666C35.4518 34.5687 35.9171 34.3747 36.2602 34.0295C36.6033 33.6843 36.7962 33.2162 36.7966 32.728V11.8623C36.7966 11.6995 36.8609 11.5434 36.9753 11.4283C37.0897 11.3132 37.2448 11.2486 37.4066 11.2486H43.5053C43.7457 11.2488 43.9838 11.2013 44.2059 11.1088C44.428 11.0164 44.6298 10.8808 44.7998 10.7098C44.9698 10.5388 45.1046 10.3357 45.1965 10.1123C45.2884 9.88879 45.3356 9.6493 45.3354 9.40746V2.04307C45.3334 1.88185 45.2685 1.72787 45.1546 1.61441C45.0408 1.50096 44.8871 1.43714 44.7268 1.43677Z" fill="white"/>
<path d="M63.642 0.812714C60.2632 0.812714 56.9603 1.82069 54.151 3.70917C51.3416 5.59765 49.152 8.28182 47.859 11.4222C46.566 14.5627 46.2277 18.0183 46.8869 21.3522C47.546 24.686 49.1731 27.7484 51.5622 30.152C53.9514 32.5555 56.9953 34.1924 60.3092 34.8556C63.6231 35.5187 67.058 35.1784 70.1796 33.8775C73.3011 32.5767 75.9692 30.3739 77.8464 27.5476C79.7235 24.7213 80.7254 21.3984 80.7254 17.9993C80.7254 13.4411 78.9256 9.06963 75.7218 5.84653C72.5181 2.62343 68.1728 0.812714 63.642 0.812714ZM63.642 25.0768C62.2505 25.077 60.8903 24.6622 59.7332 23.8847C58.5761 23.1072 57.6741 22.0019 57.1414 20.7087C56.6087 19.4155 56.4692 17.9924 56.7405 16.6194C57.0118 15.2464 57.6817 13.9852 58.6655 12.9952C59.6493 12.0053 60.9028 11.3311 62.2675 11.0578C63.6322 10.7846 65.0468 10.9247 66.3324 11.4603C67.618 11.996 68.7168 12.9031 69.4899 14.067C70.2629 15.231 70.6756 16.5994 70.6756 17.9993C70.6756 19.8761 69.9346 21.676 68.6156 23.0033C67.2966 24.3305 65.5076 25.0764 63.642 25.0768Z" fill="white"/>
<path d="M94.1382 24.1363V3.27047C94.1359 2.78358 93.9421 2.31742 93.5992 1.97383C93.2563 1.63024 92.7921 1.43715 92.3081 1.43677H84.9879C84.8279 1.43753 84.6746 1.50151 84.5611 1.61493C84.4475 1.72834 84.3828 1.88211 84.3809 2.04307V27.8185C84.3809 29.6088 85.0878 31.3259 86.3462 32.5919C87.6046 33.8579 89.3114 34.5691 91.0911 34.5691H104.511C104.673 34.5691 104.828 34.5045 104.943 34.3894C105.057 34.2743 105.121 34.1182 105.121 33.9554V26.591C105.121 26.1028 104.929 25.6345 104.585 25.2892C104.242 24.9439 103.777 24.75 103.291 24.75H94.7511C94.6708 24.7503 94.5912 24.7348 94.5168 24.7041C94.4425 24.6734 94.3749 24.6283 94.3179 24.5713C94.2609 24.5142 94.2157 24.4464 94.1849 24.3718C94.1541 24.2971 94.1382 24.2171 94.1382 24.1363Z" fill="white"/>
<path d="M117.317 24.1363V3.27047C117.315 2.78346 117.121 2.31707 116.778 1.97339C116.435 1.62972 115.971 1.43676 115.487 1.43677H108.167C108.005 1.43677 107.85 1.50143 107.735 1.61652C107.621 1.73161 107.557 1.8877 107.557 2.05047V27.8185C107.557 28.705 107.73 29.5828 108.067 30.4018C108.405 31.2209 108.899 31.9651 109.522 32.5919C110.145 33.2188 110.885 33.716 111.699 34.0553C112.513 34.3945 113.386 34.5691 114.267 34.5691H127.687C127.849 34.5691 128.004 34.5045 128.119 34.3894C128.233 34.2743 128.297 34.1182 128.297 33.9554V26.591C128.297 26.3492 128.25 26.1097 128.158 25.8863C128.066 25.6628 127.932 25.4598 127.762 25.2888C127.592 25.1178 127.39 24.9822 127.168 24.8897C126.946 24.7972 126.708 24.7498 126.467 24.75H117.927C117.765 24.75 117.61 24.6853 117.496 24.5702C117.381 24.4551 117.317 24.299 117.317 24.1363Z" fill="white"/>
</g>
<defs>
<linearGradient id="paint0_linear_4095_4761" x1="11.1826" y1="36.3156" x2="11.1826" y2="8.42259" gradientUnits="userSpaceOnUse">
<stop stop-color="#00BC3B"/>
<stop offset="1" stop-color="#47E531"/>
</linearGradient>
<linearGradient id="paint1_linear_4095_4761" x1="457.796" y1="2754.74" x2="457.796" y2="531.908" gradientUnits="userSpaceOnUse">
<stop stop-color="#00BC3B"/>
<stop offset="1" stop-color="#47E531"/>
</linearGradient>
<clipPath id="clip0_4095_4761">
<rect width="128" height="34.3746" fill="white" transform="translate(0.5 0.812714)"/>
</clipPath>
</defs>
</svg>
