<svg width="192" height="43" viewBox="0 0 192 43" fill="none" xmlns="http://www.w3.org/2000/svg">
<g clip-path="url(#clip0_627_1576)">
<path d="M150.37 24.8047C149.516 24.8047 148.985 24.4742 148.78 23.8134C148.728 23.896 148.676 23.9636 148.627 24.0312C148.584 24.0885 148.532 24.1391 148.474 24.1814C148.269 24.3075 147.902 24.3706 147.372 24.3706C147.037 24.3897 146.704 24.3079 146.418 24.1363C146.3 24.0499 146.208 23.9356 146.148 23.8041C146.089 23.6727 146.064 23.5286 146.078 23.3853C146.076 23.1859 146.103 22.9873 146.157 22.7951C146.196 22.6388 146.265 22.4913 146.361 22.361C146.561 22.1227 146.79 21.9093 147.043 21.7257C147.37 21.4734 147.752 21.158 148.19 20.7795L148.054 20.0556L148.759 19.4653L149.372 22.9723C149.39 23.0901 149.42 23.2059 149.462 23.3178C149.498 23.4119 149.559 23.4949 149.638 23.5581C149.732 23.6302 149.841 23.6815 149.957 23.7083C150.13 23.7454 150.307 23.7621 150.484 23.7578V24.8092L150.37 24.8047ZM146.77 22.9227C146.761 22.9951 146.777 23.0683 146.817 23.1301C146.856 23.1919 146.916 23.2386 146.986 23.2622C147.17 23.3171 147.362 23.342 147.555 23.3358C147.759 23.3358 147.953 23.3283 148.138 23.3133C148.312 23.2999 148.485 23.2773 148.656 23.2457L148.35 21.6206C148.084 21.8349 147.855 22.0151 147.662 22.1613C147.469 22.3115 147.309 22.4271 147.185 22.5277C147.061 22.6284 146.963 22.708 146.896 22.7681C146.844 22.8094 146.803 22.8625 146.776 22.9227H146.77Z" fill="#999999"/>
<path d="M150.49 24.8045C150.415 24.8045 150.351 24.7549 150.297 24.6543C150.241 24.5381 150.213 24.4104 150.217 24.2818C150.215 24.1548 150.242 24.0289 150.297 23.9139C150.351 23.8102 150.415 23.7637 150.49 23.7637H151.627V24.815L150.49 24.8045Z" fill="#999999"/>
<path d="M151.625 24.8045C151.55 24.8045 151.486 24.7549 151.432 24.6543C151.376 24.5379 151.35 24.4103 151.354 24.2818C151.351 24.1549 151.377 24.029 151.432 23.9139C151.486 23.8102 151.55 23.7637 151.625 23.7637H152.762V24.815L151.625 24.8045Z" fill="#999999"/>
<path d="M152.489 24.2816C152.486 24.1545 152.513 24.0285 152.569 23.9137C152.621 23.8101 152.685 23.7635 152.762 23.7635H152.915C153.005 23.7635 153.119 23.7635 153.255 23.753C153.392 23.7425 153.536 23.7305 153.687 23.7079C153.842 23.6847 153.996 23.6531 154.147 23.6133C154.295 23.5765 154.439 23.5263 154.577 23.4631C154.554 23.2859 154.521 23.1011 154.476 22.9119C154.432 22.7227 154.377 22.5409 154.323 22.3667C154.269 22.1925 154.197 22.0288 154.13 21.8771C154.063 21.7254 153.997 21.5932 153.937 21.4821L154.663 20.8573C154.754 21.0435 154.838 21.2388 154.913 21.443C154.988 21.6473 155.054 21.847 155.106 22.0438C155.158 22.2324 155.198 22.424 155.225 22.6175C155.25 22.7797 155.263 22.9433 155.265 23.1072C155.262 23.2208 155.241 23.3332 155.202 23.4406C155.162 23.5691 155.111 23.6941 155.049 23.8146C154.991 23.9268 154.926 24.0361 154.856 24.142C154.809 24.218 154.754 24.289 154.692 24.3537C154.452 24.5364 154.168 24.6573 153.868 24.7052C153.512 24.7761 153.149 24.8113 152.785 24.8103H152.762C152.685 24.8103 152.621 24.7608 152.569 24.6601C152.511 24.5423 152.484 24.4123 152.489 24.2816ZM154.34 20.2265C154.213 20.1255 154.078 20.0346 153.937 19.9546C153.767 19.854 153.606 19.7639 153.454 19.6813L153.931 18.8462C154.112 18.9128 154.285 18.9968 154.449 19.097C154.593 19.1829 154.729 19.2836 154.852 19.3974L154.34 20.2265Z" fill="#999999"/>
<path d="M158.123 24.8044C157.855 24.8121 157.589 24.7688 157.338 24.6768C157.138 24.5998 156.961 24.4754 156.822 24.3148C156.685 24.1506 156.586 23.9589 156.532 23.7531C156.469 23.5148 156.439 23.2693 156.442 23.0232C156.442 22.2882 156.438 21.6649 156.43 21.1533C156.43 20.6411 156.405 20.204 156.379 19.8451C156.353 19.4861 156.318 19.1827 156.276 18.9439C156.24 18.7211 156.185 18.5016 156.112 18.2876L156.816 17.5757C156.912 17.7275 156.972 17.8983 156.992 18.0758C157.026 18.2921 157.05 18.5069 157.065 18.7216C157.088 18.9965 157.105 19.2789 157.118 19.5687C157.13 19.8586 157.136 20.1695 157.139 20.4924C157.142 20.8153 157.139 21.1713 157.151 21.5438C157.163 21.9162 157.151 22.3383 157.151 22.7903C157.135 23.0473 157.216 23.3012 157.378 23.5038C157.531 23.675 157.798 23.7591 158.184 23.7591H158.32V24.8104L158.123 24.8044Z" fill="#999999"/>
<path d="M158.327 24.8045C158.251 24.8045 158.187 24.7549 158.134 24.6543C158.077 24.5381 158.05 24.4104 158.054 24.2818C158.051 24.1548 158.078 24.0289 158.134 23.9139C158.187 23.8102 158.251 23.7637 158.327 23.7637H159.462V24.815L158.327 24.8045Z" fill="#999999"/>
<path d="M159.462 24.8045C159.387 24.8045 159.322 24.7549 159.269 24.6543C159.212 24.5381 159.185 24.4104 159.189 24.2818C159.186 24.1548 159.214 24.0289 159.269 23.9139C159.322 23.8102 159.387 23.7637 159.462 23.7637H160.599V24.815L159.462 24.8045Z" fill="#999999"/>
<path d="M160.329 24.2816C160.325 24.1545 160.353 24.0284 160.408 23.9136C160.461 23.81 160.525 23.7634 160.602 23.7634C160.883 23.7721 161.161 23.7067 161.407 23.5742C161.643 23.4343 161.851 23.2531 162.02 23.0395C162.173 22.8548 162.327 22.664 162.469 22.4673C162.612 22.2705 162.75 22.0903 162.889 21.9266C163.017 21.7749 163.166 21.6419 163.332 21.5316C163.496 21.4281 163.688 21.3759 163.882 21.3818C164.077 21.3877 164.266 21.4514 164.423 21.5646C164.604 21.7 164.751 21.8735 164.855 22.0723C164.98 22.3094 165.071 22.562 165.127 22.8232C165.194 23.1288 165.226 23.4405 165.224 23.7529C165.222 23.8894 165.19 24.0239 165.132 24.1479C165.074 24.2824 165 24.4094 164.911 24.5264C164.832 24.6333 164.738 24.7289 164.632 24.8103C164.563 24.8721 164.476 24.911 164.383 24.9214C164.191 24.9181 163.999 24.9015 163.81 24.8718C163.575 24.838 163.344 24.7801 163.122 24.6991C162.904 24.6229 162.7 24.5117 162.52 24.3702C162.353 24.2438 162.243 24.0584 162.213 23.8535C162.037 24.1228 161.809 24.3567 161.544 24.5429C161.274 24.725 160.952 24.8186 160.625 24.8103H160.603C160.526 24.8103 160.462 24.7607 160.41 24.6601C160.352 24.5424 160.324 24.4124 160.329 24.2816ZM163.679 22.266C163.566 22.2716 163.458 22.315 163.373 22.3892C163.266 22.472 163.167 22.565 163.079 22.667C162.994 22.7593 162.92 22.86 162.857 22.9674C162.813 23.0326 162.783 23.1064 162.771 23.1837C162.772 23.2545 162.791 23.324 162.827 23.3855C162.863 23.4471 162.914 23.4985 162.976 23.5351C163.127 23.6349 163.294 23.7099 163.47 23.7574C163.665 23.8133 163.865 23.8544 164.067 23.8806C164.271 23.9066 164.441 23.9231 164.577 23.9301C164.568 23.7528 164.547 23.5762 164.514 23.4015C164.485 23.2146 164.433 23.0317 164.361 22.8563C164.296 22.7005 164.204 22.5572 164.089 22.4327C164.036 22.3773 163.972 22.3337 163.901 22.305C163.83 22.2762 163.753 22.2629 163.676 22.266H163.679Z" fill="#999999"/>
<path d="M168.071 24.8045C167.804 24.8121 167.538 24.7687 167.288 24.6768C167.087 24.5999 166.909 24.4756 166.77 24.3148C166.634 24.1499 166.535 23.9584 166.48 23.7531C166.418 23.5147 166.387 23.2693 166.39 23.0232C166.39 22.2883 166.386 21.665 166.379 21.1533C166.379 20.6411 166.355 20.2041 166.327 19.8451C166.299 19.4862 166.267 19.1828 166.226 18.944C166.189 18.7211 166.134 18.5016 166.06 18.2876L166.764 17.5742C166.858 17.7265 166.919 17.8971 166.94 18.0744C166.974 18.2906 166.998 18.5054 167.013 18.7202C167.036 18.9945 167.053 19.2769 167.064 19.5673C167.075 19.8576 167.083 20.1655 167.087 20.4909C167.087 20.8169 167.095 21.1698 167.098 21.5423C167.101 21.9148 167.098 22.3368 167.098 22.7889C167.082 23.0458 167.163 23.2994 167.324 23.5023C167.478 23.6735 167.746 23.7576 168.132 23.7576H168.268V24.809L168.071 24.8045Z" fill="#999999"/>
<path d="M168.276 24.8045C168.199 24.8045 168.135 24.7549 168.083 24.6543C168.026 24.5383 167.998 24.4105 168.003 24.2818C168 24.1547 168.027 24.0286 168.083 23.9139C168.135 23.8102 168.199 23.7637 168.276 23.7637H169.411V24.815L168.276 24.8045Z" fill="#999999"/>
<path d="M175.282 23.7578C175.435 23.7578 175.607 23.7578 175.777 23.7368C175.92 23.728 176.06 23.6939 176.191 23.6361C176.151 23.277 176.083 22.9214 175.987 22.5728C175.884 22.199 175.755 21.8327 175.601 21.4764L176.327 20.8516C176.532 21.3006 176.681 21.772 176.771 22.2559C176.837 22.6028 176.875 22.9544 176.885 23.3072C176.882 23.4151 176.864 23.5222 176.832 23.6256C176.798 23.7493 176.755 23.8703 176.702 23.9876C176.652 24.0985 176.596 24.2064 176.532 24.3105C176.488 24.3865 176.431 24.4542 176.362 24.5102C176.226 24.6021 176.077 24.6735 175.919 24.722C175.679 24.789 175.43 24.8189 175.181 24.8106C174.957 24.81 174.735 24.7687 174.527 24.689C174.289 24.5884 174.086 24.4219 173.943 24.2099C173.823 24.4104 173.645 24.5714 173.431 24.6724C173.176 24.7737 172.901 24.8208 172.625 24.8106C172.345 24.8231 172.067 24.7619 171.82 24.6334C171.612 24.5101 171.451 24.3247 171.36 24.1047C171.208 24.3463 170.984 24.5365 170.718 24.6499C170.425 24.7598 170.112 24.8109 169.799 24.8001H169.402C169.327 24.8001 169.261 24.7505 169.209 24.6499C169.152 24.5339 169.125 24.4061 169.129 24.2774C169.126 24.1503 169.153 24.0242 169.209 23.9095C169.261 23.8058 169.327 23.7593 169.402 23.7593H169.901C170.19 23.7781 170.477 23.7105 170.726 23.5655C170.911 23.4349 171.042 23.2428 171.093 23.0248L171.355 22.0231L171.98 22.0786C171.95 22.2859 171.924 22.4751 171.901 22.6464C171.88 22.7867 171.869 22.9282 171.867 23.0699C171.862 23.1623 171.875 23.2548 171.907 23.3418C171.94 23.4288 171.989 23.5085 172.054 23.576C172.226 23.7134 172.446 23.7792 172.667 23.7593C173.029 23.7593 173.277 23.7002 173.41 23.5821C173.548 23.4538 173.642 23.2862 173.678 23.1029L173.905 22.0336L174.53 22.0786L174.393 23.3372C174.551 23.6181 174.844 23.7578 175.282 23.7578Z" fill="#999999"/>
<path d="M152.989 32.7182C152.834 32.7177 152.679 32.6985 152.529 32.6611C152.382 32.6269 152.246 32.5584 152.132 32.4614C152.132 32.529 152.132 32.5935 152.132 32.6566C152.132 32.7197 152.132 32.7798 152.132 32.8399C152.121 32.9409 152.104 33.0412 152.082 33.1402C152.053 33.2649 152.018 33.3878 151.974 33.5082C151.929 33.6329 151.874 33.7539 151.809 33.8702C151.755 33.9715 151.684 34.0634 151.599 34.142C151.464 34.2586 151.313 34.3561 151.15 34.4319C150.931 34.539 150.703 34.6285 150.468 34.6992C150.186 34.7857 149.898 34.8529 149.606 34.9005C149.277 34.9527 148.945 34.9783 148.612 34.9771C148.16 34.9916 147.709 34.9218 147.283 34.7713C146.991 34.6688 146.728 34.4988 146.517 34.2757C146.359 34.0916 146.249 33.8717 146.199 33.6359C146.135 33.3452 146.105 33.0485 146.108 32.7512C146.11 32.334 146.166 31.9188 146.274 31.5152C146.381 31.096 146.524 30.6861 146.7 30.2896L147.222 30.4908C147.101 30.8407 147.004 31.1979 146.931 31.5602C146.866 31.8566 146.83 32.1583 146.824 32.4614C146.819 32.6579 146.84 32.8543 146.886 33.0456C146.917 33.1736 146.969 33.2959 147.04 33.4076C147.2 33.591 147.414 33.7215 147.652 33.7816C148 33.887 148.362 33.9377 148.725 33.9317C149.22 33.9326 149.714 33.8762 150.196 33.7635C150.62 33.6729 151.032 33.5311 151.421 33.3415C151.405 32.8027 151.354 32.2654 151.268 31.7329C151.176 31.1712 151.066 30.6235 150.939 30.0898L151.705 29.6002L151.933 30.5915C151.974 30.7722 152.031 30.9491 152.103 31.1202C152.152 31.242 152.228 31.352 152.324 31.4431C152.411 31.5211 152.516 31.5782 152.63 31.6098C152.764 31.6462 152.901 31.6668 153.039 31.6714H153.05V32.7227L152.989 32.7182ZM149.139 30.1649C149.012 30.0639 148.877 29.9725 148.736 29.8916C148.566 29.7925 148.405 29.7008 148.253 29.6197L148.73 28.7847C148.91 28.8507 149.084 28.9342 149.247 29.034C149.392 29.1198 149.527 29.2205 149.65 29.3344L149.139 30.1649Z" fill="#999999"/>
<path d="M152.739 32.1938C152.735 32.0671 152.763 31.9415 152.819 31.8273C152.872 31.7221 152.937 31.6771 153.012 31.6771C153.293 31.6861 153.571 31.6207 153.818 31.4878C154.053 31.3474 154.261 31.1663 154.43 30.9532C154.584 30.7669 154.737 30.5762 154.878 30.3794C155.019 30.1827 155.158 30.0024 155.299 29.8402C155.426 29.6874 155.575 29.5538 155.742 29.4437C155.899 29.3434 156.083 29.2911 156.27 29.2935C156.473 29.2929 156.67 29.3578 156.831 29.4783C157.012 29.6126 157.16 29.7857 157.263 29.9844C157.389 30.2212 157.481 30.474 157.536 30.7354C157.602 31.0409 157.635 31.3527 157.632 31.6651C157.63 31.8014 157.599 31.9358 157.542 32.0601C157.483 32.1943 157.409 32.3213 157.32 32.4386C157.241 32.5455 157.148 32.6415 157.043 32.7239C156.973 32.785 156.886 32.8238 156.793 32.8351C156.6 32.8318 156.408 32.8148 156.218 32.784C155.984 32.7504 155.754 32.6925 155.532 32.6113C155.314 32.5356 155.111 32.425 154.93 32.2839C154.762 32.1576 154.652 31.9713 154.623 31.7657C154.446 32.0351 154.218 32.2695 153.952 32.4566C153.682 32.6381 153.361 32.7316 153.033 32.7239H153.01C152.935 32.7239 152.871 32.6729 152.817 32.5737C152.759 32.4554 152.732 32.3248 152.739 32.1938ZM156.09 30.1782C155.976 30.1844 155.868 30.2278 155.783 30.3013C155.675 30.3837 155.576 30.4768 155.487 30.5792C155.404 30.6725 155.33 30.773 155.265 30.8796C155.221 30.9453 155.193 31.0196 155.181 31.0973C155.182 31.1679 155.201 31.2371 155.236 31.2983C155.272 31.3596 155.323 31.4109 155.385 31.4473C155.536 31.547 155.704 31.6221 155.88 31.6696C156.075 31.7267 156.274 31.7679 156.476 31.7927C156.679 31.8183 156.851 31.8348 156.987 31.8423C156.977 31.665 156.956 31.4885 156.925 31.3136C156.895 31.1266 156.844 30.9437 156.771 30.7684C156.707 30.6126 156.614 30.4692 156.499 30.3449C156.447 30.2901 156.383 30.2468 156.313 30.218C156.242 30.1893 156.166 30.1757 156.09 30.1782Z" fill="#999999"/>
<path d="M162.676 34.4214C162.224 34.4352 161.773 34.3654 161.348 34.2157C161.056 34.1121 160.793 33.9423 160.582 33.7201C160.423 33.5352 160.314 33.3149 160.263 33.0787C160.199 32.7881 160.169 32.4914 160.173 32.1941C160.175 31.7769 160.23 31.3616 160.338 30.958C160.446 30.5393 160.588 30.1299 160.764 29.734L161.286 29.9337C161.166 30.2834 161.069 30.6407 160.997 31.0031C160.931 31.2994 160.895 31.6011 160.888 31.9042C160.884 32.1013 160.905 32.2981 160.951 32.49C160.982 32.6179 161.034 32.7401 161.104 32.8519C161.265 33.0342 161.479 33.1642 161.717 33.2244C162.064 33.3306 162.426 33.3813 162.789 33.3746C163.038 33.3742 163.287 33.3592 163.534 33.3296C163.785 33.3005 164.033 33.2559 164.279 33.1959C164.515 33.1386 164.747 33.0623 164.971 32.9676C165.177 32.8829 165.372 32.7729 165.55 32.6402C165.529 32.57 165.49 32.5063 165.437 32.4554C165.358 32.3927 165.269 32.342 165.175 32.3052C165.012 32.2405 164.845 32.1868 164.675 32.1445C164.464 32.0885 164.191 32.0199 163.857 31.9388C163.704 31.9047 163.557 31.848 163.421 31.7706C163.325 31.7163 163.24 31.645 163.171 31.5603C163.118 31.4925 163.079 31.4149 163.057 31.332C163.038 31.2534 163.028 31.1727 163.028 31.0917C163.035 30.7809 163.104 30.4745 163.234 30.1905C163.367 29.8801 163.544 29.5898 163.761 29.3284C163.965 29.0791 164.206 28.8614 164.476 28.6826C164.7 28.5238 164.966 28.4343 165.242 28.4258C165.441 28.4317 165.633 28.4978 165.792 28.615C166.007 28.7665 166.207 28.938 166.388 29.1272L165.866 29.7955C165.751 29.6959 165.625 29.6083 165.492 29.5342C165.386 29.47 165.264 29.4333 165.14 29.4276C165.016 29.4318 164.895 29.4583 164.781 29.5057C164.637 29.5651 164.503 29.6462 164.384 29.746C164.239 29.8673 164.111 30.0073 164.004 30.162C163.873 30.3526 163.766 30.5584 163.686 30.7748C163.735 30.8502 163.809 30.9073 163.895 30.937C164.027 30.9946 164.161 31.0447 164.298 31.0872C164.452 31.1352 164.64 31.1833 164.844 31.2374C165.048 31.2914 165.265 31.344 165.492 31.4101C165.731 31.4611 165.947 31.5884 166.105 31.7721C166.212 31.9363 166.265 32.1285 166.258 32.3233C166.256 32.4245 166.243 32.5253 166.218 32.6237C166.193 32.7323 166.158 32.8388 166.115 32.9421C166.074 33.0412 166.033 33.1328 165.991 33.2139C165.964 33.2745 165.927 33.3307 165.883 33.3806C165.709 33.545 165.515 33.6859 165.303 33.7997C165.055 33.935 164.794 34.0485 164.525 34.1391C164.231 34.2376 163.929 34.312 163.623 34.3614C163.309 34.4063 162.993 34.4264 162.676 34.4214Z" fill="#999999"/>
<path d="M168.98 29.2322C169.296 29.226 169.601 29.3402 169.832 29.5506C170.077 29.7756 170.274 30.0462 170.411 30.3466C170.565 30.6732 170.675 31.0173 170.741 31.3709C170.805 31.6972 170.838 32.0285 170.842 32.3607C170.845 32.7623 170.759 33.1597 170.588 33.5247C170.432 33.8645 170.225 34.1798 169.975 34.4604C169.752 34.707 169.491 34.9174 169.201 35.0837C168.986 35.2183 168.74 35.2969 168.486 35.3119C168.412 35.3063 168.34 35.2912 168.271 35.2669C168.172 35.2368 168.06 35.2008 167.936 35.1557C167.812 35.1107 167.678 35.0596 167.537 35.0056L167.124 34.8283L167.294 34.2606C167.384 34.2816 167.479 34.3011 167.577 34.3162L167.867 34.3552L168.129 34.3823C168.208 34.3823 168.271 34.3928 168.316 34.3928C168.508 34.3799 168.696 34.3288 168.867 34.2426C169.076 34.1407 169.27 34.0135 169.446 33.8641C169.635 33.7047 169.803 33.5231 169.946 33.3234C170.087 33.1319 170.196 32.9194 170.269 32.6941L170.246 32.5049C169.769 32.6528 169.271 32.7283 168.771 32.7286C168.445 32.747 168.122 32.6605 167.851 32.4823C167.739 32.3922 167.651 32.2769 167.593 32.1462C167.536 32.0155 167.511 31.8733 167.522 31.7314C167.52 31.4122 167.56 31.0942 167.641 30.7852C167.713 30.5088 167.821 30.2431 167.965 29.9951C168.084 29.785 168.245 29.5997 168.437 29.4499C168.588 29.3196 168.779 29.2429 168.98 29.2322ZM168.889 31.6938C169.042 31.6938 169.22 31.6833 169.428 31.6653C169.634 31.648 169.839 31.6164 170.041 31.5707C169.939 31.2094 169.774 30.8683 169.552 30.5629C169.482 30.4518 169.385 30.3589 169.27 30.292C169.156 30.225 169.026 30.1861 168.893 30.1784C168.771 30.176 168.652 30.2177 168.559 30.2955C168.462 30.3756 168.383 30.4742 168.326 30.5854C168.265 30.7015 168.221 30.8253 168.195 30.9534C168.17 31.065 168.157 31.1787 168.155 31.2928C168.151 31.3516 168.164 31.4102 168.191 31.4629C168.218 31.5155 168.258 31.5605 168.308 31.5932C168.488 31.6779 168.689 31.7122 168.889 31.6923V31.6938Z" fill="#999999"/>
<path d="M171.637 35.3117C171.501 35.2991 171.368 35.2614 171.245 35.2006C171.075 35.1255 170.857 35.0263 170.592 34.9002L170.775 34.3535C170.889 34.3725 171.005 34.3855 171.121 34.3925C171.274 34.4045 171.372 34.4091 171.427 34.4091C171.603 34.3903 171.771 34.3272 171.915 34.2258C172.107 34.102 172.283 33.9541 172.437 33.7858C172.605 33.6071 172.75 33.4088 172.869 33.1955C172.985 32.9961 173.062 32.777 173.096 32.5497C173.071 32.3809 173.035 32.2138 172.989 32.0495C172.94 31.8713 172.883 31.6896 172.818 31.5043C172.754 31.3181 172.684 31.1319 172.609 30.9471C172.534 30.7624 172.455 30.5837 172.38 30.4124L173.096 29.8447C173.307 30.3321 173.482 30.8341 173.618 31.3466C173.706 31.6614 173.757 31.9849 173.771 32.3109C173.777 32.7286 173.696 33.143 173.532 33.5289C173.389 33.8699 173.196 34.1887 172.959 34.4751C172.763 34.716 172.527 34.923 172.261 35.0879C172.077 35.2162 171.862 35.2935 171.637 35.3117Z" fill="#999999"/>
<path d="M176.328 31.7598C176.629 31.7582 176.929 31.7321 177.225 31.6817C177.521 31.6367 177.811 31.5581 178.089 31.4474C177.999 30.9897 177.805 30.5578 177.52 30.1843C177.154 29.7224 176.713 29.3222 176.215 28.9992L176.521 28.041C176.866 28.2424 177.186 28.4818 177.474 28.7544C177.732 28.9948 177.961 29.2634 178.156 29.555C178.328 29.8093 178.466 30.0844 178.565 30.3735C178.651 30.6192 178.697 30.8767 178.702 31.1365C178.7 31.2498 178.681 31.3623 178.645 31.4699C178.608 31.586 178.562 31.6994 178.509 31.8093C178.46 31.9095 178.405 32.0063 178.343 32.0992C178.302 32.1675 178.25 32.2292 178.19 32.2824C177.946 32.472 177.661 32.6036 177.356 32.6669C176.976 32.7616 176.585 32.8086 176.192 32.8066C175.934 32.812 175.677 32.7857 175.426 32.7285C175.258 32.69 175.101 32.6157 174.966 32.5107C174.86 32.4228 174.785 32.3039 174.752 32.1713C174.716 32.0294 174.698 31.8835 174.7 31.7372C174.701 31.553 174.712 31.3691 174.734 31.186C174.753 31.0081 174.784 30.8316 174.825 30.6574L175.336 30.7685C175.314 30.9308 175.302 31.0944 175.302 31.2581C175.302 31.3181 175.308 31.3779 175.319 31.4369C175.335 31.5027 175.375 31.5604 175.432 31.5991C175.525 31.6585 175.629 31.6979 175.739 31.7147C175.933 31.7489 176.131 31.764 176.328 31.7598Z" fill="#999999"/>
<path d="M183.142 32.7183C183.092 33.0793 182.975 33.4282 182.795 33.7471C182.629 34.0473 182.423 34.3246 182.182 34.5716C181.973 34.7896 181.729 34.9736 181.461 35.1168C181.26 35.2326 181.034 35.2996 180.802 35.3121C180.728 35.3064 180.656 35.2912 180.586 35.267C180.488 35.237 180.376 35.2009 180.252 35.1559C180.128 35.1108 179.995 35.0598 179.854 35.0057L179.44 34.8285L179.61 34.2607C179.7 34.2818 179.795 34.3013 179.894 34.3163L180.183 34.3554L180.445 34.3824C180.525 34.3824 180.586 34.3929 180.632 34.3929C180.824 34.3801 181.012 34.329 181.184 34.2427C181.392 34.1408 181.587 34.0136 181.763 33.8642C181.951 33.7049 182.119 33.5233 182.262 33.3235C182.403 33.132 182.513 32.9196 182.585 32.6942C182.313 32.7093 182.06 32.7183 181.819 32.7228C181.579 32.7273 181.338 32.7228 181.081 32.7228C180.755 32.7414 180.432 32.6548 180.162 32.4765C180.049 32.3863 179.961 32.2711 179.904 32.1404C179.846 32.0097 179.822 31.8674 179.832 31.7255C179.83 31.4064 179.871 31.0883 179.952 30.7793C180.023 30.5029 180.132 30.2372 180.275 29.9893C180.394 29.7791 180.555 29.5939 180.747 29.4441C180.902 29.3184 181.096 29.2475 181.297 29.2428C181.556 29.2388 181.809 29.3173 182.019 29.4666C182.233 29.6214 182.415 29.8158 182.553 30.0388C182.706 30.2847 182.826 30.5486 182.91 30.8243C182.998 31.1045 183.063 31.3914 183.103 31.6819H183.774V32.7333L183.142 32.7183ZM181.211 31.6925H181.734C181.908 31.6925 182.127 31.6925 182.392 31.6804C182.298 31.2925 182.132 30.9246 181.904 30.5946C181.699 30.3162 181.469 30.177 181.211 30.177C181.089 30.1747 180.97 30.2164 180.877 30.2942C180.78 30.3742 180.701 30.4728 180.644 30.584C180.583 30.7001 180.539 30.824 180.512 30.952C180.488 31.0636 180.475 31.1773 180.473 31.2914C180.47 31.3502 180.482 31.4087 180.509 31.4613C180.536 31.5139 180.576 31.5589 180.626 31.5918C180.808 31.6774 181.01 31.7123 181.211 31.6925Z" fill="#999999"/>
<path d="M183.779 32.718C183.702 32.718 183.638 32.667 183.586 32.5679C183.529 32.4519 183.501 32.324 183.506 32.1954C183.503 32.0688 183.53 31.9431 183.586 31.8289C183.638 31.7238 183.702 31.6787 183.779 31.6787H184.914V32.7301L183.779 32.718Z" fill="#999999"/>
<path d="M184.914 32.718C184.838 32.718 184.773 32.667 184.721 32.5679C184.664 32.4519 184.637 32.324 184.641 32.1954C184.638 32.0688 184.665 31.9431 184.721 31.8289C184.773 31.7238 184.838 31.6787 184.914 31.6787H186.049V32.7301L184.914 32.718Z" fill="#999999"/>
<path d="M185.777 32.194C185.773 32.0674 185.8 31.9418 185.856 31.8276C185.91 31.7224 185.974 31.6774 186.049 31.6774H187.503C187.759 31.6784 188.014 31.6424 188.259 31.5707C188.51 31.4966 188.752 31.3959 188.98 31.2704C189.23 31.1367 189.467 31.003 189.696 30.8708C189.924 30.7387 190.155 30.611 190.388 30.4924C189.843 30.3292 189.362 30.1825 188.945 30.0523C188.616 29.9377 188.272 29.8719 187.923 29.8571C187.889 29.855 187.855 29.855 187.82 29.8571C187.78 29.8614 187.741 29.8748 187.707 29.8961C187.663 30.0303 187.631 30.168 187.611 30.3076C187.584 30.4788 187.568 30.626 187.56 30.7582L186.776 30.97C186.806 30.7327 186.846 30.4939 186.895 30.252C186.928 30.0626 186.984 29.8777 187.061 29.7008C187.108 29.6117 187.165 29.5277 187.231 29.45C187.307 29.357 187.394 29.2733 187.491 29.2007C187.586 29.1276 187.689 29.0642 187.797 29.0115C187.892 28.9621 187.997 28.9353 188.104 28.9334C188.29 28.9368 188.475 28.9631 188.654 29.0115C188.862 29.0625 189.114 29.1376 189.42 29.2338C189.726 29.3299 190.082 29.4485 190.492 29.5897C190.903 29.7309 191.412 29.8901 191.991 30.0568L191.64 30.958C191.448 30.9563 191.257 30.9806 191.072 31.0301C190.881 31.0853 190.696 31.1597 190.521 31.2523C190.305 31.3663 190.094 31.4911 189.89 31.6263L189.095 32.149C188.837 32.3202 188.559 32.4604 188.266 32.5665C187.979 32.6731 187.675 32.728 187.368 32.7287H186.04C185.965 32.7287 185.901 32.6777 185.847 32.5785C185.791 32.4582 185.767 32.326 185.777 32.194ZM188.446 27.9887C188.318 27.8876 188.184 27.7963 188.043 27.7153C187.873 27.6162 187.712 27.5246 187.56 27.4435L188.036 26.6084C188.217 26.6743 188.391 26.7584 188.554 26.8592C188.7 26.9442 188.835 27.045 188.957 27.1596L188.446 27.9887Z" fill="#999999"/>
<path d="M120.153 2.23619V8.63437C120.153 8.75472 120.201 8.87027 120.287 8.9562C120.373 9.04214 120.49 9.0916 120.613 9.09396H139.906C140.717 9.09455 141.52 8.93854 142.269 8.63486C143.018 8.33117 143.699 7.88575 144.272 7.32406C144.845 6.76237 145.3 6.09542 145.611 5.36132C145.921 4.62722 146.081 3.84036 146.081 3.04572V1.0797C146.081 0.957814 146.031 0.840919 145.943 0.75473C145.855 0.668541 145.736 0.620117 145.612 0.620117H121.802C121.365 0.620117 120.945 0.790384 120.636 1.09346C120.327 1.39653 120.153 1.80758 120.153 2.23619Z" fill="#01286D"/>
<path d="M129.265 34.514H135.791C136.008 34.514 136.223 34.472 136.423 34.3905C136.623 34.309 136.805 34.1896 136.959 34.039C137.112 33.8885 137.233 33.7098 137.316 33.5132C137.398 33.3166 137.44 33.106 137.44 32.8934V13.789C137.437 13.6702 137.388 13.5569 137.303 13.4729C137.217 13.3889 137.101 13.3407 136.98 13.3384H130.453C130.016 13.3384 129.597 13.5086 129.288 13.8117C128.979 14.1148 128.805 14.5258 128.805 14.9544V34.0559C128.804 34.1157 128.815 34.1751 128.838 34.2306C128.86 34.2862 128.894 34.3367 128.937 34.3794C128.98 34.422 129.031 34.4559 129.087 34.479C129.143 34.5021 129.204 34.514 129.265 34.514Z" fill="#01286D"/>
<path d="M107.656 34.514H122.824C123.041 34.5146 123.256 34.4731 123.457 34.3919C123.658 34.3107 123.841 34.1913 123.994 34.0407C124.148 33.8902 124.27 33.7113 124.353 33.5144C124.436 33.3175 124.479 33.1065 124.478 32.8934V26.4952C124.478 26.3733 124.429 26.2564 124.341 26.1703C124.253 26.0841 124.134 26.0356 124.009 26.0356H108.842C108.404 26.036 107.985 26.2066 107.676 26.5099C107.367 26.8133 107.193 27.2245 107.193 27.6532V34.0514C107.192 34.1728 107.241 34.2895 107.327 34.3762C107.414 34.4629 107.532 34.5124 107.656 34.514Z" fill="#01286D"/>
<path d="M47.2936 26.0401H37.4255C37.3026 26.0405 37.1845 25.9935 37.0968 25.9092C37.0091 25.8248 36.9587 25.71 36.9567 25.5896V13.789C36.9543 13.6686 36.9039 13.554 36.8162 13.4698C36.7285 13.3855 36.6107 13.3384 36.4879 13.3384H29.9612C29.524 13.3384 29.1047 13.5086 28.7956 13.8117C28.4864 14.1148 28.3127 14.5258 28.3127 14.9545V28.4717C28.3127 30.0758 28.9627 31.6142 30.1198 32.7485C31.2768 33.8828 32.8461 34.52 34.4824 34.52H50.2352C51.8715 34.52 53.4408 33.8828 54.5978 32.7485C55.7549 31.6142 56.4049 30.0758 56.4049 28.4717V1.0797C56.4049 0.957814 56.3555 0.840919 56.2676 0.75473C56.1797 0.668541 56.0604 0.620117 55.9361 0.620117H49.4064C48.969 0.620117 48.5496 0.790335 48.2402 1.09336C47.9308 1.39639 47.7567 1.80744 47.7563 2.23619V25.582C47.7573 25.6421 47.7461 25.7017 47.7233 25.7575C47.7004 25.8132 47.6665 25.8639 47.6234 25.9066C47.5803 25.9493 47.5289 25.9831 47.4723 26.006C47.4156 26.0289 47.3549 26.0405 47.2936 26.0401Z" fill="#01286D"/>
<path d="M85.5773 2.23619V8.63437C85.5773 8.75626 85.6267 8.87316 85.7146 8.95935C85.8025 9.04554 85.9217 9.09396 86.0461 9.09396H101.214C101.651 9.09356 102.07 8.92297 102.379 8.61965C102.689 8.31634 102.862 7.90513 102.862 7.47639V1.0797C102.862 0.957814 102.813 0.840919 102.725 0.75473C102.637 0.668541 102.518 0.620117 102.393 0.620117H87.2258C86.7887 0.620515 86.3696 0.790905 86.0606 1.09389C85.7515 1.39688 85.5777 1.8077 85.5773 2.23619Z" fill="#01286D"/>
<path d="M124.007 13.3309H100.391C98.7553 13.3309 97.1865 13.9677 96.0295 15.1014C94.8725 16.235 94.2222 17.7726 94.2214 19.3762V25.5791C94.2193 25.6995 94.169 25.8144 94.0813 25.8987C93.9935 25.983 93.8754 26.0301 93.7525 26.0297H84.8435C85.7467 23.5133 85.8191 20.7822 85.0505 18.2232C84.2819 15.6643 82.7113 13.4074 80.5612 11.7724C78.4111 10.1374 75.7906 9.20725 73.0712 9.11376C70.3517 9.02028 67.6712 9.76821 65.4096 11.2515C63.1479 12.7349 61.4199 14.8784 60.4703 17.3783C59.5208 19.8781 59.3979 22.6076 60.119 25.1798C60.8402 27.7519 62.3689 30.0364 64.4884 31.7093C66.6079 33.3822 69.2108 34.3587 71.9281 34.5005L68.605 42.3646C68.5752 42.4343 68.5634 42.5102 68.5707 42.5854C68.5781 42.6607 68.6043 42.733 68.6471 42.7959C68.6899 42.8588 68.7479 42.9104 68.8159 42.9459C68.884 42.9815 68.9599 43.0001 69.037 42.9999H76.5902C76.9164 43 77.2353 42.9053 77.5066 42.7278C77.778 42.5503 77.9895 42.2979 78.1146 42.0026L80.857 35.5128C80.9816 35.2173 81.1928 34.9647 81.4639 34.7869C81.735 34.6091 82.0538 34.5141 82.3799 34.514H96.6911C98.3274 34.514 99.8966 33.8768 101.054 32.7425C102.211 31.6083 102.861 30.0699 102.861 28.4658V22.2629C102.861 22.2026 102.873 22.1429 102.896 22.0872C102.92 22.0315 102.955 21.981 102.998 21.9384C103.042 21.8958 103.093 21.8621 103.15 21.8392C103.207 21.8163 103.268 21.8046 103.33 21.8048H122.821C123.038 21.8058 123.253 21.7646 123.454 21.6838C123.656 21.603 123.838 21.484 123.992 21.3337C124.146 21.1834 124.269 21.0047 124.352 20.808C124.435 20.6112 124.478 20.4003 124.478 20.1872V13.789C124.478 13.7285 124.466 13.6687 124.442 13.6129C124.418 13.5571 124.383 13.5065 124.339 13.4639C124.296 13.4214 124.244 13.3877 124.186 13.3649C124.129 13.3421 124.068 13.3305 124.007 13.3309ZM76.6239 23.4313C76.4584 24.0066 75.8762 25.2802 75.6296 25.8134C75.5952 25.8862 75.5409 25.9484 75.4728 25.9929C75.4047 26.0374 75.3253 26.0626 75.2435 26.0657C74.646 26.0867 73.2227 26.1258 72.6175 26.0567C70.1049 25.7668 68.2955 24.1583 68.294 21.8183C68.2955 21.1203 68.4721 20.4335 68.8083 19.8182C69.1446 19.203 69.6301 18.6784 70.222 18.2906C70.814 17.9028 71.4942 17.6637 72.2026 17.5945C72.9111 17.5253 73.626 17.6281 74.2844 17.8938C76.4906 18.7889 77.3149 21.0433 76.6239 23.4313Z" fill="#01286D"/>
<path d="M8.72819 14.4409H1.61475C1.52869 14.4407 1.44346 14.4574 1.36415 14.4902C1.28484 14.523 1.21308 14.5711 1.15316 14.6316C1.09324 14.6922 1.04639 14.764 1.0154 14.8427C0.984412 14.9214 0.969927 15.0054 0.97281 15.0898C1.14131 20.1886 3.28283 25.0334 6.96256 28.6407C10.6423 32.2481 15.5844 34.3474 20.7856 34.5126C20.8717 34.5154 20.9574 34.5012 21.0377 34.4708C21.118 34.4405 21.1912 34.3945 21.253 34.3358C21.3147 34.2771 21.3638 34.2067 21.3972 34.129C21.4307 34.0512 21.4478 33.9677 21.4475 33.8833V25.0985C21.4451 24.9385 21.3821 24.7851 21.2709 24.668C21.1596 24.5509 21.008 24.4785 20.8454 24.4647C18.6136 24.3353 16.4863 23.494 14.7876 22.069C13.089 20.6441 11.9123 18.7137 11.4369 16.5721C11.3012 15.9672 10.9586 15.426 10.4659 15.0383C9.97316 14.6506 9.35999 14.4398 8.72819 14.4409Z" fill="url(#paint0_linear_627_1576)"/>
<path d="M6.08388 11.9283C9.44392 11.9283 12.1678 9.25803 12.1678 5.96413C12.1678 2.67023 9.44392 0 6.08388 0C2.72385 0 0 2.67023 0 5.96413C0 9.25803 2.72385 11.9283 6.08388 11.9283Z" fill="url(#paint1_linear_627_1576)"/>
</g>
<defs>
<linearGradient id="paint0_linear_627_1576" x1="11.2102" y1="36.3044" x2="11.2102" y2="7.78141" gradientUnits="userSpaceOnUse">
<stop stop-color="#00BC3B"/>
<stop offset="1" stop-color="#47E531"/>
</linearGradient>
<linearGradient id="paint1_linear_627_1576" x1="483.182" y1="2835.35" x2="483.182" y2="546.791" gradientUnits="userSpaceOnUse">
<stop stop-color="#00BC3B"/>
<stop offset="1" stop-color="#47E531"/>
</linearGradient>
<clipPath id="clip0_627_1576">
<rect width="192" height="43" fill="white"/>
</clipPath>
</defs>
</svg>
