<svg width="37" height="56" viewBox="0 0 37 56" fill="none" xmlns="http://www.w3.org/2000/svg">
<path d="M0.5 8C0.5 3.58172 4.08172 0 8.5 0H32.5C34.7091 0 36.5 1.79086 36.5 4V52C36.5 54.2091 34.7091 56 32.5 56H8.5C4.08172 56 0.5 52.4183 0.5 48V8Z" fill="#01286D"/>
<path d="M9.5 14C9.5 12.8954 10.3954 12 11.5 12H25.5C26.6046 12 27.5 12.8954 27.5 14V16H9.5V14Z" fill="#00A54E"/>
<path d="M9.5 16H27.5V20H9.5V16Z" fill="white"/>
<path d="M9.5 20H27.5V22C27.5 23.1046 26.6046 24 25.5 24H11.5C10.3954 24 9.5 23.1046 9.5 22V20Z" fill="#E11900"/>
<path d="M11.6128 37.3726H10.5024V32H11.6128V37.3726Z" fill="white"/>
<path d="M13.4456 37.3877C13.2654 37.3877 13.112 37.3222 12.9854 37.1912C12.8636 37.0603 12.8027 36.9016 12.8027 36.7152C12.8027 36.5338 12.8636 36.3802 12.9854 36.2542C13.112 36.1233 13.2654 36.0578 13.4456 36.0578C13.6209 36.0578 13.7695 36.1233 13.8912 36.2542C14.0179 36.3802 14.0812 36.5338 14.0812 36.7152C14.0812 36.9016 14.0179 37.0603 13.8912 37.1912C13.7695 37.3222 13.6209 37.3877 13.4456 37.3877Z" fill="white"/>
<path d="M17.1162 35.423H16.298V37.3726H15.1803V32H17.1747C17.5741 32 17.9198 32.063 18.2121 32.1889C18.5043 32.3148 18.7259 32.4987 18.8769 32.7405C19.0327 32.9823 19.1107 33.2745 19.1107 33.6171C19.1107 33.8639 19.0741 34.083 19.0011 34.2745C18.9329 34.4659 18.8282 34.6347 18.6869 34.7808C18.5506 34.9218 18.3777 35.0402 18.1682 35.1359L19.2933 37.3197V37.3726H18.0879L17.1162 35.423ZM16.298 34.5314H17.1966C17.3622 34.5314 17.5034 34.4986 17.6203 34.4332C17.7421 34.3677 17.8346 34.2745 17.8979 34.1536C17.9612 34.0276 17.9929 33.8815 17.9929 33.7153C17.9929 33.4584 17.9223 33.2594 17.781 33.1183C17.6398 32.9723 17.4352 32.8992 17.1674 32.8992H16.298V34.5314Z" fill="white"/>
<path d="M20.8154 37.3877C20.6351 37.3877 20.4817 37.3222 20.3551 37.1912C20.2333 37.0603 20.1725 36.9016 20.1725 36.7152C20.1725 36.5338 20.2333 36.3802 20.3551 36.2542C20.4817 36.1233 20.6351 36.0578 20.8154 36.0578C20.9907 36.0578 21.1392 36.1233 21.261 36.2542C21.3876 36.3802 21.4509 36.5338 21.4509 36.7152C21.4509 36.9016 21.3876 37.0603 21.261 37.1912C21.1392 37.3222 20.9907 37.3877 20.8154 37.3877Z" fill="white"/>
<path d="M11.6104 44H10.5V38.6274H11.6104V44Z" fill="white"/>
<path d="M14.5098 42.0505H13.6916V44H12.5739V38.6274H14.5683C14.9676 38.6274 15.3134 38.6904 15.6057 38.8163C15.8979 38.9423 16.1195 39.1261 16.2705 39.3679C16.4263 39.6097 16.5042 39.9019 16.5042 40.2445C16.5042 40.4913 16.4677 40.7105 16.3947 40.9019C16.3265 41.0933 16.2218 41.2621 16.0805 41.4082C15.9442 41.5492 15.7713 41.6676 15.5618 41.7633L16.6869 43.9471V44H15.4815L14.5098 42.0505ZM13.6916 41.1588H14.5902C14.7558 41.1588 14.897 41.1261 15.0139 41.0606C15.1357 40.9951 15.2282 40.9019 15.2915 40.781C15.3548 40.655 15.3865 40.5089 15.3865 40.3427C15.3865 40.0858 15.3159 39.8868 15.1746 39.7458C15.0334 39.5997 14.8288 39.5266 14.561 39.5266H13.6916V41.1588Z" fill="white"/>
<path d="M18.8226 38.6274H19.8819L21.8033 44H20.6052L20.2691 42.9194H18.45L18.114 44H16.9159L18.8226 38.6274ZM19.9988 42.0202L19.3559 39.9724L18.713 42.0202H19.9988Z" fill="white"/>
<path d="M26.5 44H25.3896L23.3586 40.4485V44H22.2482V38.6274H23.3586L25.3896 42.1789V38.6274H26.5V44Z" fill="white"/>
</svg>
