<svg width="264" height="100" viewBox="0 0 264 100" fill="none" xmlns="http://www.w3.org/2000/svg">
<path d="M9.74594 20C9.55927 18.9333 9.55927 17.86 9.74594 16.78H9.96594C11.2859 16.78 12.2993 16.7667 13.0059 16.74C13.7259 16.7133 14.2393 16.68 14.5459 16.64C14.8659 16.6 15.1193 16.54 15.3059 16.46L15.3659 16.44C15.6326 16.3333 15.7993 16.18 15.8659 15.98C15.9459 15.78 15.9259 15.4533 15.8059 15L15.0459 12.22L17.8059 11.4L18.5659 14.18C18.8859 15.3533 18.8659 16.4133 18.5059 17.36C18.1459 18.2933 17.4859 18.9733 16.5259 19.4C16.4726 19.4267 16.4326 19.44 16.4059 19.44C16.0059 19.6 15.5726 19.7267 15.1059 19.82C14.6393 19.9 14.0326 19.9533 13.2859 19.98C12.5393 19.9933 11.4326 20 9.96594 20H9.74594ZM9.94594 20C8.4526 20 7.31927 19.9867 6.54594 19.96C5.78594 19.9333 5.1726 19.88 4.70594 19.8C4.23927 19.72 3.80594 19.5933 3.40594 19.42L3.36594 19.4C2.41927 18.9867 1.75927 18.3267 1.38594 17.42C1.02594 16.5 0.992604 15.48 1.28594 14.36L2.04594 11.42L4.80594 12.24L4.02594 15.32C3.94594 15.6667 3.9326 15.9133 3.98594 16.06C4.0526 16.2067 4.22594 16.34 4.50594 16.46L4.52594 16.48C4.7126 16.56 4.95927 16.62 5.26594 16.66C5.58594 16.7 6.10594 16.7333 6.82594 16.76C7.54594 16.7733 8.58594 16.78 9.94594 16.78L10.0859 18.4L9.94594 20ZM12.5259 12.38H9.66594V9.86H12.5259V12.38ZM10.2059 9.86V12.38H7.32594V9.86H10.2059ZM25.433 20C24.433 20 23.6396 19.8467 23.053 19.54C22.4663 19.22 22.0263 18.72 21.733 18.04C21.453 17.36 21.2863 16.44 21.233 15.28L20.873 6.08L23.753 5.92L24.113 15.28V15.46C24.1396 15.9267 24.1796 16.24 24.233 16.4C24.2863 16.56 24.3863 16.6667 24.533 16.72C24.693 16.76 24.993 16.78 25.433 16.78H25.633L25.813 18.4L25.633 20H25.433ZM39.8352 19.74C39.0618 19.8867 38.3218 19.8267 37.6152 19.56C36.9218 19.2933 36.3352 18.8667 35.8552 18.28C35.3752 17.6933 35.0552 17.0067 34.8952 16.22C34.7485 15.4067 34.8018 14.6267 35.0552 13.88C35.3085 13.1333 35.7218 12.5067 36.2952 12C36.8818 11.48 37.5552 11.1467 38.3152 11C38.7285 10.9333 39.2618 10.9467 39.9152 11.04C40.5685 11.12 41.2352 11.2533 41.9152 11.44L41.1552 14.54C40.7152 14.4333 40.2952 14.34 39.8952 14.26C39.4952 14.18 39.1952 14.14 38.9952 14.14C38.5685 14.1667 38.2285 14.32 37.9752 14.6C37.7218 14.8667 37.6285 15.18 37.6952 15.54C37.7485 15.8867 37.9352 16.1667 38.2552 16.38C38.5752 16.58 38.9285 16.6467 39.3152 16.58L42.7352 15.94L43.2552 19.08L39.8352 19.74ZM25.4352 16.78H33.6352C36.8618 16.74 38.7552 16.6667 39.3152 16.56L39.8352 19.74C39.1685 19.8733 37.1152 19.96 33.6752 20H25.4352V16.78ZM56.5056 20C55.7056 20 55.0323 19.8533 54.4856 19.56C53.939 19.2533 53.519 18.7467 53.2256 18.04C52.9323 17.3333 52.779 16.3733 52.7656 15.16H55.3256L55.3656 15.68C55.3923 16.12 55.4923 16.4133 55.6656 16.56C55.839 16.7067 56.119 16.78 56.5056 16.78H56.9056L57.0856 18.4L56.9056 20H56.5056ZM50.9256 16.78H51.3856C51.8523 16.78 52.159 16.7133 52.3056 16.58C52.4656 16.4467 52.5323 16.2467 52.5056 15.98L52.1256 6.08L55.0056 5.92L55.3856 15.84C55.4123 16.6267 55.2656 17.3333 54.9456 17.96C54.639 18.5867 54.179 19.0867 53.5656 19.46C52.9523 19.82 52.2256 20 51.3856 20H50.9256V16.78ZM45.2656 7.3L48.0656 6.74L49.7456 15.34L46.9456 15.92L45.2656 7.3ZM46.3656 16.78H51.1256L51.3056 18.4L51.1256 20H46.3656V16.78ZM56.7047 16.78H66.5447L67.1047 16.02L66.7047 6.08L69.5647 5.92L69.8647 13.44L69.4047 13.06L69.6847 12.7C70.0314 12.3133 70.3647 12 70.6847 11.76C71.0047 11.52 71.3514 11.34 71.7247 11.22C72.1114 11.1 72.5247 11.04 72.9647 11.04C73.7514 11.04 74.4714 11.2467 75.1247 11.66C75.7914 12.0733 76.3114 12.6333 76.6847 13.34C77.058 14.0333 77.2447 14.8133 77.2447 15.68C77.2447 16.44 77.0514 17.1533 76.6647 17.82C76.278 18.4867 75.7514 19.02 75.0847 19.42C74.4314 19.8067 73.7247 20 72.9647 20H56.7047V16.78ZM73.0447 16.78C73.3114 16.78 73.5447 16.7267 73.7447 16.62C73.9447 16.5133 74.098 16.3667 74.2047 16.18C74.3114 15.98 74.3647 15.76 74.3647 15.52C74.3647 15.1733 74.2447 14.88 74.0047 14.64C73.7647 14.3867 73.4447 14.26 73.0447 14.26C72.858 14.26 72.6714 14.3 72.4847 14.38C72.3114 14.46 72.118 14.5933 71.9047 14.78C71.6914 14.9667 71.418 15.2333 71.0847 15.58L69.8847 16.78H73.0447ZM79.69 6.08L82.55 5.92L83.09 19.96L80.23 20.1L79.69 6.08ZM93.9783 18.52C93.4449 18.5867 92.8983 18.5067 92.3383 18.28C91.7916 18.0533 91.3049 17.7133 90.8783 17.26C90.4516 16.7933 90.1383 16.28 89.9383 15.72C89.7116 15.04 89.6716 14.34 89.8183 13.62C89.9649 12.9 90.2716 12.26 90.7383 11.7C91.2049 11.14 91.7716 10.7533 92.4383 10.54L95.8583 9.4L96.7383 12.26L93.3383 13.44C93.0583 13.5467 92.8583 13.7067 92.7383 13.92C92.6183 14.12 92.5849 14.34 92.6383 14.58C92.6783 14.8067 92.8049 15 93.0183 15.16C93.2316 15.3067 93.4649 15.36 93.7183 15.32L96.2783 14.9L96.7583 18.08L93.9783 18.52ZM99.4983 20C98.6583 20 97.8849 19.7867 97.1783 19.36C96.4849 18.9333 95.9316 18.36 95.5183 17.64C95.1183 16.9067 94.9183 16.1133 94.9183 15.26V9.08H97.7783V15.26C97.7783 15.5267 97.8516 15.78 97.9983 16.02C98.1583 16.26 98.3649 16.4467 98.6183 16.58C98.8716 16.7133 99.1649 16.78 99.4983 16.78H99.8783L100.058 18.4L99.8783 20H99.4983ZM119.213 20C118.013 20 117.087 19.5933 116.433 18.78C115.793 17.9667 115.473 16.8933 115.473 15.56H117.353C117.353 15.9067 117.52 16.2 117.853 16.44C118.2 16.6667 118.653 16.78 119.213 16.78L119.393 18.4L119.213 20ZM99.6734 16.78H107.893C108.187 16.78 108.453 16.72 108.693 16.6C108.933 16.48 109.113 16.3133 109.233 16.1L110.773 13.12C111.08 12.5333 111.507 12.0733 112.053 11.74C112.613 11.3933 113.22 11.2067 113.873 11.18C114.527 11.1533 115.147 11.3 115.733 11.62C116.493 12.0333 117.027 12.58 117.333 13.26C117.64 13.94 117.747 14.7133 117.653 15.58C117.573 16.4467 117.307 17.3667 116.853 18.34C116.627 18.86 116.3 19.2733 115.873 19.58C115.46 19.8867 115 20.06 114.493 20.1C113.987 20.14 113.487 20.0333 112.993 19.78L109.893 18.18L111.293 15.32L114.713 17.02C114.7 17.0733 114.7 17.1 114.713 17.1C114.74 17.1 114.727 17.0933 114.673 17.08L114.973 16.42C115.187 15.94 115.253 15.5133 115.173 15.14C115.093 14.7667 114.893 14.5 114.573 14.34C114.267 14.1933 113.953 14.18 113.633 14.3C113.327 14.42 113.087 14.6533 112.913 15L111.693 17.44C111.293 18.2667 110.767 18.9 110.113 19.34C109.473 19.78 108.733 20 107.893 20H99.6734V16.78ZM129.834 18.12C129.154 17.8133 128.607 17.36 128.194 16.76C127.781 16.1467 127.541 15.4667 127.474 14.72C127.421 13.9733 127.561 13.26 127.894 12.58C128.227 11.8867 128.674 11.34 129.234 10.94C129.807 10.5267 130.441 10.2867 131.134 10.22C131.827 10.14 132.514 10.2533 133.194 10.56C133.861 10.8667 134.401 11.34 134.814 11.98C135.227 12.6067 135.467 13.3067 135.534 14.08C135.601 14.84 135.474 15.5667 135.154 16.26C134.634 17.4067 133.734 18.32 132.454 19C131.187 19.6667 129.734 20 128.094 20H118.814V16.78H128.094C129.254 16.78 130.121 16.7 130.694 16.54C131.281 16.3667 131.727 16.1133 132.034 15.78C132.221 15.58 132.401 15.3 132.574 14.94C132.694 14.6733 132.701 14.4 132.594 14.12C132.501 13.84 132.327 13.6267 132.074 13.48C131.874 13.3733 131.674 13.3267 131.474 13.34C131.287 13.34 131.114 13.3867 130.954 13.48C130.807 13.5733 130.694 13.6933 130.614 13.84C130.467 14.12 130.434 14.3933 130.514 14.66C130.594 14.9133 130.787 15.1133 131.094 15.26L135.314 17.4C135.581 17.52 135.847 17.5467 136.114 17.48C136.394 17.4 136.601 17.2267 136.734 16.96C136.841 16.72 136.847 16.4733 136.754 16.22C136.674 15.9533 136.481 15.74 136.174 15.58L129.054 11.92L130.374 9.06L137.434 12.78C138.061 13.1 138.567 13.5667 138.954 14.18C139.341 14.78 139.561 15.44 139.614 16.16C139.681 16.88 139.561 17.56 139.254 18.2C138.934 18.8667 138.494 19.4 137.934 19.8C137.387 20.1867 136.781 20.4133 136.114 20.48C135.461 20.5467 134.807 20.4333 134.154 20.14L129.834 18.12ZM146.631 17.58C146.631 17.34 146.664 17.12 146.731 16.92C146.811 16.7067 146.964 16.4 147.191 16C147.431 15.5867 147.851 14.9333 148.451 14.04L149.731 14.9L149.591 15.12C149.111 15.76 148.784 16.2267 148.611 16.52C148.438 16.8133 148.351 17.0733 148.351 17.3V18.22L146.631 18.26V17.58ZM148.411 20.02C147.904 20.02 147.478 19.8467 147.131 19.5C146.798 19.1533 146.631 18.74 146.631 18.26C146.631 17.78 146.798 17.3733 147.131 17.04C147.478 16.6933 147.904 16.52 148.411 16.52C148.891 16.52 149.298 16.6933 149.631 17.04C149.978 17.3733 150.151 17.78 150.151 18.26C150.151 18.74 149.978 19.1533 149.631 19.5C149.298 19.8467 148.891 20.02 148.411 20.02ZM161.582 20C161.395 18.9333 161.395 17.86 161.582 16.78H161.802C163.122 16.78 164.135 16.7667 164.842 16.74C165.562 16.7133 166.075 16.68 166.382 16.64C166.702 16.6 166.955 16.54 167.142 16.46L167.202 16.44C167.469 16.3333 167.635 16.18 167.702 15.98C167.782 15.78 167.762 15.4533 167.642 15L166.882 12.22L169.642 11.4L170.402 14.18C170.722 15.3533 170.702 16.4133 170.342 17.36C169.982 18.2933 169.322 18.9733 168.362 19.4C168.309 19.4267 168.269 19.44 168.242 19.44C167.842 19.6 167.409 19.7267 166.942 19.82C166.475 19.9 165.869 19.9533 165.122 19.98C164.375 19.9933 163.269 20 161.802 20H161.582ZM161.782 20C160.289 20 159.155 19.9867 158.382 19.96C157.622 19.9333 157.009 19.88 156.542 19.8C156.075 19.72 155.642 19.5933 155.242 19.42L155.202 19.4C154.255 18.9867 153.595 18.3267 153.222 17.42C152.862 16.5 152.829 15.48 153.122 14.36L153.882 11.42L156.642 12.24L155.862 15.32C155.782 15.6667 155.769 15.9133 155.822 16.06C155.889 16.2067 156.062 16.34 156.342 16.46L156.362 16.48C156.549 16.56 156.795 16.62 157.102 16.66C157.422 16.7 157.942 16.7333 158.662 16.76C159.382 16.7733 160.422 16.78 161.782 16.78L161.922 18.4L161.782 20ZM160.362 21.56H163.202V24.4H160.362V21.56ZM177.269 20C176.269 20 175.476 19.8467 174.889 19.54C174.302 19.22 173.862 18.72 173.569 18.04C173.289 17.36 173.122 16.44 173.069 15.28L172.709 6.08L175.589 5.92L175.949 15.28V15.46C175.976 15.9267 176.016 16.24 176.069 16.4C176.122 16.56 176.222 16.6667 176.369 16.72C176.529 16.76 176.829 16.78 177.269 16.78H177.469L177.649 18.4L177.469 20H177.269ZM195.811 20C195.091 20 194.438 19.8 193.851 19.4C193.264 19 192.804 18.4867 192.471 17.86C192.138 17.2333 191.971 16.6067 191.971 15.98L194.571 15.94C194.584 16.1667 194.671 16.3533 194.831 16.5C195.004 16.6467 195.264 16.72 195.611 16.72C195.944 16.72 196.204 16.6933 196.391 16.64C196.578 16.5867 196.698 16.5067 196.751 16.4C196.818 16.2933 196.824 16.16 196.771 16L196.111 13.54L198.691 12.78L199.351 15.24C199.578 16.0667 199.558 16.8467 199.291 17.58C199.038 18.3133 198.598 18.9 197.971 19.34C197.344 19.78 196.624 20 195.811 20ZM177.271 16.78H185.911C186.378 16.78 186.678 16.7133 186.811 16.58C186.958 16.4467 187.031 16.2333 187.031 15.94V13.46H189.711V15.94C189.711 16.5933 189.551 17.2333 189.231 17.86C188.911 18.4867 188.458 19 187.871 19.4C187.298 19.8 186.644 20 185.911 20H177.271V16.78ZM190.751 20C190.058 20 189.431 19.8067 188.871 19.42C188.324 19.0333 187.898 18.5267 187.591 17.9C187.298 17.2733 187.144 16.6333 187.131 15.98L189.711 15.94C189.738 16.2067 189.824 16.4133 189.971 16.56C190.118 16.7067 190.378 16.78 190.751 16.78C191.218 16.78 191.518 16.7133 191.651 16.58C191.798 16.4467 191.871 16.2333 191.871 15.94V13.46H194.571V15.94C194.571 16.62 194.424 17.2733 194.131 17.9C193.838 18.5133 193.398 19.02 192.811 19.42C192.238 19.8067 191.551 20 190.751 20ZM201.251 20C200.158 20 199.231 19.66 198.471 18.98C197.724 18.3 197.211 17.38 196.931 16.22L199.351 15.24C199.458 15.72 199.678 16.1 200.011 16.38C200.358 16.6467 200.771 16.78 201.251 16.78L201.431 18.4L201.251 20ZM201.06 16.78H209.54H209.86C210.953 16.78 211.927 16.7533 212.78 16.7C213.647 16.6333 214.46 16.5 215.22 16.3L219.74 15.24L219.66 16.02L215.7 14.1C215.407 13.9533 215.1 13.88 214.78 13.88C214.473 13.88 214.187 13.96 213.92 14.12C213.653 14.2667 213.44 14.4867 213.28 14.78L212.94 15.4L210.44 13.82L210.84 13.12C211.28 12.32 211.84 11.7067 212.52 11.28C213.213 10.8533 213.953 10.64 214.74 10.64C215.54 10.6267 216.32 10.84 217.08 11.28L222.12 14.16L221.72 17.86L215.92 19.4C215 19.64 214.033 19.8 213.02 19.88C212.02 19.96 210.967 20 209.86 20H209.52H201.06V16.78ZM237.112 16.78H241.572C241.798 16.78 241.958 16.74 242.052 16.66C242.158 16.58 242.212 16.4733 242.212 16.34C242.225 16.1933 242.178 16.0467 242.072 15.9L237.672 9.68L238.332 7.24L245.552 4.58L246.572 7.6L240.652 9.76L240.872 8.96L244.232 13.96C244.805 14.8267 245.112 15.6867 245.152 16.54C245.205 17.38 245.005 18.0933 244.552 18.68C244.245 19.0933 243.838 19.42 243.332 19.66C242.825 19.8867 242.232 20 241.552 20H237.112V16.78ZM237.212 20C235.718 20 234.585 19.9867 233.812 19.96C233.052 19.9333 232.438 19.88 231.972 19.8C231.505 19.72 231.072 19.5933 230.672 19.42L230.632 19.4C229.685 18.9867 229.025 18.3267 228.652 17.42C228.292 16.5 228.258 15.48 228.552 14.36L229.312 11.42L232.072 12.24L231.292 15.32C231.212 15.6667 231.198 15.9133 231.252 16.06C231.318 16.2067 231.492 16.34 231.772 16.46L231.792 16.48C231.978 16.56 232.225 16.62 232.532 16.66C232.852 16.7 233.372 16.7333 234.092 16.76C234.812 16.7733 235.852 16.78 237.212 16.78L237.352 18.4L237.212 20ZM247.352 20C246.272 20 245.325 19.6333 244.512 18.9C243.712 18.1533 242.972 17.0867 242.292 15.7L244.452 14.32C244.838 15 245.178 15.5133 245.472 15.86C245.765 16.2067 246.052 16.4467 246.332 16.58C246.625 16.7133 246.965 16.78 247.352 16.78H247.632L247.812 18.4L247.632 20H247.352ZM247.427 16.78H258.527C258.981 16.78 259.321 16.7333 259.547 16.64C259.787 16.5467 259.934 16.3867 259.987 16.16C260.041 15.9333 260.014 15.6133 259.907 15.2L259.127 12.22L261.887 11.4L262.707 14.54C262.987 15.58 262.987 16.5133 262.707 17.34C262.427 18.1667 261.914 18.82 261.167 19.3C260.434 19.7667 259.554 20 258.527 20H247.427V16.78ZM260.227 24.22H257.367V21.7H260.227V24.22ZM257.907 21.7V24.22H255.027V21.7H257.907Z" fill="white"/>
<path d="M255 54H9C4.58172 54 1 57.5817 1 62V92C1 96.4183 4.58172 100 9 100H235.611C238.747 100 241.758 98.7722 244.001 96.5795L260.593 80.3535C262.132 78.8484 263 76.7865 263 74.6338V62C263 57.5817 259.418 54 255 54Z" fill="white" fill-opacity="0.3"/>
<path d="M201.828 74.8966C194.655 74.8966 187.483 86.5517 183 87.4483H235V62.3448C223.345 62.3448 229.621 79.3793 216.172 82.069C209.956 83.3123 209 74.8966 201.828 74.8966Z" fill="url(#paint0_linear_11285_5071)"/>
<path d="M183 87.4483C187.483 86.5517 194.655 74.8966 201.828 74.8966C209 74.8966 209.956 83.3123 216.172 82.069C229.621 79.3793 223.345 62.3448 235 62.3448" stroke="white" stroke-width="2"/>
<path opacity="0.6" d="M58.564 77.997C58.564 78.439 58.4557 78.8507 58.239 79.232C58.0223 79.6133 57.7277 79.9167 57.355 80.142C56.991 80.3587 56.5967 80.467 56.172 80.467C55.7387 80.467 55.34 80.3587 54.976 80.142C54.612 79.9167 54.3217 79.6133 54.105 79.232C53.8883 78.8507 53.78 78.439 53.78 77.997C53.78 77.555 53.8883 77.1433 54.105 76.762C54.3217 76.3807 54.612 76.0773 54.976 75.852C55.34 75.6267 55.7387 75.514 56.172 75.514C56.5967 75.514 56.991 75.6267 57.355 75.852C57.7277 76.0773 58.0223 76.3807 58.239 76.762C58.4557 77.1433 58.564 77.555 58.564 77.997ZM57.225 77.997C57.225 77.7283 57.121 77.4987 56.913 77.308C56.705 77.1173 56.458 77.022 56.172 77.022C55.9813 77.022 55.8037 77.0653 55.639 77.152C55.483 77.2387 55.3573 77.36 55.262 77.516C55.1667 77.6633 55.119 77.8237 55.119 77.997C55.119 78.179 55.1667 78.3437 55.262 78.491C55.3573 78.6383 55.483 78.7553 55.639 78.842C55.8037 78.9287 55.9813 78.972 56.172 78.972C56.458 78.972 56.705 78.881 56.913 78.699C57.121 78.5083 57.225 78.2743 57.225 77.997ZM64.8155 77.516H62.7615C62.2935 77.516 61.8601 77.4033 61.4615 77.178C61.0715 76.944 60.7595 76.6277 60.5255 76.229C60.3001 75.8303 60.1875 75.3927 60.1875 74.916C60.1875 74.4393 60.3001 73.9973 60.5255 73.59C60.7595 73.1827 61.0715 72.862 61.4615 72.628C61.8601 72.3853 62.2935 72.264 62.7615 72.264C63.2121 72.264 63.6238 72.3767 63.9965 72.602C64.3691 72.8273 64.6725 73.135 64.9065 73.525C65.1491 73.9063 65.2965 74.3397 65.3485 74.825L65.9985 80.909L64.5815 81.065L63.9315 74.981C63.8968 74.643 63.7711 74.3657 63.5545 74.149C63.3378 73.9323 63.0735 73.824 62.7615 73.824C62.5535 73.824 62.3585 73.876 62.1765 73.98C61.9945 74.0753 61.8515 74.2053 61.7475 74.37C61.6521 74.5347 61.6045 74.7123 61.6045 74.903C61.6045 75.1023 61.6565 75.2843 61.7605 75.449C61.8645 75.605 62.0031 75.735 62.1765 75.839C62.3585 75.9343 62.5535 75.982 62.7615 75.982H64.8155V77.516ZM67.5934 72.563L69.0104 72.407L69.8424 80.922L68.4254 81.078L67.5934 72.563ZM77.0306 72.355L77.2516 74.539C77.2949 74.955 77.2169 75.3537 77.0176 75.735C76.8269 76.1077 76.5453 76.411 76.1726 76.645C75.8086 76.8703 75.4099 76.983 74.9766 76.983H74.6126C74.2313 76.983 73.8543 76.8833 73.4816 76.684C73.1176 76.476 72.8143 76.1987 72.5716 75.852C72.3289 75.5053 72.1859 75.124 72.1426 74.708L73.5336 74.539C73.5683 74.8337 73.6549 75.0503 73.7936 75.189C73.9323 75.319 74.1316 75.384 74.3916 75.384H74.9766C75.1586 75.384 75.3146 75.358 75.4446 75.306C75.5746 75.2453 75.6743 75.1587 75.7436 75.046C75.8129 74.9333 75.8433 74.812 75.8346 74.682L75.6136 72.524L77.0306 72.355ZM72.7406 81.039L71.9086 72.511L73.3256 72.355L74.1576 80.883L72.7406 81.039ZM80.9823 76.827L80.0463 78.127L78.8893 77.295L79.8253 75.995L78.3043 75.501L78.7463 74.149L80.2803 74.643V73.031H81.6973V74.643L83.2183 74.149L83.6603 75.501L82.1393 75.995L83.0883 77.295L81.9313 78.127L80.9823 76.827ZM87.6346 76.827L86.6986 78.127L85.5416 77.295L86.4776 75.995L84.9566 75.501L85.3986 74.149L86.9326 74.643V73.031H88.3496V74.643L89.8706 74.149L90.3126 75.501L88.7916 75.995L89.7406 77.295L88.5836 78.127L87.6346 76.827ZM94.287 76.827L93.351 78.127L92.194 77.295L93.13 75.995L91.609 75.501L92.051 74.149L93.585 74.643V73.031H95.002V74.643L96.523 74.149L96.965 75.501L95.444 75.995L96.393 77.295L95.236 78.127L94.287 76.827ZM100.939 76.827L100.003 78.127L98.8463 77.295L99.7823 75.995L98.2613 75.501L98.7033 74.149L100.237 74.643V73.031H101.654V74.643L103.175 74.149L103.617 75.501L102.096 75.995L103.045 77.295L101.888 78.127L100.939 76.827ZM107.592 76.827L106.656 78.127L105.499 77.295L106.435 75.995L104.914 75.501L105.356 74.149L106.89 74.643V73.031H108.307V74.643L109.828 74.149L110.27 75.501L108.749 75.995L109.698 77.295L108.541 78.127L107.592 76.827ZM114.244 76.827L113.308 78.127L112.151 77.295L113.087 75.995L111.566 75.501L112.008 74.149L113.542 74.643V73.031H114.959V74.643L116.48 74.149L116.922 75.501L115.401 75.995L116.35 77.295L115.193 78.127L114.244 76.827ZM120.896 76.827L119.96 78.127L118.803 77.295L119.739 75.995L118.218 75.501L118.66 74.149L120.194 74.643V73.031H121.611V74.643L123.132 74.149L123.574 75.501L122.053 75.995L123.002 77.295L121.845 78.127L120.896 76.827Z" fill="white"/>
<rect x="9" y="62" width="36" height="29" rx="6" fill="#FADFBD" fill-opacity="0.8"/>
<path d="M20.8421 91L26.6842 85.7865M26.6842 85.7865L32.6842 91M26.6842 85.7865V81.8764M26.6842 81.8764H31.7368M26.6842 81.8764H22.2632M45 81.8764H31.7368M9 81.8764H22.2632M31.7368 81.8764V71.6124H45M22.2632 81.8764V71.6124M22.2632 71.6124H9M22.2632 71.6124H27.1579V62" stroke="#003AAF"/>
<defs>
<linearGradient id="paint0_linear_11285_5071" x1="209" y1="62.3448" x2="209" y2="87.4483" gradientUnits="userSpaceOnUse">
<stop stop-color="white" stop-opacity="0.4"/>
<stop offset="1" stop-color="white" stop-opacity="0"/>
</linearGradient>
</defs>
</svg>
