<svg width="558" height="184" viewBox="0 0 558 184" fill="none" xmlns="http://www.w3.org/2000/svg">
<path opacity="0.1" fill-rule="evenodd" clip-rule="evenodd" d="M4 120.808C4 120.808 25.6491 116.262 50.2629 127.184C97.0768 147.955 99.7474 109.917 117.106 91.5765C132.988 74.7965 146.141 85.0346 163.824 105.555C176.866 120.69 195.873 146.095 215.557 142.006C233.55 138.267 246.306 108.47 271.246 100.892C291.013 94.886 307.077 111.386 329.839 105.555C360.717 97.6453 374.509 51.0793 396.578 51.0793C423.815 51.0793 442.992 11.6953 467.771 11.6953C492.402 11.6953 495.746 34.854 522.691 51.0793C543.29 63.4836 553.202 51.0793 553.202 51.0793V184H4V120.808Z" fill="url(#paint0_linear_9366_20224)"/>
<path d="M4 111.628C4 111.628 25.6491 107.147 50.2629 117.91C97.0768 138.381 99.7474 100.894 117.106 82.8187C132.988 66.2816 146.141 76.3715 163.824 96.5951C176.866 111.511 195.873 136.549 215.557 132.518C233.55 128.833 246.306 99.4675 271.246 91.9993C291.013 86.0803 307.077 102.341 329.839 96.5951C360.717 88.7997 374.509 42.9077 396.578 42.9077C423.815 42.9077 442.992 4 467.771 4C492.402 4 493.712 26.9173 520.657 42.9077C541.256 55.1325 553.202 42.9077 553.202 42.9077" stroke="#003AAF" stroke-width="8" stroke-linecap="round" stroke-linejoin="round"/>
<defs>
<linearGradient id="paint0_linear_9366_20224" x1="103.255" y1="99.1239" x2="103.255" y2="184" gradientUnits="userSpaceOnUse">
<stop stop-color="#003DB3"/>
<stop offset="1" stop-color="white" stop-opacity="0.01"/>
</linearGradient>
</defs>
</svg>
