<svg width="406" height="703" viewBox="0 0 406 703" fill="none" xmlns="http://www.w3.org/2000/svg">
<g filter="url(#filter0_d_9366_22345)">
<rect x="12" y="8" width="382" height="679" rx="64" fill="white"/>
<rect x="14" y="10" width="378" height="675" rx="62" stroke="#F8F8F8" stroke-width="4"/>
<path d="M94.7281 98.928L98.3281 96.528L110.376 102.768C110.568 102.928 110.776 102.976 111 102.912C111.256 102.848 111.4 102.704 111.432 102.48C112.008 101.328 112.376 100.256 112.536 99.264C112.728 98.272 112.68 97.392 112.392 96.624C112.136 95.824 111.624 95.216 110.856 94.8C110.024 94.32 109.176 94.272 108.312 94.656C107.448 95.04 106.744 95.792 106.2 96.912L103.512 102.096L99.0961 99.504L102.408 93.024C103.08 91.744 103.976 90.736 105.096 90C106.248 89.264 107.496 88.864 108.84 88.8C110.184 88.736 111.496 89.04 112.776 89.712C114.28 90.512 115.432 91.744 116.232 93.408C117.032 95.072 117.368 96.928 117.24 98.976C117.144 101.024 116.6 102.992 115.608 104.88C114.808 106.384 113.64 107.408 112.104 107.952C110.6 108.496 109.08 108.368 107.544 107.568L99.9601 103.68L100.872 122.208L95.6401 122.4L94.7281 98.928ZM132.855 108C130.615 108 128.839 107.664 127.527 106.992C126.247 106.32 125.303 105.232 124.695 103.728C124.087 102.224 123.719 100.176 123.591 97.584L122.727 75.504L128.007 75.216L128.871 97.584V98.112C128.967 99.392 129.111 100.288 129.303 100.8C129.495 101.312 129.831 101.664 130.311 101.856C130.823 102.016 131.671 102.096 132.855 102.096H133.335L133.671 105.072L133.335 108H132.855ZM132.869 102.096H135.893C137.269 102.096 138.213 101.888 138.725 101.472C139.269 101.024 139.493 100.336 139.397 99.408L138.869 93.504L144.149 92.976L144.677 98.88C144.837 100.672 144.565 102.256 143.861 103.632C143.189 105.008 142.165 106.08 140.789 106.848C139.445 107.616 137.813 108 135.893 108H132.869V102.096ZM148.181 108C145.525 108 143.445 107.28 141.941 105.84C140.469 104.368 139.621 102.224 139.397 99.408L144.677 98.88C144.741 99.744 144.885 100.4 145.109 100.848C145.333 101.296 145.669 101.616 146.117 101.808C146.597 102 147.285 102.096 148.181 102.096L148.517 105.072L148.181 108ZM136.565 82.416H142.373V88.224H136.565V82.416ZM147.682 102.096H154.882C156.066 102.096 157.01 101.952 157.714 101.664C158.418 101.376 158.882 100.88 159.106 100.176C159.362 99.44 159.33 98.432 159.01 97.152L157.138 90L162.178 88.512L164.146 95.952C164.786 98.352 164.77 100.464 164.098 102.288C163.458 104.112 162.306 105.52 160.642 106.512C159.01 107.504 157.09 108 154.882 108H147.682V102.096ZM159.778 117.6H154.642V112.416H159.778V117.6ZM150.418 112.416V117.6H145.234V112.416H150.418ZM178.375 108C176.711 108 175.255 107.728 174.007 107.184C172.791 106.64 171.831 105.904 171.127 104.976C170.423 104.048 170.039 102.992 169.975 101.808C169.879 100.816 169.831 99.792 169.831 98.736H174.727C174.727 99.472 174.759 100.16 174.823 100.8C174.919 101.312 175.175 101.664 175.591 101.856C176.007 102.016 176.631 102.096 177.463 102.096H182.215C183.751 102.096 184.759 101.808 185.239 101.232C185.719 100.656 185.799 99.888 185.479 98.928C184.935 97.328 183.959 95.344 182.551 92.976C181.175 90.576 179.671 88.208 178.039 85.872L182.311 82.416C184.231 85.04 185.975 87.728 187.543 90.48C189.111 93.232 190.135 95.6 190.615 97.584C191.063 99.472 191.015 101.216 190.471 102.816C189.959 104.384 188.935 105.648 187.399 106.608C185.863 107.536 183.895 108 181.495 108H178.375ZM216.354 104.448C215.17 104.608 213.954 104.448 212.706 103.968C211.49 103.456 210.402 102.704 209.442 101.712C208.514 100.688 207.842 99.568 207.426 98.352C206.946 96.848 206.866 95.312 207.186 93.744C207.506 92.176 208.178 90.8 209.202 89.616C210.226 88.4 211.458 87.552 212.898 87.072L221.154 84.336L222.786 89.568L214.578 92.4C213.682 92.72 213.042 93.248 212.658 93.984C212.274 94.688 212.178 95.44 212.37 96.24C212.53 96.976 212.962 97.584 213.666 98.064C214.37 98.544 215.106 98.72 215.874 98.592L222.066 97.584L222.93 103.392L216.354 104.448ZM229.602 108C227.746 108 226.034 107.536 224.466 106.608C222.898 105.648 221.666 104.368 220.77 102.768C219.874 101.168 219.426 99.424 219.426 97.536V83.088H224.658V97.536C224.658 98.336 224.882 99.104 225.33 99.84C225.778 100.544 226.37 101.104 227.106 101.52C227.842 101.904 228.674 102.096 229.602 102.096H230.514L230.85 105.072L230.514 108H229.602ZM257.545 108C254.857 108 252.777 107.12 251.305 105.36C249.833 103.568 249.097 101.2 249.097 98.256H252.601C252.601 99.376 253.049 100.304 253.945 101.04C254.841 101.744 256.041 102.096 257.545 102.096L257.881 105.072L257.545 108ZM230.041 102.096H230.569C231.433 102.096 232.217 101.904 232.921 101.52C233.625 101.136 234.169 100.608 234.553 99.936L238.201 92.88C238.841 91.632 239.753 90.64 240.937 89.904C242.153 89.168 243.465 88.768 244.873 88.704C246.281 88.64 247.609 88.96 248.857 89.664C250.521 90.528 251.689 91.728 252.361 93.264C253.065 94.768 253.321 96.496 253.129 98.448C252.937 100.368 252.345 102.416 251.353 104.592C250.873 105.648 250.185 106.496 249.289 107.136C248.425 107.776 247.449 108.144 246.361 108.24C245.273 108.336 244.217 108.112 243.193 107.568L235.753 103.728L238.297 98.496L246.313 102.528C246.505 102.72 246.729 102.784 246.985 102.72C247.241 102.624 247.369 102.48 247.369 102.288L247.897 101.04C248.537 99.6 248.745 98.288 248.521 97.104C248.297 95.92 247.705 95.088 246.745 94.608C245.881 94.192 245.001 94.144 244.105 94.464C243.241 94.752 242.569 95.376 242.089 96.336L239.065 102.384C238.169 104.176 236.985 105.568 235.513 106.56C234.073 107.52 232.425 108 230.569 108H230.041V102.096ZM281.818 108C280.186 108 278.714 107.568 277.402 106.704C276.122 105.84 275.13 104.736 274.426 103.392C273.722 102.016 273.37 100.64 273.37 99.264L278.17 99.168C278.202 99.968 278.49 100.64 279.034 101.184C279.578 101.728 280.394 102 281.482 102C282.506 102 283.306 101.872 283.882 101.616C284.458 101.36 284.826 101.024 284.986 100.608C285.178 100.16 285.194 99.664 285.034 99.12L283.45 93.216L288.202 91.824L289.786 97.728C290.266 99.488 290.234 101.152 289.69 102.72C289.146 104.288 288.17 105.568 286.762 106.56C285.386 107.52 283.738 108 281.818 108ZM256.666 102.096H257.962C259.402 102.096 260.346 101.84 260.794 101.328C261.274 100.784 261.514 100.064 261.514 99.168V93.216H266.41V99.168C266.41 100.576 266.074 101.952 265.402 103.296C264.762 104.64 263.802 105.76 262.522 106.656C261.242 107.552 259.722 108 257.962 108H256.666V102.096ZM269.722 108C268.122 108 266.714 107.584 265.498 106.752C264.282 105.888 263.338 104.784 262.666 103.44C262.026 102.096 261.706 100.704 261.706 99.264L266.41 99.168C266.474 100.032 266.746 100.736 267.226 101.28C267.738 101.824 268.57 102.096 269.722 102.096C271.13 102.096 272.058 101.84 272.506 101.328C272.986 100.784 273.226 100.064 273.226 99.168V93.216H278.17V99.168C278.17 100.608 277.866 102 277.258 103.344C276.65 104.688 275.706 105.808 274.426 106.704C273.146 107.568 271.578 108 269.722 108ZM295.114 108C292.682 108 290.602 107.232 288.874 105.696C287.146 104.128 285.962 102.064 285.322 99.504L289.786 97.728C290.074 99.04 290.698 100.096 291.658 100.896C292.65 101.696 293.802 102.096 295.114 102.096L295.45 105.072L295.114 108ZM294.635 102.096H301.835C303.019 102.096 303.963 101.952 304.667 101.664C305.371 101.376 305.835 100.88 306.059 100.176C306.315 99.44 306.283 98.432 305.963 97.152L304.091 90L309.131 88.512L311.099 95.952C311.739 98.352 311.723 100.464 311.051 102.288C310.411 104.112 309.259 105.52 307.595 106.512C305.963 107.504 304.043 108 301.835 108H294.635V102.096ZM310.955 84.144H305.819V78.96H310.955V84.144ZM301.595 78.96V84.144H296.411V78.96H301.595Z" fill="#222222"/>
<path d="M228.381 240.964C228.371 240.956 228.366 240.943 228.355 240.935L189.236 208.158C189.23 208.153 189.222 208.152 189.216 208.147C188.218 207.142 187.03 206.346 185.721 205.806C184.412 205.266 183.008 204.992 181.592 205C180.176 205.009 178.776 205.299 177.474 205.855C176.171 206.41 174.993 207.22 174.007 208.237C173.021 209.253 172.247 210.456 171.732 211.775C171.216 213.094 170.968 214.502 171.003 215.918C171.038 217.333 171.355 218.728 171.935 220.019C172.515 221.311 173.346 222.475 174.381 223.441L174.388 223.454L206.835 262.237L206.894 262.32C206.904 262.334 206.921 262.339 206.932 262.352C208.212 264.209 209.885 265.762 211.832 266.9C213.779 268.039 215.952 268.736 218.198 268.943C220.444 269.149 222.708 268.859 224.829 268.094C226.951 267.328 228.878 266.106 230.476 264.513C232.073 262.921 233.3 260.997 234.072 258.877C234.843 256.758 235.139 254.495 234.939 252.248C234.74 250.002 234.049 247.827 232.915 245.877C231.782 243.927 230.234 242.25 228.381 240.964ZM181.672 207.384C183.313 207.384 184.917 207.87 186.281 208.782C187.645 209.693 188.708 210.989 189.336 212.505C189.964 214.02 190.128 215.688 189.808 217.298C189.488 218.907 188.698 220.385 187.538 221.545C186.378 222.705 184.9 223.495 183.291 223.815C181.682 224.135 180.014 223.971 178.498 223.343C176.982 222.715 175.687 221.652 174.775 220.288C173.864 218.924 173.377 217.32 173.377 215.679C173.38 213.48 174.254 211.371 175.809 209.816C177.365 208.261 179.473 207.386 181.672 207.384ZM179.741 226.16C181.445 226.48 183.202 226.378 184.859 225.863C186.515 225.349 188.02 224.436 189.243 223.207C190.466 221.977 191.37 220.467 191.876 218.808C192.381 217.149 192.474 215.391 192.145 213.688L221.555 238.334C219.219 238.017 216.841 238.243 214.607 238.996C212.373 239.749 210.343 241.007 208.676 242.674C207.008 244.34 205.748 246.369 204.993 248.602C204.239 250.836 204.01 253.213 204.325 255.549L179.741 226.16ZM219.594 266.636C217.015 266.636 214.495 265.872 212.352 264.439C210.208 263.007 208.537 260.971 207.55 258.589C206.564 256.207 206.306 253.586 206.809 251.057C207.312 248.529 208.553 246.206 210.376 244.383C212.199 242.56 214.522 241.319 217.051 240.816C219.579 240.313 222.2 240.571 224.582 241.557C226.964 242.544 229 244.215 230.432 246.358C231.865 248.502 232.629 251.022 232.629 253.601C232.625 257.057 231.251 260.37 228.807 262.814C226.363 265.257 223.05 266.632 219.594 266.636Z" fill="#222222"/>
<path d="M181.672 221.604C182.844 221.604 183.99 221.257 184.964 220.606C185.939 219.955 186.698 219.029 187.146 217.947C187.595 216.864 187.712 215.673 187.484 214.523C187.255 213.374 186.691 212.318 185.862 211.489C185.033 210.661 183.978 210.096 182.828 209.868C181.679 209.639 180.488 209.757 179.405 210.205C178.322 210.653 177.397 211.413 176.746 212.387C176.095 213.362 175.747 214.507 175.747 215.679C175.749 217.25 176.374 218.756 177.485 219.867C178.595 220.978 180.101 221.603 181.672 221.604ZM181.672 212.124C182.375 212.124 183.063 212.333 183.647 212.723C184.232 213.114 184.688 213.669 184.957 214.319C185.226 214.968 185.296 215.683 185.159 216.373C185.022 217.062 184.683 217.696 184.186 218.193C183.689 218.69 183.056 219.029 182.366 219.166C181.676 219.303 180.961 219.233 180.312 218.964C179.662 218.695 179.107 218.239 178.716 217.654C178.326 217.07 178.117 216.382 178.117 215.679C178.118 214.737 178.493 213.833 179.16 213.166C179.826 212.5 180.73 212.125 181.672 212.124Z" fill="#222222"/>
<path d="M227.889 252.416H226.597C226.42 251.36 226.004 250.359 225.383 249.487L226.298 248.572C226.514 248.349 226.633 248.049 226.631 247.739C226.628 247.428 226.503 247.131 226.284 246.911C226.064 246.691 225.767 246.567 225.456 246.564C225.145 246.561 224.846 246.681 224.622 246.897L223.707 247.812C222.836 247.19 221.834 246.775 220.779 246.597V245.305C220.779 244.991 220.654 244.69 220.432 244.467C220.209 244.245 219.908 244.12 219.594 244.12C219.279 244.12 218.978 244.245 218.756 244.467C218.533 244.69 218.409 244.991 218.409 245.305V246.597C217.353 246.775 216.352 247.19 215.48 247.811L214.565 246.896C214.342 246.68 214.042 246.561 213.732 246.564C213.421 246.566 213.124 246.691 212.904 246.911C212.684 247.13 212.56 247.428 212.557 247.738C212.554 248.049 212.674 248.348 212.89 248.572L213.805 249.487C213.183 250.358 212.768 251.36 212.59 252.416H211.298C210.984 252.416 210.683 252.54 210.46 252.763C210.238 252.985 210.113 253.286 210.113 253.601C210.113 253.915 210.238 254.216 210.46 254.439C210.683 254.661 210.984 254.786 211.298 254.786H212.59C212.768 255.841 213.183 256.842 213.804 257.714L212.889 258.629C212.776 258.738 212.686 258.869 212.624 259.014C212.562 259.158 212.529 259.314 212.528 259.471C212.526 259.628 212.556 259.784 212.616 259.93C212.675 260.076 212.763 260.208 212.875 260.319C212.986 260.431 213.118 260.519 213.264 260.578C213.409 260.638 213.566 260.668 213.723 260.666C213.88 260.665 214.036 260.632 214.18 260.57C214.325 260.508 214.456 260.418 214.565 260.305L215.48 259.39C216.351 260.011 217.353 260.427 218.409 260.604V261.896C218.409 262.21 218.533 262.512 218.756 262.734C218.978 262.956 219.279 263.081 219.594 263.081C219.908 263.081 220.209 262.956 220.432 262.734C220.654 262.512 220.779 262.21 220.779 261.896V260.604C221.834 260.427 222.836 260.011 223.707 259.39L224.622 260.305C224.846 260.521 225.145 260.64 225.456 260.638C225.766 260.635 226.064 260.51 226.283 260.291C226.503 260.071 226.628 259.774 226.63 259.463C226.633 259.152 226.514 258.853 226.298 258.629L225.383 257.714C226.004 256.843 226.42 255.841 226.597 254.786H227.889C228.203 254.786 228.505 254.661 228.727 254.439C228.949 254.216 229.074 253.915 229.074 253.601C229.074 253.286 228.949 252.985 228.727 252.763C228.505 252.54 228.203 252.416 227.889 252.416ZM219.594 258.341C218.656 258.341 217.74 258.063 216.96 257.542C216.181 257.021 215.573 256.281 215.214 255.415C214.856 254.548 214.762 253.595 214.945 252.676C215.127 251.756 215.579 250.912 216.242 250.249C216.905 249.586 217.749 249.134 218.669 248.951C219.588 248.769 220.542 248.862 221.408 249.221C222.274 249.58 223.014 250.188 223.535 250.967C224.056 251.747 224.334 252.663 224.334 253.601C224.333 254.857 223.833 256.062 222.944 256.951C222.055 257.84 220.85 258.34 219.594 258.341Z" fill="#222222"/>
<path d="M219.594 255.971C220.903 255.971 221.964 254.91 221.964 253.601C221.964 252.292 220.903 251.23 219.594 251.23C218.285 251.23 217.224 252.292 217.224 253.601C217.224 254.91 218.285 255.971 219.594 255.971Z" fill="#222222"/>
<path d="M203 148C251.601 148 291 187.399 291 236C291 284.601 251.601 324 203 324C154.399 324 115 284.601 115 236C115 187.399 154.399 148 203 148ZM203 299.219C237.915 299.219 266.219 270.915 266.219 236C266.219 201.085 237.915 172.781 203 172.781C168.085 172.781 139.781 201.085 139.781 236C139.781 270.915 168.085 299.219 203 299.219Z" fill="#F2F2F2"/>
<path d="M203 156C203 151.582 206.589 147.962 210.989 148.363C219.807 149.167 228.468 151.299 236.676 154.699C247.353 159.121 257.054 165.603 265.225 173.775C273.397 181.946 279.879 191.647 284.301 202.324C288.724 213.001 291 224.444 291 236C291 247.556 288.724 258.999 284.301 269.676C279.879 280.353 273.397 290.054 265.225 298.225C257.054 306.397 247.353 312.879 236.676 317.301C228.468 320.701 219.807 322.833 210.989 323.637C206.589 324.038 203 320.418 203 316V307.219C203 302.8 206.596 299.271 210.979 298.713C216.539 298.006 221.992 296.56 227.193 294.406C234.863 291.229 241.832 286.573 247.702 280.702C253.573 274.832 258.229 267.863 261.406 260.193C264.583 252.523 266.219 244.302 266.219 236C266.219 227.698 264.583 219.477 261.406 211.807C258.229 204.137 253.573 197.168 247.702 191.298C241.832 185.427 234.863 180.771 227.193 177.594C221.992 175.44 216.539 173.994 210.979 173.287C206.596 172.729 203 169.2 203 164.781V156Z" fill="#003AAF"/>
<circle cx="209" cy="310" r="15.3333" fill="#003AAF" stroke="#F2F2F2" stroke-width="2.66667"/>
<path d="M148.889 419.328C144.505 420.352 140.841 419.952 137.897 418.128C134.953 416.304 133.113 413.408 132.377 409.44C131.641 405.504 132.153 400.976 133.913 395.856L138.905 397.872C137.561 401.616 137.033 404.8 137.321 407.424C137.641 410.048 138.697 411.904 140.489 412.992C142.281 414.08 144.681 414.272 147.689 413.568L148.409 413.376C150.457 412.896 151.993 412.448 153.017 412.032C154.073 411.648 154.809 411.152 155.225 410.544C155.673 409.936 155.801 409.104 155.609 408.048C155.545 407.536 154.825 406.992 153.449 406.416C152.073 405.808 150.441 405.248 148.553 404.736L150.185 399.12C153.033 400.432 155.481 401.872 157.529 403.44C159.609 405.008 160.713 406.496 160.841 407.904C161.065 409.984 160.777 411.728 159.977 413.136C159.209 414.576 158.009 415.76 156.377 416.688C154.745 417.616 152.537 418.432 149.753 419.136L148.889 419.328ZM163.529 408C162.025 408 160.729 407.936 159.641 407.808C158.553 407.648 157.385 407.408 156.137 407.088C154.889 406.736 153.225 406.224 151.145 405.552L148.553 404.736L150.185 399.12C150.409 399.184 150.569 399.232 150.665 399.264C154.505 400.384 157.241 401.136 158.873 401.52C160.537 401.904 162.089 402.096 163.529 402.096L163.865 405.072L163.529 408ZM163.057 402.096H164.161C165.569 402.096 166.513 401.84 166.993 401.328C167.505 400.784 167.729 400.08 167.665 399.216L166.753 375.504L172.033 375.216L172.945 398.976C173.009 400.608 172.705 402.112 172.033 403.488C171.393 404.832 170.401 405.92 169.057 406.752C167.745 407.584 166.113 408 164.161 408H163.057V402.096ZM180.816 414.48C184.72 413.648 187.424 412.992 188.928 412.512C190.432 412.032 191.44 411.424 191.952 410.688C192.496 409.952 192.672 408.832 192.48 407.328L191.664 399.648C191.504 397.824 191.008 396.448 190.176 395.52C189.376 394.592 188.368 394.16 187.152 394.224C186.32 394.256 185.616 394.512 185.04 394.992C184.464 395.44 184.032 396.032 183.744 396.768C183.488 397.504 183.392 398.288 183.456 399.12C183.552 400.144 183.872 400.896 184.416 401.376C184.96 401.856 185.824 402.096 187.008 402.096H199.92H200.112L200.448 405.072L200.112 408H199.968H187.008C184.48 408 182.432 407.248 180.864 405.744C179.296 404.24 178.4 402.176 178.176 399.552C178.048 397.696 178.32 395.92 178.992 394.224C179.696 392.528 180.736 391.152 182.112 390.096C183.488 389.008 185.072 388.416 186.864 388.32C188.656 388.256 190.272 388.672 191.712 389.568C193.152 390.432 194.32 391.696 195.216 393.36C196.144 394.992 196.72 396.88 196.944 399.024L197.76 406.656C198.048 409.568 197.712 411.84 196.752 413.472C195.824 415.104 194.24 416.384 192 417.312C189.792 418.272 186.432 419.232 181.92 420.192L181.344 420.336L180.288 414.576L180.816 414.48ZM227.123 408C224.435 408 222.355 407.12 220.883 405.36C219.411 403.568 218.675 401.2 218.675 398.256H222.179C222.179 399.376 222.627 400.304 223.523 401.04C224.419 401.744 225.619 402.096 227.123 402.096L227.459 405.072L227.123 408ZM199.619 402.096H200.147C201.011 402.096 201.795 401.904 202.499 401.52C203.203 401.136 203.747 400.608 204.131 399.936L207.779 392.88C208.419 391.632 209.331 390.64 210.515 389.904C211.731 389.168 213.043 388.768 214.451 388.704C215.859 388.64 217.187 388.96 218.435 389.664C220.099 390.528 221.267 391.728 221.939 393.264C222.643 394.768 222.899 396.496 222.707 398.448C222.515 400.368 221.923 402.416 220.931 404.592C220.451 405.648 219.763 406.496 218.867 407.136C218.003 407.776 217.027 408.144 215.939 408.24C214.851 408.336 213.795 408.112 212.771 407.568L205.331 403.728L207.875 398.496L215.891 402.528C216.083 402.72 216.307 402.784 216.563 402.72C216.819 402.624 216.947 402.48 216.947 402.288L217.475 401.04C218.115 399.6 218.323 398.288 218.099 397.104C217.875 395.92 217.283 395.088 216.323 394.608C215.459 394.192 214.579 394.144 213.683 394.464C212.819 394.752 212.147 395.376 211.667 396.336L208.643 402.384C207.747 404.176 206.563 405.568 205.091 406.56C203.651 407.52 202.003 408 200.147 408H199.619V402.096ZM226.244 402.096H227.108C230.596 402.096 233.572 401.872 236.036 401.424C238.5 400.976 240.468 400.272 241.94 399.312C243.412 398.32 244.356 397.008 244.772 395.376C244.9 395.088 244.916 394.8 244.82 394.512C244.724 394.192 244.548 393.952 244.292 393.792C244.036 393.632 243.748 393.584 243.428 393.648L235.124 394.656L240.26 401.232C240.548 401.456 241.108 401.632 241.94 401.76C242.772 401.888 243.892 401.984 245.3 402.048C246.708 402.08 248.516 402.096 250.724 402.096H251.588L251.924 405.072L251.588 408H251.06C247.764 408 245.22 407.92 243.428 407.76C241.668 407.568 240.084 407.152 238.676 406.512C237.3 405.872 236.1 404.848 235.076 403.44L228.548 394.704L230.036 390.096L241.7 388.416C243.428 388.16 244.98 388.528 246.356 389.52C247.732 390.48 248.676 391.776 249.188 393.408C249.7 395.04 249.636 396.672 248.996 398.304C248.228 400.128 246.644 401.792 244.244 403.296C241.844 404.768 239.076 405.92 235.94 406.752C232.836 407.584 229.892 408 227.108 408H226.244V402.096ZM251.135 402.096H251.663C252.527 402.096 253.311 401.904 254.015 401.52C254.719 401.136 255.263 400.608 255.647 399.936L259.295 392.88C259.935 391.632 260.847 390.64 262.031 389.904C263.247 389.168 264.559 388.768 265.967 388.704C267.375 388.64 268.703 388.96 269.951 389.664C271.615 390.528 272.783 391.728 273.455 393.264C274.159 394.768 274.415 396.496 274.223 398.448C274.031 400.368 273.439 402.416 272.447 404.592C271.967 405.648 271.279 406.496 270.383 407.136C269.519 407.776 268.543 408.144 267.455 408.24C266.367 408.336 265.311 408.112 264.287 407.568L256.847 403.728L259.391 398.496L267.407 402.528C267.599 402.72 267.823 402.784 268.079 402.72C268.335 402.624 268.463 402.48 268.463 402.288L268.991 401.04C269.631 399.6 269.839 398.288 269.615 397.104C269.391 395.92 268.799 395.088 267.839 394.608C266.975 394.192 266.095 394.144 265.199 394.464C264.335 394.752 263.663 395.376 263.183 396.336L260.159 402.384C259.263 404.176 258.079 405.568 256.607 406.56C255.167 407.52 253.519 408 251.663 408H251.135V402.096Z" fill="#F39F1B"/>
<path d="M164.163 521C162.019 521 160.323 520.68 159.075 520.04C157.859 519.4 156.963 518.376 156.387 516.968C155.811 515.528 155.459 513.544 155.331 511.016L154.467 488.936L158.931 488.744L159.795 511.016V511.64C159.891 512.984 160.051 513.944 160.275 514.52C160.499 515.096 160.883 515.496 161.427 515.72C162.003 515.912 162.915 516.008 164.163 516.008H164.643L164.931 518.504L164.643 521H164.163ZM202.534 521C201.222 521 199.958 520.744 198.742 520.232C197.558 519.688 196.566 519.032 195.766 518.264L198.646 514.616C199.062 515.032 199.606 515.368 200.278 515.624C200.95 515.88 201.702 516.008 202.534 516.008H203.206L203.494 518.504L203.206 521H202.534ZM175.558 516.008H190.534C191.398 516.008 192.182 515.816 192.886 515.432C193.59 515.048 194.134 514.536 194.518 513.896C194.934 513.224 195.142 512.52 195.142 511.784C195.142 510.472 194.694 509.384 193.798 508.52C192.934 507.624 191.846 507.192 190.534 507.224C189.638 507.256 188.806 507.512 188.038 507.992C187.302 508.472 186.534 509.192 185.734 510.152C184.966 511.08 183.942 512.456 182.662 514.28L178.486 520.088L175.03 516.92L179.014 511.496C180.646 509.192 181.99 507.432 183.046 506.216C184.102 504.968 185.222 503.992 186.406 503.288C187.622 502.584 188.998 502.232 190.534 502.232C192.23 502.232 193.766 502.664 195.142 503.528C196.518 504.392 197.606 505.576 198.406 507.08C199.206 508.552 199.606 510.184 199.606 511.976C199.606 513.544 199.19 515.032 198.358 516.44C197.526 517.816 196.406 518.92 194.998 519.752C193.622 520.584 192.134 521 190.534 521H175.558V516.008ZM175.654 521C174.214 521 172.966 520.632 171.91 519.896C170.886 519.128 170.118 518.088 169.606 516.776C169.126 515.432 168.95 513.976 169.078 512.408L169.606 506.504L174.022 506.936L173.494 512.792C173.398 513.88 173.542 514.696 173.926 515.24C174.31 515.752 174.886 516.008 175.654 516.008L175.942 518.504L175.654 521ZM164.182 516.008H164.422C165.862 516.008 166.966 515.736 167.734 515.192C168.502 514.648 168.95 513.72 169.078 512.408L173.494 512.792C173.302 515.416 172.39 517.432 170.758 518.84C169.126 520.216 167.014 520.936 164.422 521H164.182V516.008ZM186.694 492.68H192.022V498.008H186.694V492.68ZM202.713 516.008H205.593C207.193 516.008 209.033 515.8 211.113 515.384C213.193 514.968 215.033 514.44 216.633 513.8C218.233 513.16 219.161 512.504 219.417 511.832L219.609 510.152C219.705 509.48 219.609 508.808 219.321 508.136C219.033 507.432 218.601 506.856 218.025 506.408C217.449 505.928 216.761 505.64 215.961 505.544C215.193 505.48 214.457 505.592 213.753 505.88C213.081 506.168 212.505 506.616 212.025 507.224C211.577 507.8 211.321 508.472 211.257 509.24L211.113 511.4C211.401 512.008 212.089 512.664 213.177 513.368C214.297 514.072 215.817 514.696 217.737 515.24C219.657 515.752 221.849 516.008 224.313 516.008H227.625L227.913 518.504L227.625 521H224.313C221.625 521 218.873 520.504 216.057 519.512C213.241 518.488 210.937 517.208 209.145 515.672C207.353 514.136 206.521 512.648 206.649 511.208L206.937 508.424C207.065 506.792 207.593 505.352 208.521 504.104C209.449 502.856 210.617 501.928 212.025 501.32C213.433 500.712 214.937 500.488 216.537 500.648C218.041 500.808 219.385 501.368 220.569 502.328C221.753 503.256 222.649 504.424 223.257 505.832C223.865 507.24 224.121 508.696 224.025 510.2L223.881 512.36C223.785 513.768 222.745 515.144 220.761 516.488C218.809 517.832 216.409 518.92 213.561 519.752C210.745 520.584 208.089 521 205.593 521H202.713V516.008ZM222.249 496.904H217.545V492.152H222.249V496.904ZM213.321 492.152V496.904H208.617V492.152H213.321ZM227.135 516.008H230.927C232.143 516.008 233.151 515.848 233.951 515.528C234.751 515.208 235.295 514.648 235.583 513.848C235.871 513.016 235.823 511.896 235.439 510.488L233.519 503.336L237.839 502.088L239.759 509.24C240.399 511.672 240.399 513.784 239.759 515.576C239.151 517.336 238.047 518.68 236.447 519.608C234.879 520.536 233.039 521 230.927 521H227.135V516.008ZM230.975 492.632H236.303V497.96H230.975V492.632ZM246.448 488.936L250.912 488.696L252.112 520.952L247.696 521.144L246.448 488.936Z" fill="#6B6B6B"/>
<path d="M99.86 582.8L104.324 582.32L107.396 613.76L102.932 614.24L99.86 582.8ZM132.544 598.832C131.168 598.832 129.84 598.416 128.56 597.584C127.28 596.752 126.24 595.632 125.44 594.224C124.64 592.784 124.24 591.232 124.24 589.568C124.24 587.872 124.64 586.32 125.44 584.912C126.272 583.472 127.392 582.352 128.8 581.552C130.208 580.72 131.744 580.304 133.408 580.304C134.4 580.304 135.648 580.592 137.152 581.168C138.656 581.712 139.968 582.256 141.088 582.8L139.12 587.216C138.064 586.768 136.992 586.368 135.904 586.016C134.848 585.632 134.016 585.392 133.408 585.296C132.544 585.2 131.744 585.344 131.008 585.728C130.304 586.08 129.744 586.608 129.328 587.312C128.912 588.016 128.704 588.768 128.704 589.568C128.704 590.784 129.088 591.808 129.856 592.64C130.624 593.44 131.584 593.84 132.736 593.84H141.568V598.832H132.544ZM115.792 582.752L120.208 582.272L123.232 613.76L118.816 614.24L115.792 582.752ZM124.528 598.832C123.12 598.832 121.824 598.48 120.64 597.776C119.488 597.072 118.544 596.112 117.808 594.896C117.104 593.68 116.688 592.304 116.56 590.768L120.976 590.384C121.104 591.536 121.456 592.4 122.032 592.976C122.64 593.552 123.472 593.84 124.528 593.84H133.216V598.832H124.528ZM163.201 602.912C163.201 604.48 162.817 605.936 162.049 607.28C161.281 608.592 160.241 609.648 158.929 610.448C157.649 611.216 156.257 611.6 154.753 611.6C153.217 611.6 151.793 611.216 150.481 610.448C149.201 609.648 148.177 608.592 147.409 607.28C146.673 605.936 146.305 604.48 146.305 602.912C146.305 601.344 146.673 599.888 147.409 598.544C148.177 597.2 149.201 596.144 150.481 595.376C151.793 594.576 153.217 594.176 154.753 594.176C156.257 594.176 157.649 594.576 158.929 595.376C160.241 596.144 161.281 597.2 162.049 598.544C162.817 599.888 163.201 601.344 163.201 602.912ZM159.025 602.912C159.025 601.792 158.593 600.848 157.729 600.08C156.897 599.28 155.905 598.88 154.753 598.88C153.985 598.88 153.265 599.056 152.593 599.408C151.953 599.76 151.441 600.256 151.057 600.896C150.673 601.504 150.481 602.176 150.481 602.912C150.481 603.648 150.673 604.336 151.057 604.976C151.441 605.584 151.953 606.064 152.593 606.416C153.265 606.768 153.985 606.944 154.753 606.944C155.905 606.944 156.897 606.56 157.729 605.792C158.593 604.992 159.025 604.032 159.025 602.912ZM188.169 582.128L188.985 590.192C189.145 591.664 188.873 593.056 188.169 594.368C187.497 595.68 186.521 596.736 185.241 597.536C183.961 598.336 182.553 598.736 181.017 598.736H179.529C178.185 598.736 176.873 598.384 175.593 597.68C174.313 596.976 173.241 596.016 172.377 594.8C171.545 593.584 171.049 592.224 170.889 590.72L175.257 590.192C175.385 591.408 175.753 592.304 176.361 592.88C176.969 593.456 177.801 593.744 178.857 593.744H181.017C181.753 593.744 182.393 593.616 182.937 593.36C183.481 593.072 183.897 592.704 184.185 592.256C184.505 591.776 184.633 591.248 184.569 590.672L183.753 582.656L188.169 582.128ZM173.145 614.144L170.073 582.656L174.489 582.176L177.561 613.664L173.145 614.144ZM200.996 581.984H206.228L196.532 613.904H191.3L200.996 581.984ZM230.233 614C228.825 614 227.545 613.664 226.393 612.992C225.273 612.32 224.361 611.392 223.657 610.208C222.953 609.024 222.521 607.68 222.361 606.176L226.825 605.744C226.921 606.768 227.273 607.568 227.881 608.144C228.489 608.72 229.273 609.008 230.233 609.008H230.761C231.721 609.008 232.505 608.72 233.113 608.144C233.753 607.536 234.073 606.8 234.073 605.936C234.073 603.696 233.881 601.968 233.497 600.752C233.113 599.504 232.201 597.984 230.761 596.192C229.353 594.4 226.649 591.28 222.649 586.832C221.849 585.872 220.841 584.752 219.625 583.472L222.937 580.16C228.377 586.176 232.057 590.4 233.977 592.832C235.897 595.264 237.129 597.312 237.673 598.976C238.249 600.64 238.537 602.96 238.537 605.936C238.537 607.408 238.185 608.768 237.481 610.016C236.809 611.232 235.865 612.208 234.649 612.944C233.465 613.648 232.169 614 230.761 614H230.233ZM218.473 614C217.033 614 215.705 613.648 214.489 612.944C213.305 612.208 212.361 611.232 211.657 610.016C210.985 608.768 210.649 607.408 210.649 605.936C210.649 603.056 210.873 600.832 211.321 599.264C211.801 597.696 212.825 595.872 214.393 593.792C215.961 591.712 218.809 588.4 222.937 583.856L226.249 587.168C225.705 587.776 225.145 588.384 224.569 588.992C221.273 592.672 219.033 595.296 217.849 596.864C216.665 598.4 215.913 599.744 215.593 600.896C215.273 602.016 215.113 603.696 215.113 605.936C215.113 606.8 215.417 607.536 216.025 608.144C216.665 608.72 217.481 609.008 218.473 609.008H219.001C219.929 609.008 220.713 608.704 221.353 608.096C222.025 607.488 222.361 606.768 222.361 605.936V603.008H226.825V605.936C226.825 607.408 226.473 608.768 225.769 610.016C225.065 611.232 224.105 612.208 222.889 612.944C221.705 613.648 220.409 614 219.001 614H218.473ZM251.434 581.984H256.666L246.97 613.904H241.738L251.434 581.984ZM283.406 598.832C281.998 598.832 280.702 598.48 279.518 597.776C278.366 597.04 277.422 596.048 276.686 594.8C275.982 593.552 275.566 592.176 275.438 590.672L279.854 590.432C279.95 591.488 280.318 592.32 280.958 592.928C281.598 593.536 282.414 593.84 283.406 593.84H283.886C284.526 593.84 285.134 593.696 285.71 593.408C286.286 593.12 286.718 592.736 287.006 592.256C287.326 591.744 287.47 591.216 287.438 590.672L286.67 582.8L291.086 582.32L291.854 590.432C291.982 591.904 291.694 593.296 290.99 594.608C290.286 595.888 289.294 596.912 288.014 597.68C286.734 598.448 285.358 598.832 283.886 598.832H283.406ZM270.83 598.832C269.454 598.832 268.174 598.496 266.99 597.824C265.838 597.12 264.894 596.16 264.158 594.944C263.422 593.696 262.974 592.32 262.814 590.816L267.038 590.24C267.166 591.36 267.55 592.24 268.19 592.88C268.83 593.52 269.646 593.84 270.638 593.84H271.886C272.558 593.84 273.166 593.696 273.71 593.408C274.286 593.12 274.734 592.736 275.054 592.256C275.374 591.776 275.502 591.248 275.438 590.672L274.766 583.904L279.182 583.424L279.854 590.432C279.918 591.904 279.598 593.296 278.894 594.608C278.222 595.888 277.246 596.912 275.966 597.68C274.718 598.448 273.358 598.832 271.886 598.832H270.83ZM261.854 582.8L266.27 582.32L269.342 613.76L264.926 614.24L261.854 582.8ZM296.688 582.8L301.152 582.32L304.224 613.76L299.76 614.24L296.688 582.8Z" fill="#6B6B6B"/>
</g>
<defs>
<filter id="filter0_d_9366_22345" x="0" y="0" width="406" height="703" filterUnits="userSpaceOnUse" color-interpolation-filters="sRGB">
<feFlood flood-opacity="0" result="BackgroundImageFix"/>
<feColorMatrix in="SourceAlpha" type="matrix" values="0 0 0 0 0 0 0 0 0 0 0 0 0 0 0 0 0 0 127 0" result="hardAlpha"/>
<feOffset dy="4"/>
<feGaussianBlur stdDeviation="6"/>
<feComposite in2="hardAlpha" operator="out"/>
<feColorMatrix type="matrix" values="0 0 0 0 0 0 0 0 0 0 0 0 0 0 0 0 0 0 0.08 0"/>
<feBlend mode="normal" in2="BackgroundImageFix" result="effect1_dropShadow_9366_22345"/>
<feBlend mode="normal" in="SourceGraphic" in2="effect1_dropShadow_9366_22345" result="shape"/>
</filter>
</defs>
</svg>
