<svg width="20" height="21" viewBox="0 0 20 21" fill="none" xmlns="http://www.w3.org/2000/svg">
<path d="M14.5833 19.4584H2.91663C2.57496 19.4584 2.29163 19.175 2.29163 18.8334V4.66669C2.29163 2.80002 3.54996 1.54169 5.41663 1.54169H12.0833C13.95 1.54169 15.2083 2.80002 15.2083 4.66669V18.8334C15.2083 19.175 14.925 19.4584 14.5833 19.4584ZM3.54163 18.2084H13.9583V4.66669C13.9583 3.49169 13.2583 2.79169 12.0833 2.79169H5.41663C4.24163 2.79169 3.54163 3.49169 3.54163 4.66669V18.2084Z" fill="#003AAF"/>
<path d="M15.8333 19.4583H1.66663C1.32496 19.4583 1.04163 19.175 1.04163 18.8333C1.04163 18.4917 1.32496 18.2083 1.66663 18.2083H15.8333C16.175 18.2083 16.4583 18.4917 16.4583 18.8333C16.4583 19.175 16.175 19.4583 15.8333 19.4583ZM10.51 9.45668H6.98496C5.62663 9.45668 4.78496 8.61501 4.78496 7.25668V6.23168C4.78496 4.87334 5.62663 4.03168 6.98496 4.03168H10.51C11.8683 4.03168 12.71 4.87334 12.71 6.23168V7.25668C12.71 8.61501 11.8683 9.45668 10.51 9.45668ZM6.99329 5.29001C6.31829 5.29001 6.04329 5.56501 6.04329 6.24001V7.26501C6.04329 7.94001 6.31829 8.21501 6.99329 8.21501H10.5183C11.1933 8.21501 11.4683 7.94001 11.4683 7.26501V6.24001C11.4683 5.56501 11.1933 5.29001 10.5183 5.29001H6.99329ZM7.91663 11.9583H5.41663C5.07496 11.9583 4.79163 11.675 4.79163 11.3333C4.79163 10.9917 5.07496 10.7083 5.41663 10.7083H7.91663C8.25829 10.7083 8.54163 10.9917 8.54163 11.3333C8.54163 11.675 8.25829 11.9583 7.91663 11.9583ZM14.5833 14.465C14.4175 14.465 14.2586 14.3992 14.1413 14.282C14.0241 14.1647 13.9583 14.0058 13.9583 13.84C13.9583 13.6742 14.0241 13.5153 14.1413 13.3981C14.2586 13.2809 14.4175 13.215 14.5833 13.215L17.7083 13.2067V9.21501L16.3833 8.55668C16.2356 8.48109 16.1233 8.35076 16.0703 8.19351C16.0174 8.03625 16.028 7.86453 16.1 7.71501C16.2583 7.40668 16.6333 7.28168 16.9416 7.43168L18.6083 8.26501C18.8166 8.37334 18.95 8.59001 18.95 8.82334V13.8233C18.95 14.165 18.675 14.4483 18.325 14.4483L14.5833 14.465Z" fill="#003AAF"/>
</svg>
