<svg width="20" height="21" viewBox="0 0 20 21" fill="none" xmlns="http://www.w3.org/2000/svg">
<path fill-rule="evenodd" clip-rule="evenodd" d="M4.74197 13.9485C5.0512 14.0561 5.39067 14.1099 5.76039 14.1099C6.13011 14.1099 6.46623 14.0561 6.76872 13.9485C7.07795 13.841 7.34348 13.6964 7.56531 13.5149C7.78714 13.3267 7.95856 13.1082 8.07956 12.8595C8.20056 12.6041 8.26106 12.3285 8.26106 12.0327C8.26106 11.831 8.23081 11.6428 8.17031 11.468C8.11653 11.2932 8.03923 11.1353 7.93839 10.9941C7.84428 10.8529 7.73336 10.7286 7.60564 10.621C7.47792 10.5135 7.34347 10.4227 7.20231 10.3488V10.2681C7.42414 10.1202 7.61573 9.92527 7.77706 9.68327C7.94511 9.44127 8.02914 9.15894 8.02914 8.83627C8.02914 8.56066 7.972 8.30522 7.85773 8.06994C7.74345 7.82794 7.58547 7.61955 7.38381 7.44477C7.18214 7.26999 6.9435 7.13555 6.66789 7.04144C6.39228 6.9406 6.08978 6.89019 5.76039 6.89019C5.431 6.89019 5.1285 6.9406 4.85289 7.04144C4.57728 7.13555 4.33864 7.26999 4.13698 7.44477C3.93531 7.61955 3.77734 7.82794 3.66306 8.06994C3.54878 8.30522 3.49164 8.56066 3.49164 8.83627C3.49164 9.15894 3.57231 9.44127 3.73364 9.68327C3.9017 9.92527 4.09664 10.1202 4.31848 10.2681V10.3488C4.17731 10.4227 4.04286 10.5135 3.91514 10.621C3.78742 10.7286 3.67314 10.8529 3.57231 10.9941C3.4782 11.1353 3.40089 11.2932 3.34039 11.468C3.28661 11.6428 3.25973 11.831 3.25973 12.0327C3.25973 12.3285 3.32022 12.6041 3.44122 12.8595C3.56222 13.1082 3.73364 13.3267 3.95547 13.5149C4.17731 13.6964 4.43948 13.841 4.74197 13.9485ZM6.46623 9.5421C6.278 9.69672 6.04273 9.77402 5.76039 9.77402C5.47806 9.77402 5.24278 9.69672 5.05456 9.5421C4.86634 9.38077 4.77222 9.17238 4.77222 8.91694C4.77222 8.65477 4.86634 8.44974 5.05456 8.30185C5.24278 8.14724 5.47806 8.06994 5.76039 8.06994C6.04273 8.06994 6.278 8.14724 6.46623 8.30185C6.65445 8.44974 6.74856 8.65477 6.74856 8.91694C6.74856 9.17238 6.65445 9.38077 6.46623 9.5421ZM6.60739 12.6276C6.38556 12.8024 6.10323 12.8898 5.76039 12.8898C5.41756 12.8898 5.13522 12.8024 4.91339 12.6276C4.69156 12.4461 4.58064 12.2041 4.58064 11.9016C4.58064 11.7604 4.61089 11.6327 4.67139 11.5184C4.73189 11.3974 4.81256 11.2932 4.91339 11.2059C5.02095 11.1185 5.14531 11.0512 5.28647 11.0042C5.43436 10.9571 5.59234 10.9336 5.76039 10.9336C5.92845 10.9336 6.08306 10.9571 6.22423 11.0042C6.37211 11.0512 6.49648 11.1185 6.59731 11.2059C6.70486 11.2932 6.78889 11.3974 6.84939 11.5184C6.90989 11.6327 6.94014 11.7604 6.94014 11.9016C6.94014 12.2041 6.82923 12.4461 6.60739 12.6276Z" fill="#003AAF"/>
<path fill-rule="evenodd" clip-rule="evenodd" d="M3.58333 3.16668C2.06455 3.16668 0.833333 4.39789 0.833333 5.91668V15.0833C0.833333 16.6021 2.06455 17.8333 3.58333 17.8333H16.4167C17.9355 17.8333 19.1667 16.6021 19.1667 15.0833V5.91668C19.1667 4.39789 17.9355 3.16668 16.4167 3.16668H3.58333ZM13.34 4.45001H10.6417V16.55H15.3642C15.3674 16.5131 15.3689 16.4755 15.3689 16.4372C15.3689 16.2759 15.3387 16.128 15.2782 15.9935C15.2244 15.8524 15.1471 15.7314 15.0463 15.6305C14.9454 15.523 14.8244 15.4423 14.6833 15.3885C14.5488 15.328 14.3976 15.2978 14.2295 15.2978C14.0211 15.2978 13.8363 15.3449 13.6749 15.439C13.5136 15.5264 13.3758 15.6373 13.2615 15.7717L11.9809 15.1869L12.3843 11.7384H16.2664V12.898H13.4834L13.2212 14.5113L13.3019 14.5315C13.4363 14.4172 13.601 14.3197 13.7959 14.239C13.9909 14.1584 14.2262 14.1181 14.5018 14.1181C14.7908 14.1181 15.0664 14.1752 15.3286 14.2895C15.5908 14.397 15.8227 14.5516 16.0244 14.7533C16.226 14.955 16.3874 15.2003 16.5084 15.4894C16.6294 15.7717 16.6899 16.0877 16.6899 16.4372C16.6899 16.4666 16.6894 16.4958 16.6885 16.5249C17.3687 16.3974 17.8833 15.8005 17.8833 15.0833V5.91668C17.8833 5.10666 17.2267 4.45001 16.4167 4.45001H16.0546V6.76753H16.9217V7.9977H16.0546V9.2682H14.7437V7.9977H11.5574V6.92886L13.34 4.45001ZM14.4616 4.45001L13.0195 6.76753H14.7437V4.45001H14.4616ZM3.58333 16.55H9.35838V4.45001H3.58333C2.77332 4.45001 2.11667 5.10666 2.11667 5.91668V15.0833C2.11667 15.8934 2.77332 16.55 3.58333 16.55Z" fill="#003AAF"/>
<path fill-rule="evenodd" clip-rule="evenodd" d="M16.2664 11.7384V12.898H13.4834L13.2212 14.5113L13.3019 14.5315C13.4363 14.4172 13.601 14.3197 13.7959 14.239C13.9909 14.1584 14.2262 14.1181 14.5018 14.1181C14.7908 14.1181 15.0664 14.1752 15.3286 14.2895C15.5908 14.397 15.8227 14.5516 16.0244 14.7533C16.226 14.955 16.3874 15.2003 16.5084 15.4894C16.6294 15.7717 16.6899 16.0877 16.6899 16.4372C16.6899 16.438 16.6899 16.4389 16.6899 16.4397C16.6898 16.4683 16.6894 16.4967 16.6885 16.5249C16.7168 16.5196 16.7447 16.5135 16.7724 16.5066C17.4105 16.3476 17.8833 15.7707 17.8833 15.0833V5.91668C17.8833 5.10666 17.2267 4.45001 16.4167 4.45001H16.0546V6.76753H16.9217V7.9977H16.0546V9.2682H14.7437V7.9977H11.5574V6.92886L13.34 4.45001H10.6417V16.55H15.3642C15.3674 16.5131 15.3689 16.4755 15.3689 16.4372C15.3689 16.2759 15.3387 16.128 15.2782 15.9935C15.2244 15.8524 15.1471 15.7314 15.0463 15.6305C14.9454 15.523 14.8244 15.4423 14.6833 15.3885C14.5488 15.328 14.3976 15.2978 14.2295 15.2978C14.0211 15.2978 13.8363 15.3449 13.6749 15.439C13.5136 15.5264 13.3758 15.6373 13.2615 15.7717L11.9809 15.1869L12.3843 11.7384H16.2664ZM15.2853 16.4667C15.2855 16.4569 15.2856 16.4471 15.2856 16.4372C15.2856 16.2865 15.2574 16.1505 15.2022 16.0277L15.2002 16.0233C15.1503 15.8924 15.0794 15.7815 14.9873 15.6895L14.9854 15.6876C14.8935 15.5895 14.7832 15.5158 14.6536 15.4664L14.649 15.4647C14.5267 15.4096 14.3874 15.3811 14.2295 15.3811C14.0341 15.3811 13.8641 15.4251 13.7169 15.5109L13.7147 15.5123C13.562 15.595 13.4324 15.6994 13.325 15.8257L13.2842 15.8737L11.8911 15.2375L12.3101 11.655H16.3497V12.9813H13.5542L13.3223 14.4085C13.449 14.3134 13.5966 14.2314 13.7641 14.162C13.9717 14.0761 14.2184 14.0347 14.5018 14.0347C14.8019 14.0347 15.0885 14.094 15.3611 14.2127C15.6332 14.3245 15.8741 14.4852 16.0833 14.6944C16.2933 14.9044 16.4603 15.159 16.5851 15.4569C16.709 15.7462 16.7712 16.0678 16.7731 16.4203C17.3644 16.2631 17.8 15.724 17.8 15.0833V5.91668C17.8 5.15268 17.1807 4.53334 16.4167 4.53334H16.1379V6.6842H17.0051V8.08103H16.1379V9.35153H14.6604V8.08103H11.4741V6.90201L13.1774 4.53334H10.725V16.4667H15.2853ZM4.71406 14.027C4.4036 13.9167 4.13279 13.7677 3.9027 13.5794L3.90156 13.5785C3.67138 13.3832 3.4926 13.1556 3.36629 12.896L3.36591 12.8952C3.23939 12.6281 3.17639 12.3402 3.17639 12.0327C3.17639 11.8236 3.20429 11.627 3.26074 11.4435L3.2616 11.4407C3.32421 11.2599 3.40459 11.0954 3.50297 10.9479L3.50446 10.9456C3.60919 10.799 3.7282 10.6695 3.86146 10.5573C3.97696 10.46 4.09805 10.3758 4.22474 10.3048C4.01305 10.155 3.82662 9.96326 3.66519 9.7308L3.66429 9.72951C3.49285 9.47234 3.40831 9.17352 3.40831 8.83627C3.40831 8.5489 3.46795 8.28106 3.5879 8.03394C3.70709 7.78167 3.87207 7.56408 4.0824 7.3818C4.29267 7.19956 4.54063 7.06012 4.8251 6.96287C5.11071 6.8585 5.42275 6.80685 5.76039 6.80685C6.09803 6.80685 6.41008 6.8585 6.69568 6.96287C6.98015 7.06012 7.22811 7.19956 7.43839 7.3818C7.64871 7.56408 7.81369 7.78167 7.93288 8.03393C8.05283 8.28105 8.11248 8.5489 8.11248 8.83627C8.11248 9.17396 8.02432 9.47303 7.84595 9.73017C7.69067 9.96292 7.50743 10.1548 7.29601 10.3048C7.42271 10.3758 7.54381 10.46 7.65932 10.5573C7.79282 10.6697 7.90873 10.7996 8.00698 10.9467C8.11264 11.0949 8.19341 11.2602 8.24953 11.4421C8.31301 11.626 8.34439 11.8231 8.34439 12.0327C8.34439 12.3402 8.2814 12.6281 8.15487 12.8952L8.1545 12.896C8.02818 13.1556 7.8494 13.3832 7.61922 13.5785L7.61809 13.5794C7.38777 13.7679 7.11343 13.9168 6.79641 14.0271C6.7963 14.0272 6.79651 14.0271 6.79641 14.0271L6.76872 13.9485C6.46623 14.0561 6.13011 14.1099 5.76039 14.1099C5.39067 14.1099 5.0512 14.0561 4.74197 13.9485C4.43948 13.841 4.17731 13.6964 3.95547 13.5149C3.73364 13.3267 3.56222 13.1082 3.44122 12.8595C3.32022 12.6041 3.25973 12.3285 3.25973 12.0327C3.25973 11.831 3.28661 11.6428 3.34039 11.468C3.40089 11.2932 3.4782 11.1353 3.57231 10.9941C3.67314 10.8529 3.78742 10.7286 3.91514 10.621C4.04286 10.5135 4.17731 10.4227 4.31848 10.3488V10.2681C4.09664 10.1202 3.9017 9.92527 3.73364 9.68327C3.57231 9.44127 3.49164 9.15894 3.49164 8.83627C3.49164 8.56066 3.54878 8.30522 3.66306 8.06994C3.77734 7.82794 3.93531 7.61955 4.13698 7.44477C4.33864 7.26999 4.57728 7.13555 4.85289 7.04144C5.1285 6.9406 5.431 6.89019 5.76039 6.89019C6.08978 6.89019 6.39228 6.9406 6.66789 7.04144C6.9435 7.13555 7.18214 7.26999 7.38381 7.44477C7.58547 7.61955 7.74345 7.82794 7.85773 8.06994C7.972 8.30522 8.02914 8.56066 8.02914 8.83627C8.02914 9.15894 7.94511 9.44127 7.77706 9.68327C7.61573 9.92527 7.42414 10.1202 7.20231 10.2681V10.3488C7.34347 10.4227 7.47792 10.5135 7.60564 10.621C7.73336 10.7286 7.84428 10.8529 7.93839 10.9941C8.03923 11.1353 8.11653 11.2932 8.17031 11.468C8.23081 11.6428 8.26106 11.831 8.26106 12.0327C8.26106 12.3285 8.20056 12.6041 8.07956 12.8595C7.95856 13.1082 7.78714 13.3267 7.56531 13.5149C7.34348 13.6964 7.07795 13.841 6.76872 13.9485M5.05456 8.30185C4.86634 8.44974 4.77222 8.65477 4.77222 8.91694C4.77222 9.17238 4.86634 9.38077 5.05456 9.5421C5.24278 9.69672 5.47806 9.77402 5.76039 9.77402C6.04273 9.77402 6.278 9.69672 6.46623 9.5421C6.65445 9.38077 6.74856 9.17238 6.74856 8.91694C6.74856 8.65477 6.65445 8.44974 6.46623 8.30185C6.278 8.14724 6.04273 8.06994 5.76039 8.06994C5.47806 8.06994 5.24278 8.14724 5.05456 8.30185ZM6.41265 9.47827C6.58133 9.3334 6.66523 9.1486 6.66523 8.91694C6.66523 8.67755 6.58076 8.49782 6.41474 8.36738L6.41332 8.36626C6.24232 8.2258 6.02666 8.15327 5.76039 8.15327C5.49412 8.15327 5.27845 8.22579 5.10745 8.36625L5.10606 8.3674C4.94004 8.49784 4.85556 8.67755 4.85556 8.91694C4.85556 9.1486 4.93946 9.3334 5.10813 9.47827C5.27902 9.61836 5.49448 9.69069 5.76039 9.69069C6.02631 9.69069 6.24176 9.61836 6.41265 9.47827ZM6.22423 11.0042C6.08306 10.9571 5.92845 10.9336 5.76039 10.9336C5.59234 10.9336 5.43436 10.9571 5.28647 11.0042C5.14531 11.0512 5.02095 11.1185 4.91339 11.2059C4.81256 11.2932 4.73189 11.3974 4.67139 11.5184C4.61089 11.6327 4.58064 11.7604 4.58064 11.9016C4.58064 12.2041 4.69156 12.4461 4.91339 12.6276C5.13522 12.8024 5.41756 12.8898 5.76039 12.8898C6.10323 12.8898 6.38556 12.8024 6.60739 12.6276C6.82923 12.4461 6.94014 12.2041 6.94014 11.9016C6.94014 11.7604 6.90989 11.6327 6.84939 11.5184C6.78889 11.3974 6.70486 11.2932 6.59731 11.2059C6.49648 11.1185 6.37211 11.0512 6.22423 11.0042ZM6.5552 12.5626C6.75611 12.398 6.85681 12.1804 6.85681 11.9016C6.85681 11.7728 6.82931 11.6586 6.77574 11.5574L6.77484 11.5557C6.71976 11.4456 6.64335 11.3506 6.54476 11.2705L6.5427 11.2689C6.4517 11.19 6.3378 11.1278 6.19896 11.0836L6.19787 11.0833C6.06622 11.0394 5.92063 11.0169 5.76039 11.0169C5.60041 11.0169 5.4512 11.0393 5.31228 11.0834C5.18062 11.1274 5.06581 11.1896 4.96697 11.2697C4.875 11.3496 4.8014 11.4448 4.74593 11.5557L4.74506 11.5574C4.69149 11.6586 4.66397 11.7728 4.66397 11.9016C4.66397 12.1804 4.76468 12.398 4.96558 12.5626C5.16969 12.7232 5.43247 12.8064 5.76039 12.8064C6.08831 12.8064 6.35109 12.7232 6.5552 12.5626ZM13.0195 6.76753H14.7437V4.45001H14.4616L13.0195 6.76753ZM13.1695 6.6842H14.6604V4.53334H14.5079L13.1695 6.6842ZM0.75 5.91668C0.75 4.35187 2.01853 3.08334 3.58333 3.08334H16.4167C17.9815 3.08334 19.25 4.35187 19.25 5.91668V15.0833C19.25 16.6482 17.9815 17.9167 16.4167 17.9167H3.58333C2.01853 17.9167 0.75 16.6482 0.75 15.0833V5.91668ZM3.58333 16.4667H9.27504V4.53334H3.58333C2.81934 4.53334 2.2 5.15268 2.2 5.91668V15.0833C2.2 15.8473 2.81934 16.4667 3.58333 16.4667ZM0.833333 5.91668C0.833333 4.39789 2.06455 3.16668 3.58333 3.16668H16.4167C17.9355 3.16668 19.1667 4.39789 19.1667 5.91668V15.0833C19.1667 16.6021 17.9355 17.8333 16.4167 17.8333H3.58333C2.06455 17.8333 0.833333 16.6021 0.833333 15.0833V5.91668ZM3.58333 16.55C2.77332 16.55 2.11667 15.8934 2.11667 15.0833V5.91668C2.11667 5.10666 2.77332 4.45001 3.58333 4.45001H9.35838V16.55H3.58333Z" fill="#003AAF"/>
</svg>
