<svg width="20" height="21" viewBox="0 0 20 21" fill="none" xmlns="http://www.w3.org/2000/svg">
<path d="M17.327 5.83266C17.557 5.892 17.733 6.06266 17.7984 6.28966C18.0549 7.1872 18.0669 8.13699 17.833 9.0407C17.5992 9.94441 17.128 10.7692 16.4684 11.4297C15.0794 12.8183 13.0197 13.3107 11.1654 12.7123L6.06471 17.8013C5.84348 18.023 5.58074 18.1989 5.29151 18.319C5.00228 18.4391 4.69222 18.5011 4.37905 18.5013C3.74789 18.5 3.14306 18.2482 2.69738 17.8013C1.76904 16.873 1.76904 15.362 2.69738 14.4333L7.79405 9.348C7.49639 8.43024 7.4579 7.44812 7.68281 6.50988C7.90772 5.57165 8.38731 4.71372 9.06871 4.03066C9.72923 3.37097 10.5541 2.89982 11.4578 2.66598C12.3616 2.43214 13.3115 2.44411 14.209 2.70066C14.3199 2.73204 14.4205 2.79207 14.5007 2.87469C14.5809 2.95732 14.6379 3.05964 14.666 3.17133C14.726 3.404 14.661 3.64433 14.492 3.81366L12.471 5.83433C12.1815 6.12462 12.017 6.51667 12.0127 6.92666C12.0156 7.3216 12.1664 7.70111 12.4354 7.99033C12.7094 8.283 13.092 8.44766 13.513 8.45466C13.737 8.45849 13.9594 8.41743 14.1672 8.3339C14.3751 8.25038 14.564 8.12607 14.723 7.96833L16.6854 6.00666C16.7677 5.92382 16.8703 5.86412 16.983 5.83358C17.0958 5.80303 17.2145 5.80272 17.3274 5.83266H17.327ZM13.5404 9.12166L13.5024 9.12133C12.899 9.11133 12.3474 8.87133 11.949 8.446C11.567 8.03833 11.353 7.50166 11.346 6.92666C11.3504 6.33991 11.5853 5.77839 12 5.36333L14.0257 3.34166C13.2425 3.11779 12.4137 3.10735 11.625 3.31141C10.8364 3.51548 10.1167 3.92665 9.54038 4.50233C8.28038 5.76233 7.86838 7.65333 8.49038 9.31966C8.53638 9.44233 8.50338 9.583 8.41071 9.67533L3.16905 14.9053C2.92938 15.1452 2.76612 15.4507 2.69986 15.7832C2.63361 16.1158 2.66732 16.4605 2.79675 16.7739C2.92618 17.0873 3.14553 17.3554 3.42713 17.5443C3.70873 17.7332 4.03996 17.8345 4.37905 17.8353C4.83502 17.8346 5.27204 17.6528 5.59405 17.33L10.8417 12.0933C10.8867 12.0484 10.9437 12.0173 11.0058 12.0037C11.068 11.9901 11.1327 11.9946 11.1924 12.0167C12.854 12.63 14.7404 12.2147 15.9967 10.9583C16.572 10.3829 16.983 9.66405 17.1869 8.87631C17.3908 8.08858 17.3802 7.26063 17.1564 6.47833L15.1947 8.43966C14.7547 8.87635 14.1603 9.12148 13.5404 9.12166Z" fill="#003AAF" stroke="#003AAF" stroke-width="0.8"/>
<path d="M4.95998 16.451C4.91626 16.451 4.87297 16.4424 4.83259 16.4256C4.7922 16.4088 4.75552 16.3843 4.72465 16.3533L4.14532 15.774C4.11348 15.7432 4.08809 15.7065 4.07062 15.6658C4.05315 15.6251 4.04395 15.5814 4.04357 15.5371C4.04318 15.4929 4.05162 15.449 4.06838 15.408C4.08514 15.367 4.10989 15.3298 4.14119 15.2985C4.17248 15.2672 4.2097 15.2425 4.25066 15.2257C4.29163 15.209 4.33552 15.2005 4.37978 15.2009C4.42404 15.2013 4.46778 15.2105 4.50845 15.228C4.54912 15.2454 4.5859 15.2708 4.61665 15.3027L5.19598 15.882C5.24259 15.9286 5.27432 15.988 5.28718 16.0526C5.30003 16.1173 5.29343 16.1843 5.26821 16.2452C5.24299 16.3061 5.20027 16.3582 5.14547 16.3948C5.09067 16.4314 5.0259 16.451 4.95998 16.451Z" fill="#003AAF" stroke="#003AAF" stroke-width="0.6"/>
</svg>
