<svg width="360" height="369" viewBox="0 0 360 369" fill="none" xmlns="http://www.w3.org/2000/svg">
<path d="M360 282.21H0V282.394H360V282.21Z" fill="#EBEBEB"/>
<path d="M323.929 294.089H300.081V294.273H323.929V294.089Z" fill="#EBEBEB"/>
<path d="M217.038 294.181H210.779V294.365H217.038V294.181Z" fill="#EBEBEB"/>
<path d="M299.36 287.236H255.12V287.42H299.36V287.236Z" fill="#EBEBEB"/>
<path d="M162.106 291.592H152.967V291.777H162.106V291.592Z" fill="#EBEBEB"/>
<path d="M146.556 291.592H120.036V291.777H146.556V291.592Z" fill="#EBEBEB"/>
<path d="M56.0801 288.475H37.7705V288.66H56.0801V288.475Z" fill="#EBEBEB"/>
<path d="M114.32 288.475H60.4V288.66H114.32V288.475Z" fill="#EBEBEB"/>
<path d="M170.65 249.296H31.6188C29.353 249.296 27.509 247.406 27.509 245.084V44.7671C27.509 42.4446 29.353 40.5546 31.6188 40.5546H170.65C172.915 40.5546 174.759 42.4446 174.759 44.7671V245.084C174.759 247.406 172.915 249.296 170.65 249.296ZM31.6188 40.7399C29.4516 40.7399 27.689 42.5465 27.689 44.7679V245.085C27.689 247.306 29.4516 249.113 31.6188 249.113H170.65C172.817 249.113 174.579 247.306 174.579 245.085V44.7671C174.579 42.5465 172.817 40.7391 170.65 40.7391L31.6188 40.7399Z" fill="#EBEBEB"/>
<path d="M326.383 249.296H187.353C185.087 249.296 183.244 247.406 183.244 245.084V44.7671C183.244 42.4446 185.087 40.5546 187.353 40.5546H326.383C328.65 40.5546 330.493 42.4446 330.493 44.7671V245.084C330.494 247.406 328.65 249.296 326.383 249.296ZM187.353 40.7399C185.186 40.7399 183.424 42.5465 183.424 44.7679V245.085C183.424 247.306 185.186 249.113 187.353 249.113H326.383C328.55 249.113 330.313 247.306 330.313 245.085V44.7671C330.313 42.5465 328.55 40.7391 326.383 40.7391L187.353 40.7399Z" fill="#EBEBEB"/>
<path d="M137.361 184.134L312.349 184.134V53.1151L137.361 53.1151L137.361 184.134Z" fill="#E6E6E6"/>
<path d="M129.624 184.134L310.555 184.134V53.1151L129.624 53.1151L129.624 184.134Z" fill="#F0F0F0"/>
<path d="M299.724 173.034V64.2171L140.455 64.2171L140.455 173.034L299.724 173.034Z" fill="#FAFAFA"/>
<path d="M261.009 173.034L224.751 64.2172H190.126L226.385 173.034H261.009Z" fill="white"/>
<path d="M218.946 173.034L182.689 64.2172H169.19L205.449 173.034H218.946Z" fill="white"/>
<path d="M141.83 173.034L141.83 64.2174H140.455L140.455 173.034H141.83Z" fill="#E6E6E6"/>
<path d="M46.4947 148.496H108.284L108.284 58.7031L46.4947 58.7031L46.4947 148.496Z" fill="#E0E0E0"/>
<path d="M42.1184 148.496H105.811L105.811 58.7031L42.1184 58.7031L42.1184 148.496Z" fill="#F5F5F5"/>
<path d="M99.5242 141.42L99.5242 65.7795L48.4056 65.7795L48.4056 141.42H99.5242Z" fill="white"/>
<path d="M70.5097 211.36C75.0968 199.76 86.0055 195.442 89.774 188.118C94.7117 178.522 94.6837 164.127 90.4796 158.932C86.827 154.418 74.7303 184.941 73.3681 188.351C68.6816 200.08 67.3193 208.784 66.4409 217.217C66.541 210.049 66.6368 203.467 66.7153 198.389C66.9716 181.826 67.292 176.499 67.4381 174.86C67.9429 174.059 68.5397 173.126 68.8861 172.626C71.8136 168.395 78.3087 163.359 81.5545 157.21C86.2942 148.23 85.5281 137.484 82.2039 133.482C78.7277 129.298 72.5833 139.187 69.3202 148.985C66.0579 158.784 67.4518 168.162 66.5367 176.299C66.3452 177.896 66.1486 183.958 65.9643 192.366C64.9743 183.319 63.0029 177.257 59.3497 171.609C54.8561 164.661 50.9768 156.201 47.2738 157.295C43.5716 158.389 45.5645 169.582 48.4935 177.441C51.102 184.44 63.9713 191.42 65.8671 197.047C65.6439 208.445 65.4445 222.885 65.3026 236.329C64.2881 229.385 64.9858 228.801 60.8285 218.17C58.3568 211.849 48.2242 204.054 47.0161 208.397C45.8302 212.659 47.6446 220.948 51.47 226.697C54.5559 231.334 61.4024 231.329 62.9864 234.207C63.3557 234.878 64.5783 237.452 65.276 238.931C65.1104 255.345 65.0369 269.834 65.1183 274.774L65.7821 274.823C65.7505 273.548 65.8304 265.198 65.9607 254.149C67.6232 248.269 78.8156 244.837 82.273 238.723C85.8917 232.325 88.4917 224.858 86.9401 219.858C85.6462 215.689 75.4467 221.358 71.3074 228.266C68.5505 232.866 66.8665 237.777 66.0802 244.374C66.1745 236.847 66.2818 228.76 66.3862 221.128C67.2243 219.224 69.1352 214.837 70.5097 211.36Z" fill="#E6E6E6"/>
<path d="M77.0823 282.21H53.5564C52.2712 282.21 51.1631 281.281 50.9082 279.991L49.2378 271.551H81.4016L79.7312 279.991C79.4756 281.282 78.3683 282.21 77.0823 282.21Z" fill="#F0F0F0"/>
<path d="M82.0742 274.823H48.5647C47.7619 274.823 47.0865 274.205 46.9973 273.387L46.3118 267.148C46.2067 266.189 46.9382 265.35 47.8793 265.35H82.7589C83.7 265.35 84.4322 266.189 84.3264 267.148L83.6409 273.387C83.5517 274.205 82.877 274.823 82.0742 274.823Z" fill="#F0F0F0"/>
<path d="M292.059 276.831H299.251V197.501H292.059V276.831Z" fill="#F0F0F0"/>
<path d="M145.484 282.117H296.489V276.83H145.484V282.117Z" fill="#F0F0F0"/>
<path d="M292.059 197.501H142.723V276.83H292.059V197.501Z" fill="#F5F5F5"/>
<path d="M293.751 197.501H301.183V192.501H293.751V197.501Z" fill="#E0E0E0"/>
<path d="M293.751 192.501H140.79V197.501H293.751V192.501Z" fill="#EBEBEB"/>
<path d="M281.341 231.762H153.44C150.252 231.762 147.658 229.104 147.658 225.835V208.847C147.658 205.578 150.252 202.92 153.44 202.92H281.341C284.53 202.92 287.123 205.578 287.123 208.847V225.835C287.123 229.104 284.53 231.762 281.341 231.762ZM153.44 204.396C151.046 204.396 149.098 206.393 149.098 208.847V225.835C149.098 228.289 151.046 230.286 153.44 230.286H281.341C283.735 230.286 285.683 228.289 285.683 225.835V208.847C285.683 206.393 283.735 204.396 281.341 204.396H153.44Z" fill="white"/>
<path d="M281.341 267.297H153.44C150.252 267.297 147.658 264.638 147.658 261.37V244.381C147.658 241.113 150.252 238.455 153.44 238.455H281.341C284.53 238.455 287.123 241.114 287.123 244.381V261.37C287.123 264.639 284.53 267.297 281.341 267.297ZM153.44 239.931C151.046 239.931 149.098 241.928 149.098 244.381V261.37C149.098 263.824 151.046 265.821 153.44 265.821H281.341C283.735 265.821 285.683 263.824 285.683 261.37V244.381C285.683 241.928 283.735 239.931 281.341 239.931H153.44Z" fill="white"/>
<path d="M252.275 219.955H182.507C181.476 219.955 180.637 219.095 180.637 218.038V216.642C180.637 215.585 181.476 214.726 182.507 214.726H252.275C253.306 214.726 254.145 215.585 254.145 216.642V218.038C254.145 219.095 253.306 219.955 252.275 219.955ZM182.507 216.202C182.274 216.202 182.077 216.404 182.077 216.643V218.039C182.077 218.278 182.274 218.48 182.507 218.48H252.275C252.508 218.48 252.705 218.278 252.705 218.039V216.643C252.705 216.405 252.508 216.202 252.275 216.202H182.507Z" fill="white"/>
<path d="M252.275 255.49H182.507C181.476 255.49 180.637 254.63 180.637 253.573V252.177C180.637 251.12 181.476 250.26 182.507 250.26H252.275C253.306 250.26 254.145 251.12 254.145 252.177V253.573C254.145 254.63 253.306 255.49 252.275 255.49ZM182.507 251.737C182.274 251.737 182.077 251.939 182.077 252.178V253.574C182.077 253.812 182.274 254.015 182.507 254.015H252.275C252.508 254.015 252.705 253.813 252.705 253.574V252.178C252.705 251.939 252.508 251.737 252.275 251.737H182.507Z" fill="white"/>
<path d="M176.4 315.54C253.499 315.54 316 311.799 316 307.184C316 302.569 253.499 298.827 176.4 298.827C99.301 298.827 36.7999 302.569 36.7999 307.184C36.7999 311.799 99.301 315.54 176.4 315.54Z" fill="#F5F5F5"/>
<path d="M269.836 123.8L269.562 128.146L270.281 128.194L270.555 123.847L269.836 123.8Z" fill="#407BFF"/>
<path d="M270.95 106.167L270.051 120.449L270.77 120.496L271.669 106.214L270.95 106.167Z" fill="#407BFF"/>
<path d="M262.397 85.4132H177.758C173.324 85.4132 169.462 89.1313 169.175 93.6759L158.244 266.736C157.956 271.281 161.349 274.999 165.783 274.999H250.422C254.855 274.999 258.718 271.281 259.005 266.736L269.936 93.6759C270.223 89.1313 266.83 85.4132 262.397 85.4132Z" fill="#407BFF"/>
<path opacity="0.7" d="M259.71 85.4132H177.758C173.324 85.4132 169.462 89.1313 169.175 93.6759L158.244 266.736C157.956 271.281 161.349 274.999 165.783 274.999H247.735C252.169 274.999 256.031 271.281 256.318 266.736L267.25 93.6759C267.536 89.1313 264.143 85.4132 259.71 85.4132Z" fill="white"/>
<path d="M252.8 262.212H162.652C161.228 262.212 160.1 260.978 160.193 259.522L170.084 102.925C170.168 101.595 171.244 100.561 172.544 100.561H262.692C264.116 100.561 265.244 101.795 265.151 103.251L255.26 259.848C255.176 261.178 254.1 262.212 252.8 262.212Z" fill="white"/>
<path d="M232.767 95.4353H200.001C199.28 95.4353 198.733 94.836 198.78 94.0966C198.826 93.3571 199.449 92.7578 200.171 92.7578H232.936C233.658 92.7578 234.205 93.3571 234.158 94.0966C234.111 94.836 233.489 95.4353 232.767 95.4353Z" fill="white"/>
<path d="M207.193 268.791C207.101 270.608 205.59 272.08 203.817 272.08C202.045 272.08 200.683 270.607 200.774 268.791C200.865 266.974 202.377 265.501 204.149 265.501C205.922 265.501 207.285 266.974 207.193 268.791Z" fill="white"/>
<path opacity="0.2" d="M242.979 143.937H166L161.11 221.358H242.979C247.413 221.358 251.04 217.64 251.04 213.095V152.199C251.04 147.655 247.413 143.937 242.979 143.937Z" fill="#407BFF"/>
<path d="M235.809 214.473H141.468C137.034 214.473 133.406 210.755 133.406 206.21V145.314C133.406 140.769 137.034 137.051 141.468 137.051H235.81C240.244 137.051 243.871 140.769 243.871 145.314V206.21C243.87 210.755 240.243 214.473 235.809 214.473Z" fill="#407BFF"/>
<path d="M130.833 136.163C130.649 136.163 130.465 136.091 130.324 135.947L129.033 134.624C128.752 134.335 128.752 133.869 129.033 133.58C129.315 133.292 129.77 133.292 130.051 133.58L131.342 134.903C131.624 135.192 131.624 135.658 131.342 135.947C131.202 136.092 131.018 136.163 130.833 136.163Z" fill="#407BFF"/>
<path d="M128.888 140.794H127.063C126.664 140.794 126.343 140.463 126.343 140.056C126.343 139.649 126.664 139.318 127.063 139.318H128.888C129.286 139.318 129.608 139.649 129.608 140.056C129.608 140.463 129.286 140.794 128.888 140.794Z" fill="#407BFF"/>
<path d="M135.415 134.167C135.041 134.167 134.725 133.87 134.698 133.481L134.568 131.615C134.539 131.208 134.838 130.855 135.235 130.826C135.639 130.796 135.975 131.103 136.004 131.509L136.134 133.376C136.163 133.782 135.864 134.135 135.467 134.165C135.45 134.166 135.433 134.167 135.415 134.167Z" fill="#407BFF"/>
<path d="M196.699 206.517L225.659 236.2V206.517H196.699Z" fill="#407BFF"/>
<path d="M204.637 193.51L203.234 187.242C202.866 185.598 202.862 183.89 203.222 182.245L205.173 173.316C206.913 165.356 202.972 157.404 196.142 153.904C196.201 153.738 196.267 153.576 196.306 153.4C196.803 151.123 195.406 148.864 193.185 148.354C190.964 147.844 188.76 149.276 188.263 151.553C188.224 151.729 188.217 151.905 188.201 152.08C180.567 152.259 173.692 157.728 171.952 165.688L170.001 174.616C169.641 176.262 168.926 177.805 167.91 179.131L164.032 184.186C162.379 186.342 163.485 189.529 166.096 190.128L200.297 197.982C202.907 198.581 205.235 196.183 204.637 193.51Z" fill="white"/>
<path d="M178.808 195.446C177.683 195.188 176.672 196.188 176.866 197.354C177.256 199.707 178.991 201.699 181.404 202.253C183.817 202.808 186.215 201.764 187.548 199.807C188.208 198.838 187.711 197.49 186.585 197.232L178.808 195.446Z" fill="white"/>
<path d="M152.544 183.01C152.196 183.01 151.854 182.837 151.646 182.518C148.219 177.258 146.997 170.947 148.203 164.745C149.409 158.544 152.898 153.195 158.029 149.683C158.525 149.344 159.195 149.481 159.527 149.99C159.858 150.498 159.724 151.186 159.229 151.525C154.577 154.708 151.414 159.557 150.321 165.178C149.228 170.8 150.336 176.521 153.441 181.289C153.772 181.797 153.639 182.485 153.143 182.824C152.959 182.949 152.75 183.01 152.544 183.01Z" fill="white"/>
<path d="M157.122 179.877C156.774 179.877 156.432 179.705 156.224 179.385C153.614 175.379 152.683 170.572 153.601 165.848C154.519 161.125 157.178 157.05 161.086 154.376C161.581 154.035 162.252 154.173 162.583 154.682C162.914 155.19 162.781 155.878 162.285 156.218C158.857 158.564 156.525 162.138 155.719 166.281C154.913 170.425 155.73 174.642 158.018 178.156C158.35 178.665 158.216 179.352 157.72 179.691C157.537 179.817 157.328 179.877 157.122 179.877Z" fill="white"/>
<path d="M161.7 176.745C161.351 176.745 161.009 176.572 160.801 176.253C159.008 173.501 158.367 170.197 158.999 166.951C159.63 163.705 161.456 160.906 164.142 159.068C164.637 158.728 165.307 158.865 165.639 159.374C165.971 159.883 165.837 160.57 165.341 160.91C163.135 162.419 161.636 164.719 161.118 167.384C160.599 170.05 161.125 172.764 162.597 175.024C162.929 175.533 162.795 176.22 162.299 176.559C162.114 176.685 161.906 176.745 161.7 176.745Z" fill="white"/>
<path d="M214.81 198.591C214.419 198.591 214.042 198.372 213.85 197.992C213.576 197.449 213.784 196.78 214.314 196.5C219.284 193.87 222.956 189.414 224.656 183.954C226.356 178.493 225.878 172.68 223.313 167.587C223.039 167.043 223.247 166.375 223.777 166.095C224.307 165.816 224.959 166.027 225.232 166.571C228.063 172.189 228.589 178.602 226.714 184.626C224.839 190.651 220.787 195.566 215.306 198.467C215.147 198.551 214.977 198.591 214.81 198.591Z" fill="white"/>
<path d="M212.285 193.578C211.894 193.578 211.517 193.36 211.325 192.979C211.051 192.436 211.259 191.767 211.789 191.487C215.453 189.549 218.16 186.265 219.413 182.24C220.665 178.214 220.313 173.929 218.422 170.175C218.148 169.632 218.356 168.964 218.886 168.683C219.416 168.404 220.068 168.615 220.342 169.159C222.497 173.439 222.898 178.323 221.47 182.912C220.042 187.501 216.955 191.245 212.781 193.455C212.622 193.538 212.452 193.578 212.285 193.578Z" fill="white"/>
<path d="M209.76 188.565C209.369 188.565 208.992 188.346 208.8 187.966C208.526 187.423 208.734 186.755 209.264 186.475C211.621 185.228 213.363 183.115 214.168 180.525C214.974 177.935 214.749 175.179 213.531 172.764C213.257 172.22 213.466 171.552 213.995 171.272C214.526 170.993 215.177 171.204 215.451 171.748C218.508 177.819 216.178 185.307 210.255 188.442C210.097 188.525 209.927 188.565 209.76 188.565Z" fill="white"/>
<path d="M146.418 92.8751H140.918C140.63 92.8751 140.369 93.1164 140.339 93.4124L139.185 104.659C139.155 104.955 139.366 105.197 139.654 105.197H145.155C145.443 105.197 145.704 104.955 145.734 104.659L146.887 93.4124C146.917 93.1172 146.706 92.8751 146.418 92.8751Z" fill="#407BFF"/>
<path opacity="0.4" d="M145.924 92.8751H140.918C140.63 92.8751 140.369 93.1164 140.339 93.4124L139.185 104.659C139.155 104.955 139.366 105.197 139.654 105.197H144.66C144.948 105.197 145.209 104.955 145.239 104.659L146.393 93.4124C146.423 93.1172 146.212 92.8751 145.924 92.8751Z" fill="white"/>
<path d="M118.85 300.844C119.598 300.844 120.317 300.738 120.545 300.393C120.624 300.273 120.682 300.067 120.506 299.775C120.408 299.61 120.256 299.499 120.055 299.444C119.073 299.173 117.086 300.363 117.002 300.414C116.954 300.444 116.929 300.501 116.941 300.559C116.952 300.618 116.999 300.664 117.055 300.675C117.43 300.752 118.153 300.844 118.85 300.844ZM119.725 299.685C119.822 299.685 119.913 299.695 119.994 299.717C120.123 299.753 120.214 299.818 120.272 299.915C120.377 300.091 120.346 300.178 120.313 300.228C120.058 300.614 118.585 300.623 117.494 300.466C118.022 300.182 119.044 299.685 119.725 299.685Z" fill="#407BFF"/>
<path d="M117.082 300.679C117.102 300.679 117.12 300.674 117.138 300.666C117.828 300.342 119.167 299.05 119.032 298.375C119 298.216 118.882 298.018 118.5 297.979C118.216 297.95 117.963 298.032 117.745 298.222C117.03 298.846 116.942 300.456 116.938 300.525C116.935 300.575 116.96 300.624 117.001 300.653C117.025 300.669 117.053 300.679 117.082 300.679ZM118.401 298.256C118.428 298.256 118.456 298.257 118.484 298.26C118.734 298.286 118.754 298.387 118.76 298.42C118.841 298.825 117.937 299.841 117.238 300.283C117.293 299.813 117.459 298.85 117.93 298.441C118.071 298.317 118.226 298.256 118.401 298.256Z" fill="#407BFF"/>
<path d="M116.49 286.698H110.66V300.536H116.49V286.698Z" fill="#FF8B7B"/>
<path d="M68.3625 293.941L74.1859 294.587L77.9854 281.153L72.162 280.507L68.3625 293.941Z" fill="#FF8B7B"/>
<path d="M76.8953 295.948C77.6282 296.136 78.3576 296.217 78.6636 295.945C78.7709 295.849 78.8767 295.667 78.7752 295.342C78.719 295.16 78.5959 295.015 78.4123 294.911C77.5152 294.403 75.2817 295.041 75.1867 295.069C75.132 295.085 75.0938 295.133 75.0917 295.193C75.0895 295.252 75.1226 295.307 75.1759 295.333C75.5251 295.501 76.212 295.772 76.8953 295.948ZM78.0321 295.058C78.1272 295.083 78.2136 295.116 78.287 295.157C78.4051 295.224 78.4785 295.309 78.5124 295.418C78.5729 295.612 78.521 295.688 78.4764 295.728C78.1337 296.033 76.6879 295.669 75.6569 295.243C76.2437 295.104 77.3647 294.886 78.0321 295.058Z" fill="#407BFF"/>
<path d="M75.2019 295.342C75.2207 295.348 75.2401 295.348 75.2595 295.345C76.0134 295.209 77.637 294.308 77.6672 293.627C77.6744 293.467 77.606 293.248 77.2424 293.114C76.971 293.013 76.7031 293.028 76.4439 293.155C75.5929 293.573 75.1177 295.093 75.0983 295.157C75.0839 295.204 75.0954 295.258 75.1285 295.296C75.1487 295.32 75.1746 295.335 75.2019 295.342ZM77.079 293.354C77.1056 293.361 77.133 293.37 77.1596 293.379C77.3979 293.467 77.3936 293.568 77.3915 293.601C77.3735 294.01 76.2431 294.756 75.4511 295.002C75.6181 294.565 76.0134 293.685 76.5728 293.411C76.7406 293.329 76.9076 293.31 77.079 293.354Z" fill="#407BFF"/>
<path d="M74.4984 294.035L68.1286 292.161C67.8967 292.093 67.657 292.196 67.5511 292.411L65.2025 297.182C64.9591 297.678 65.2493 298.299 65.7871 298.447C68.0206 299.063 69.1322 299.249 71.9338 300.073C73.6574 300.58 77.1638 301.806 79.5434 302.505C81.8712 303.19 82.8079 300.915 81.8856 300.413C77.7499 298.161 76.4258 296.343 75.3336 294.659C75.137 294.354 74.8375 294.134 74.4984 294.035Z" fill="#263238"/>
<path d="M116.427 299.845H110.06C109.822 299.845 109.622 300.015 109.581 300.253L108.656 305.565C108.56 306.116 108.99 306.637 109.54 306.628C111.835 306.588 115.148 306.45 118.035 306.45C121.41 306.45 123.256 306.639 127.215 306.639C129.608 306.639 130.167 304.159 129.155 303.934C124.551 302.911 121.899 302.802 117.851 300.311C117.412 300.04 116.93 299.845 116.427 299.845Z" fill="#263238"/>
<path opacity="0.2" d="M116.487 286.701H110.655V293.835H116.487V286.701Z" fill="black"/>
<path opacity="0.2" d="M72.1599 280.511L77.9854 281.157L75.8751 288.609L70.1986 287.435L72.1599 280.511Z" fill="black"/>
<path d="M106.896 149.097C106.896 149.097 103.683 194.197 100.781 211.306C97.6024 230.043 79.1308 287.413 79.1308 287.413L68.5439 285.433C68.5439 285.433 81.8841 231.556 83.3623 213.005C84.9664 192.871 86.8967 151.369 86.8967 151.369L106.896 149.097Z" fill="#407BFF"/>
<path opacity="0.3" d="M101.474 167.825C102.056 165.34 103.38 168.462 104.918 173.874C103.754 187.262 102.231 202.768 100.78 211.309C100.453 213.222 99.9662 215.543 99.3607 218.167C99.895 199.065 99.9115 174.527 101.474 167.825Z" fill="black"/>
<path d="M117.891 147.848C117.891 147.848 122.123 193.207 122.266 211.431C122.415 230.387 118.604 292.453 118.604 292.453H108.727C108.727 292.453 105.764 231.494 104.53 212.878C103.185 192.583 97.5176 150.162 97.5176 150.162L117.891 147.848Z" fill="#407BFF"/>
<path d="M81.3637 283.762C81.409 283.77 79.7055 287.691 79.7055 287.691L67.7946 285.464L68.5174 281.816L81.3637 283.762Z" fill="#263238"/>
<path d="M120.332 288.421C120.378 288.421 119.954 292.624 119.954 292.624H107.94L107.455 288.873L120.332 288.421Z" fill="#263238"/>
<path d="M87.2057 107.423C86.4152 108.999 85.5454 110.649 84.7484 112.282L82.3299 117.194C81.5465 118.836 80.7797 120.479 80.0374 122.122C79.321 123.771 78.6176 125.411 77.9948 127.049L77.9408 124.462C78.3872 125.757 78.8293 127.08 79.4542 128.348C79.7357 128.994 80.09 129.613 80.4025 130.256C80.7589 130.877 81.1009 131.51 81.4918 132.12C82.2435 133.357 83.0729 134.568 83.9657 135.741C84.4143 136.326 84.8614 136.917 85.3366 137.484C85.801 138.036 86.3281 138.624 86.7485 139.103L86.8933 139.268C87.6593 140.143 87.5895 141.488 86.7363 142.273C86.0602 142.895 85.0925 142.977 84.3401 142.55C83.5165 142.081 82.8569 141.645 82.1607 141.145C81.4789 140.652 80.8057 140.147 80.1591 139.606C78.8645 138.526 77.6564 137.334 76.5173 136.053C75.3855 134.77 74.3185 133.397 73.3861 131.91C72.4213 130.446 71.617 128.848 70.8927 127.204C70.5701 126.472 70.5356 125.681 70.7386 124.967L70.8387 124.617C71.3881 122.692 72.0001 120.822 72.6769 118.992C73.3508 117.166 74.0722 115.372 74.8354 113.606C75.5936 111.838 76.4014 110.1 77.2402 108.38C78.1035 106.66 78.9322 104.978 79.9093 103.259C81.0706 101.216 83.6273 100.526 85.6196 101.716C87.5456 102.866 88.2397 105.352 87.2353 107.361L87.2057 107.423Z" fill="#FF8B7B"/>
<path d="M91.3414 104.81C91.6279 110.438 85.392 120.78 85.392 120.78L72.553 114.205C72.553 114.205 74.7432 107.072 79.6644 101.491C86.4612 93.7857 91.0757 99.5975 91.3414 104.81Z" fill="#263238"/>
<path d="M82.6395 141.5L85.2243 145.93L90.6027 142.402C90.6027 142.402 89.1735 139.585 86.4217 138.545C85.6038 138.236 84.6764 138.634 84.2343 139.481L82.6395 141.5Z" fill="#FF8B7B"/>
<path d="M87.3815 147.815L89.8806 147.335C90.7655 147.165 91.3458 146.289 91.173 145.383L90.6028 142.402L85.2244 145.93L85.5887 146.822C85.8832 147.545 86.6305 147.959 87.3815 147.815Z" fill="#FF8B7B"/>
<path d="M102.546 76.5011C102.602 76.9845 102.895 77.3557 103.198 77.3313C103.502 77.3062 103.703 76.8952 103.646 76.4118C103.59 75.9284 103.298 75.5572 102.994 75.5815C102.691 75.6059 102.49 76.0177 102.546 76.5011Z" fill="#263238"/>
<path d="M102.852 77.3593C102.852 77.3593 104.234 80.0604 105.554 81.3106C104.825 82.1748 103.384 81.9239 103.384 81.9239L102.852 77.3593Z" fill="#FF5652"/>
<path d="M100.531 73.9564C100.606 73.966 100.681 73.9446 100.74 73.8915C101.632 73.0797 102.597 73.3527 102.637 73.3638C102.786 73.4066 102.933 73.321 102.97 73.1712C103.007 73.0206 102.918 72.8634 102.771 72.8184C102.721 72.8022 101.485 72.4406 100.367 73.4575C100.255 73.5586 100.249 73.7387 100.351 73.8583C100.4 73.9143 100.465 73.9483 100.531 73.9564Z" fill="#263238"/>
<path d="M88.035 81.8456C89.4117 86.1142 91.2398 93.9953 88.629 97.1481C88.629 97.1481 90.3426 101.451 98.2403 100.769C106.924 100.019 101.839 96.0079 101.839 96.0079C96.9544 95.261 96.6268 91.6596 97.03 88.2161L88.035 81.8456Z" fill="#FF8B7B"/>
<path d="M86.7694 98.7097C85.9508 97.3739 85.0443 95.844 86.5858 95.275C88.2821 94.6492 97.7811 93.63 101.164 94.4831C104.548 95.3363 103.862 98.1599 103.862 98.1599L86.7694 98.7097Z" fill="#407BFF"/>
<path d="M114.595 100.508C115.834 101.676 117.174 102.963 118.504 104.147C119.835 105.357 121.185 106.538 122.538 107.705C123.901 108.853 125.275 109.971 126.662 111.04C128.06 112.079 129.46 113.081 130.877 113.96L127.988 113.684C129.056 113.408 130.208 112.88 131.333 112.094C132.455 111.31 133.577 110.341 134.623 109.231C135.688 108.137 136.689 106.911 137.656 105.635C138.136 104.994 138.62 104.345 139.074 103.674C139.519 103.015 139.984 102.295 140.381 101.678L140.46 101.556C141.092 100.573 142.382 100.302 143.341 100.95C144.121 101.477 144.44 102.452 144.193 103.325C143.921 104.284 143.636 105.103 143.3 105.965C142.97 106.814 142.627 107.661 142.235 108.488C141.452 110.144 140.551 111.76 139.48 113.318C138.401 114.864 137.173 116.377 135.662 117.725C134.161 119.071 132.364 120.291 130.231 121.061C129.327 121.388 128.38 121.304 127.581 120.906L127.342 120.785C125.515 119.865 123.793 118.855 122.146 117.769C120.505 116.684 118.927 115.538 117.397 114.347C115.869 113.157 114.393 111.914 112.953 110.634C111.516 109.324 110.131 108.066 108.728 106.6C107.114 104.911 107.141 102.201 108.788 100.547C110.38 98.9488 112.903 98.9207 114.528 100.445L114.595 100.508Z" fill="#FF8B7B"/>
<path d="M110.2 96.6831C110.2 96.6831 117.454 103.903 118.293 148.548C106.693 151.429 95.5218 152.492 86.8976 151.369C86.4836 145.768 85.8759 126.332 80.3298 105.835C79.3412 102.181 81.5847 98.4447 85.2171 97.7259C86.3202 97.5074 87.4787 97.306 88.6299 97.1488C92.5763 96.6108 98.3082 95.9849 101.839 96.0093C106.494 96.0403 110.2 96.6831 110.2 96.6831Z" fill="#263238"/>
<path d="M104.564 104.456C105.26 110.047 114.61 120.78 114.61 120.78L125.722 108.976C125.722 108.976 120.917 103.677 115.047 99.1621C106.94 92.9289 103.919 99.2787 104.564 104.456Z" fill="#263238"/>
<path d="M143.513 105.282L147.226 101.796L142.772 97.1061C142.772 97.1061 140.368 99.1083 139.927 102.08C139.796 102.964 140.364 103.814 141.262 104.088L143.513 105.282Z" fill="#FF8B7B"/>
<path d="M148.594 99.2507L147.632 96.8382C147.292 95.9836 146.338 95.5777 145.507 95.9334L142.773 97.1053L147.227 101.795L148.007 101.251C148.638 100.809 148.882 99.9754 148.594 99.2507Z" fill="#FF8B7B"/>
<path d="M86.9242 76.7365C87.9667 82.6412 88.2893 86.1394 91.5271 88.9504C96.3979 93.1791 103.127 89.8891 103.798 83.856C104.402 78.4258 102.596 69.6812 96.7327 67.7742C90.9569 65.8953 85.8816 70.8318 86.9242 76.7365Z" fill="#FF8B7B"/>
<path d="M98.2828 78.8752C100.307 79.3527 101.902 76.9549 102.092 76.2715C101.108 76.369 99.3621 75.8487 99.0129 75.3926C100.092 75.49 101.14 74.1232 101.267 73.6029C100.092 73.4406 98.7911 72.3985 98.4419 71.7151C100.188 71.6827 102.295 68.5262 100.368 65.6945C98.4419 62.8636 90.4096 65.2392 89.2663 63.2215C87.5836 64.2303 89.0755 65.5646 89.0755 65.5646C89.0755 65.5646 77.7095 67.7447 82.9483 72.2686C79.1071 72.6266 78.5671 77.2856 81.7732 79.6582C84.9801 82.0309 85.1385 83.5932 83.8684 83.3977C84.376 84.4065 86.6584 84.5364 86.7873 83.5608C87.3287 85.6109 88.8847 88.377 92.4724 87.9216C96.0602 87.4663 99.5839 82.3246 98.2828 78.8752Z" fill="#263238"/>
<path d="M83.9599 71.5882C81.2548 71.9697 80.0193 70.4037 80.6997 69.0258C77.346 70.7808 81.0079 74.6656 83.9599 71.5882Z" fill="#263238"/>
<path d="M95.477 77.9801C95.9399 79.2671 96.8932 80.366 97.8393 81.0147C99.262 81.9904 100.585 81.025 100.337 79.5144C100.113 78.155 99.1036 76.0089 97.6046 75.6258C96.1278 75.2487 94.9478 76.5085 95.477 77.9801Z" fill="#FF8B7B"/>
<path d="M278.485 285.988C273.156 273.101 271.003 257.963 277.103 258.572C283.359 259.196 282.622 282.043 283.64 284.552C281.684 286.271 278.485 285.988 278.485 285.988Z" fill="#407BFF"/>
<path d="M280.21 261.541C278.895 266.452 277.512 274.049 276.448 280.484C277.053 282.328 277.736 284.181 278.48 285.989C278.48 285.989 281.68 286.273 283.643 284.553C282.84 282.577 283.125 267.932 280.21 261.541Z" fill="#263238"/>
<path d="M280.235 283.628C278.571 256.246 283.138 230.869 295.099 232.015C305.381 233.001 290.39 279.098 290.679 284.416C285.97 286.288 280.235 283.628 280.235 283.628Z" fill="#407BFF"/>
<path d="M288.011 283.449C289.896 263.77 300.021 240.805 304.373 248.477C309.898 258.216 295.745 281.421 295.354 285.239C291.794 286.016 288.011 283.449 288.011 283.449Z" fill="#407BFF"/>
<path d="M286.104 239.323C284.892 239.119 284.215 238.342 284.291 237.243C284.378 236.007 285.371 234.775 286.296 234.756C286.736 234.76 287.487 234.99 287.673 236.702L286.957 236.784C286.87 235.975 286.631 235.494 286.316 235.494C286.314 235.494 286.312 235.494 286.309 235.494C285.818 235.504 285.071 236.414 285.009 237.296C284.959 238.015 285.366 238.451 286.22 238.595L286.104 239.323Z" fill="#407BFF"/>
<path d="M299.038 244.288C298.675 244.288 298.195 244.143 297.566 243.72L297.96 243.103C298.63 243.55 299.146 243.668 299.343 243.412C299.649 243.018 299.441 241.848 298.816 241.238C298.307 240.74 297.72 240.784 297.067 241.367L296.594 240.811C297.519 239.984 298.537 239.944 299.313 240.704C300.188 241.56 300.482 243.129 299.906 243.871C299.758 244.065 299.488 244.288 299.038 244.288Z" fill="#407BFF"/>
<path d="M281.387 255.424C280.414 255.424 279.724 254.904 279.504 253.975C279.217 252.771 279.794 251.288 280.669 250.98C281.08 250.837 281.872 250.828 282.561 252.4L281.904 252.703C281.577 251.955 281.206 251.573 280.902 251.677C280.437 251.841 279.998 252.941 280.203 253.801C280.368 254.5 280.889 254.786 281.743 254.658L281.849 255.387C281.689 255.412 281.535 255.424 281.387 255.424Z" fill="#407BFF"/>
<path d="M273.725 270.709C272.987 270.709 272.398 270.326 272.075 269.604C271.571 268.477 271.864 266.907 272.665 266.435C273.043 266.214 273.819 266.052 274.786 267.463L274.197 267.887C273.737 267.217 273.298 266.913 273.024 267.075C272.598 267.326 272.37 268.491 272.729 269.296C273.023 269.952 273.585 270.132 274.4 269.838L274.639 270.534C274.317 270.65 274.009 270.709 273.725 270.709Z" fill="#407BFF"/>
<path d="M286.479 248.426C286.407 248.426 286.334 248.404 286.27 248.358C285.28 247.633 284.925 246.631 285.319 245.678C285.735 244.673 286.865 244.004 287.836 244.187C288.28 244.27 289.321 244.677 289.394 246.641C289.401 246.844 289.246 247.016 289.047 247.024C288.854 247.03 288.682 246.872 288.674 246.669C288.636 245.647 288.293 245.023 287.705 244.913C287.07 244.794 286.264 245.285 285.981 245.967C285.721 246.598 285.972 247.233 286.688 247.758C286.85 247.876 286.887 248.107 286.772 248.273C286.702 248.373 286.591 248.426 286.479 248.426Z" fill="white"/>
<path d="M295.015 268.345C294.849 268.345 294.699 268.225 294.664 268.051C294.623 267.852 294.748 267.656 294.943 267.615C295.92 267.407 296.463 266.955 296.471 266.343C296.481 265.681 295.873 264.949 295.169 264.777C294.524 264.619 293.951 264.978 293.565 265.79C293.478 265.974 293.261 266.048 293.084 265.96C292.905 265.87 292.83 265.65 292.918 265.467C293.451 264.345 294.351 263.818 295.337 264.059C296.374 264.313 297.206 265.341 297.191 266.354C297.185 266.817 296.967 267.937 295.09 268.336C295.065 268.343 295.04 268.345 295.015 268.345Z" fill="white"/>
<path d="M305.135 262.127C304.722 262.127 304.167 261.873 303.542 260.918L304.139 260.507C304.585 261.188 305.014 261.495 305.296 261.344C305.727 261.102 305.978 259.942 305.636 259.129C305.356 258.468 304.797 258.276 303.976 258.552L303.751 257.851C304.916 257.457 305.868 257.826 306.295 258.837C306.777 259.975 306.452 261.537 305.641 261.991C305.514 262.063 305.342 262.127 305.135 262.127Z" fill="#407BFF"/>
<path d="M302.991 290.679C302.991 286.577 301.526 282.83 299.109 279.948C299.609 279.862 300 279.433 300 278.898C300 278.3 299.524 277.811 298.94 277.811H274.834C274.251 277.811 273.774 278.301 273.774 278.898C273.774 279.436 274.168 279.866 274.671 279.95C272.249 282.831 270.783 286.578 270.783 290.679C270.783 297.009 274.265 302.506 279.371 305.275C278.998 305.477 278.739 305.874 278.739 306.334C278.739 306.995 279.266 307.535 279.91 307.535H293.866C294.51 307.535 295.037 306.995 295.037 306.334C295.037 305.874 294.779 305.477 294.407 305.276C299.512 302.508 302.991 297.01 302.991 290.679Z" fill="#263238"/>
</svg>
