<svg width="185" height="49" viewBox="0 0 185 49" fill="none" xmlns="http://www.w3.org/2000/svg">
<rect x="0.5" y="0.5" width="184" height="48" rx="11.5" stroke="white"/>
<path d="M77.6263 27L77.1763 25.55H74.7263L74.2863 27H73.1163L75.2663 20.32H76.6363L78.7862 27H77.6263ZM74.9763 24.72H76.9163L75.9463 21.57L74.9763 24.72ZM81.95 22.05C82.4967 22.05 82.9133 22.1933 83.2 22.48C83.4867 22.76 83.63 23.1467 83.63 23.64V27H82.59V23.64C82.59 23.3933 82.5033 23.1967 82.33 23.05C82.1633 22.9033 81.9467 22.83 81.68 22.83C81.4133 22.83 81.1967 22.9033 81.03 23.05C80.87 23.19 80.79 23.3867 80.79 23.64V27H79.7V22.1H80.79V22.54C81.0767 22.2133 81.4633 22.05 81.95 22.05ZM87.962 20.32H89.052V27H87.962V26.49C87.6754 26.8833 87.2587 27.08 86.712 27.08C86.1654 27.08 85.7487 26.94 85.462 26.66C85.1754 26.38 85.032 25.9933 85.032 25.5V23.64C85.032 23.1467 85.1754 22.76 85.462 22.48C85.7487 22.1933 86.162 22.05 86.702 22.05C87.2554 22.05 87.6754 22.25 87.962 22.65V20.32ZM87.872 25.5V23.64C87.872 23.3867 87.7887 23.19 87.622 23.05C87.462 22.9033 87.2454 22.83 86.972 22.83C86.712 22.83 86.4954 22.9033 86.322 23.05C86.1554 23.19 86.072 23.3867 86.072 23.64V25.5C86.072 25.7467 86.1554 25.9433 86.322 26.09C86.4954 26.23 86.7154 26.3 86.982 26.3C87.2487 26.3 87.462 26.23 87.622 26.09C87.7887 25.9433 87.872 25.7467 87.872 25.5ZM92.8517 22.12C93.0984 22.12 93.2984 22.1733 93.4517 22.28L93.2617 23.3C93.1217 23.2 92.9117 23.17 92.6317 23.21C92.3717 23.23 92.1484 23.3367 91.9617 23.53C91.7817 23.7167 91.6884 23.9567 91.6817 24.25V27H90.5917V22.1H91.6817V23.03C91.9617 22.4233 92.3517 22.12 92.8517 22.12ZM97.7705 26.6C97.3905 26.92 96.9039 27.08 96.3105 27.08C95.7172 27.08 95.2272 26.92 94.8405 26.6C94.4539 26.2733 94.2605 25.87 94.2605 25.39V23.73C94.2605 23.2633 94.4572 22.8667 94.8505 22.54C95.2505 22.2133 95.7372 22.05 96.3105 22.05C96.8839 22.05 97.3672 22.2133 97.7605 22.54C98.1539 22.86 98.3505 23.2567 98.3505 23.73V25.39C98.3505 25.87 98.1572 26.2733 97.7705 26.6ZM95.5605 25.97C95.7405 26.1367 95.9905 26.22 96.3105 26.22C96.6305 26.22 96.8772 26.1367 97.0505 25.97C97.2239 25.7967 97.3105 25.58 97.3105 25.32V23.8C97.3105 23.56 97.2172 23.3567 97.0305 23.19C96.8505 23.0167 96.6105 22.93 96.3105 22.93C96.0172 22.93 95.7739 23.0167 95.5805 23.19C95.3939 23.3567 95.3005 23.56 95.3005 23.8V25.32C95.3005 25.58 95.3872 25.7967 95.5605 25.97ZM100.579 21.46C100.392 21.46 100.232 21.3967 100.099 21.27C99.9719 21.1367 99.9086 20.9733 99.9086 20.78C99.9086 20.6 99.9719 20.4467 100.099 20.32C100.232 20.1867 100.392 20.12 100.579 20.12C100.759 20.12 100.915 20.1867 101.049 20.32C101.182 20.4467 101.249 20.6 101.249 20.78C101.249 20.9667 101.182 21.1267 101.049 21.26C100.915 21.3933 100.759 21.46 100.579 21.46ZM100.009 27V22.1H101.099V27H100.009ZM105.599 20.32H106.689V27H105.599V26.49C105.312 26.8833 104.895 27.08 104.349 27.08C103.802 27.08 103.385 26.94 103.099 26.66C102.812 26.38 102.669 25.9933 102.669 25.5V23.64C102.669 23.1467 102.812 22.76 103.099 22.48C103.385 22.1933 103.799 22.05 104.339 22.05C104.892 22.05 105.312 22.25 105.599 22.65V20.32ZM105.509 25.5V23.64C105.509 23.3867 105.425 23.19 105.259 23.05C105.099 22.9033 104.882 22.83 104.609 22.83C104.349 22.83 104.132 22.9033 103.959 23.05C103.792 23.19 103.709 23.3867 103.709 23.64V25.5C103.709 25.7467 103.792 25.9433 103.959 26.09C104.132 26.23 104.352 26.3 104.619 26.3C104.885 26.3 105.099 26.23 105.259 26.09C105.425 25.9433 105.509 25.7467 105.509 25.5ZM114.87 25.06C114.87 25.3467 114.946 25.57 115.1 25.73C115.26 25.8833 115.486 25.96 115.78 25.96V27C115.233 27 114.806 26.8133 114.5 26.44C114.333 26.7133 114.106 26.9 113.82 27C113.54 27.0933 113.253 27.0667 112.96 26.92L111.28 26.05L111.46 29.97L110.53 30L110.35 25.21L110.98 24.79L111.42 25.02L111.93 24.02C112.13 23.6333 112.426 23.38 112.82 23.26C113.213 23.1333 113.596 23.1667 113.97 23.36C114.256 23.5133 114.476 23.7433 114.63 24.05C114.783 24.35 114.863 24.6867 114.87 25.06ZM113.8 25.97C113.986 25.61 114.066 25.27 114.04 24.95C114.02 24.6233 113.886 24.3933 113.64 24.26C113.453 24.16 113.26 24.15 113.06 24.23C112.866 24.31 112.71 24.4667 112.59 24.7L112.22 25.43L113.46 26.07C113.613 26.1433 113.726 26.11 113.8 25.97ZM119.029 25.22C119.055 25.5 119.125 25.6933 119.239 25.8C119.352 25.9067 119.555 25.96 119.849 25.96V27C119.295 27 118.875 26.8467 118.589 26.54C118.262 26.8467 117.829 27 117.289 27H115.679V25.96H117.289C117.595 25.96 117.812 25.9067 117.939 25.8C118.065 25.6933 118.119 25.5267 118.099 25.3L117.989 24.07L118.919 23.98L119.029 25.21V25.22ZM115.849 28.47L116.539 27.78L117.219 28.47L116.539 29.15L115.849 28.47ZM117.669 28.47L118.359 27.78L119.049 28.47L118.359 29.15L117.669 28.47ZM122.191 21.21L121.501 21.89L120.811 21.21L121.501 20.52L122.191 21.21ZM124.011 21.21L123.321 21.89L122.641 21.21L123.321 20.52L124.011 21.21ZM124.171 25.96H124.751V27H124.171C123.564 27 122.937 26.8733 122.291 26.62C121.604 26.8733 120.931 27 120.271 27H119.751V25.96H120.271C120.504 25.96 120.754 25.94 121.021 25.9C120.641 25.5733 120.464 25.26 120.491 24.96L120.541 24.38C120.601 23.8667 120.824 23.4567 121.211 23.15C121.597 22.8367 122.041 22.7067 122.541 22.76C123.027 22.8133 123.417 23.04 123.711 23.44C124.004 23.8333 124.134 24.27 124.101 24.75L124.071 25.2C124.051 25.44 123.891 25.6833 123.591 25.93C123.771 25.95 123.964 25.96 124.171 25.96ZM121.411 25C121.451 25.0933 121.544 25.1967 121.691 25.31C121.837 25.4233 122.024 25.5267 122.251 25.62C122.791 25.44 123.091 25.2633 123.151 25.09L123.191 24.74C123.211 24.52 123.147 24.3133 123.001 24.12C122.861 23.9267 122.667 23.8133 122.421 23.78C122.181 23.7533 121.964 23.8167 121.771 23.97C121.584 24.1167 121.477 24.31 121.451 24.55L121.411 25ZM126.463 22.42L125.773 23.1L125.083 22.42L125.773 21.73L126.463 22.42ZM128.283 22.42L127.593 23.1L126.913 22.42L127.593 21.73L128.283 22.42ZM128.003 25.22C128.03 25.5 128.1 25.6933 128.213 25.8C128.326 25.9067 128.53 25.96 128.823 25.96V27C128.27 27 127.85 26.8467 127.563 26.54C127.236 26.8467 126.803 27 126.263 27H124.653V25.96H126.263C126.57 25.96 126.786 25.9067 126.913 25.8C127.04 25.6933 127.093 25.5267 127.073 25.3L126.963 24.07L127.893 23.98L128.003 25.21V25.22ZM135.575 25.05C135.649 25.3233 135.792 25.5433 136.005 25.71C136.219 25.8767 136.465 25.96 136.745 25.96V27C136.179 27 135.705 26.79 135.325 26.37C135.019 26.79 134.562 27 133.955 27C133.449 27 133.039 26.8067 132.725 26.42C132.419 26.8067 131.989 27 131.435 27C130.935 27 130.539 26.8067 130.245 26.42C129.925 26.8067 129.502 27 128.975 27H128.725V25.96H128.975C129.295 25.96 129.512 25.8933 129.625 25.76C129.739 25.6267 129.795 25.4567 129.795 25.25V24.02H130.665V25.25C130.665 25.3033 130.672 25.36 130.685 25.42C130.699 25.4733 130.725 25.5467 130.765 25.64C130.812 25.7333 130.892 25.81 131.005 25.87C131.119 25.93 131.262 25.96 131.435 25.96C131.755 25.96 131.969 25.8967 132.075 25.77C132.189 25.6367 132.245 25.4633 132.245 25.25V24.02H133.115V25.25V25.26C133.115 25.2867 133.119 25.32 133.125 25.36C133.132 25.4 133.149 25.46 133.175 25.54C133.209 25.6133 133.249 25.68 133.295 25.74C133.349 25.7933 133.425 25.8433 133.525 25.89C133.632 25.93 133.755 25.95 133.895 25.95C134.242 25.95 134.479 25.88 134.605 25.74C134.732 25.6 134.769 25.43 134.715 25.23L134.385 24L135.225 23.75L135.555 24.98C135.555 24.9867 135.559 25 135.565 25.02C135.572 25.0333 135.575 25.0433 135.575 25.05ZM140.445 23.37C140.905 23.6167 141.189 24.0367 141.295 24.63C141.409 25.2233 141.312 25.8133 141.005 26.4C140.852 26.68 140.629 26.8733 140.335 26.98C140.042 27.0867 139.739 27.0667 139.425 26.92L138.195 26.29C137.829 26.7633 137.349 27 136.755 27H136.645V25.96H136.755C137.182 25.96 137.482 25.79 137.655 25.45L138.395 24.04C138.602 23.6467 138.899 23.3867 139.285 23.26C139.679 23.1267 140.065 23.1633 140.445 23.37ZM140.265 25.98C140.452 25.6267 140.535 25.2867 140.515 24.96C140.495 24.6267 140.362 24.3933 140.115 24.26C139.929 24.16 139.735 24.15 139.535 24.23C139.342 24.31 139.185 24.4667 139.065 24.7L138.685 25.44L139.935 26.08C140.082 26.1533 140.192 26.12 140.265 25.98ZM146.643 27C146.137 27 145.73 26.89 145.423 26.67C145.123 26.45 144.96 26.1667 144.933 25.82L144.893 25.17H145.753C145.753 25.3567 145.763 25.5133 145.783 25.64C145.823 25.8533 146.057 25.96 146.483 25.96H147.313C148.027 25.96 148.31 25.7 148.163 25.18C148.063 24.8733 147.883 24.49 147.623 24.03C147.363 23.57 147.13 23.1867 146.923 22.88L146.603 22.43L147.353 21.82C147.46 21.96 147.593 22.1467 147.753 22.38C147.913 22.6133 148.147 23.01 148.453 23.57C148.767 24.1233 148.97 24.5833 149.063 24.95C149.203 25.53 149.113 26.0167 148.793 26.41C148.48 26.8033 147.947 27 147.193 27H146.643ZM154.665 25.96V27H154.175C154.195 27.3333 154.165 27.62 154.085 27.86C154.012 28.1067 153.898 28.3133 153.745 28.48C153.598 28.6467 153.372 28.7967 153.065 28.93C152.765 29.0633 152.448 29.1733 152.115 29.26C151.788 29.3533 151.352 29.4567 150.805 29.57L150.615 28.56C151.802 28.3067 152.545 28.1 152.845 27.94C153.145 27.78 153.275 27.4667 153.235 27H152.005C151.498 27 151.088 26.85 150.775 26.55C150.462 26.25 150.285 25.8433 150.245 25.33C150.198 24.7633 150.338 24.2567 150.665 23.81C150.998 23.3567 151.435 23.1167 151.975 23.09C152.515 23.0633 152.965 23.25 153.325 23.65C153.692 24.0433 153.912 24.57 153.985 25.23L154.065 25.96H154.665ZM151.175 25.25C151.215 25.7233 151.492 25.96 152.005 25.96H153.125L153.055 25.35C153.015 24.95 152.902 24.6433 152.715 24.43C152.535 24.2167 152.305 24.1167 152.025 24.13C151.745 24.1367 151.525 24.2533 151.365 24.48C151.212 24.7 151.148 24.9567 151.175 25.25ZM157.355 25.96H157.555V27H157.355C156.842 27 156.429 26.8267 156.115 26.48C155.789 26.8267 155.349 27 154.795 27H154.545V25.96H154.795C155.115 25.96 155.332 25.8933 155.445 25.76C155.565 25.6267 155.622 25.46 155.615 25.26L155.425 20.32L156.345 20.27L156.535 25.16C156.562 25.6933 156.835 25.96 157.355 25.96ZM159.119 22.42L158.339 21.64L159.119 20.87L159.889 21.64L159.119 22.42ZM157.759 27V25.96H158.549C158.942 25.96 159.225 25.8767 159.399 25.71C159.572 25.5367 159.602 25.2367 159.489 24.81L159.089 23.32L159.989 23.06L160.389 24.55C160.589 25.3033 160.502 25.9 160.129 26.34C159.755 26.78 159.229 27 158.549 27H157.759ZM162.042 27.03L161.782 20.32L162.712 20.27L162.962 26.99L162.042 27.03ZM166.018 27C165.512 27 165.105 26.89 164.798 26.67C164.498 26.45 164.335 26.1667 164.308 25.82L164.268 25.17H165.128C165.128 25.3567 165.138 25.5133 165.158 25.64C165.198 25.8533 165.432 25.96 165.858 25.96H166.688C167.402 25.96 167.685 25.7 167.538 25.18C167.438 24.8733 167.258 24.49 166.998 24.03C166.738 23.57 166.505 23.1867 166.298 22.88L165.978 22.43L166.728 21.82C166.835 21.96 166.968 22.1467 167.128 22.38C167.288 22.6133 167.522 23.01 167.828 23.57C168.142 24.1233 168.345 24.5833 168.438 24.95C168.578 25.53 168.488 26.0167 168.168 26.41C167.855 26.8033 167.322 27 166.568 27H166.018Z" fill="white"/>
<path d="M21.0133 17.6903C20.3938 17.6903 19.8681 17.9064 19.436 18.3384C19.004 18.7705 18.7878 19.289 18.7878 19.8942V29.1857C18.7878 29.806 19.0039 30.3312 19.436 30.7634C19.8681 31.1954 20.3938 31.4116 21.0133 31.4116C21.6324 31.4116 22.1548 31.1955 22.5802 30.7634C23.0048 30.3313 23.2176 29.806 23.2176 29.1857V19.8942C23.2176 19.289 23.0016 18.7705 22.5694 18.3384C22.1373 17.9064 21.6185 17.6903 21.0133 17.6903ZM38.9053 9.34931L40.4395 6.51909C40.5402 6.33171 40.5044 6.18803 40.3317 6.087C40.1442 5.99988 40.0002 6.04402 39.8996 6.21631L38.3439 9.06916C36.975 8.46394 35.5272 8.16078 34.0005 8.16078C32.4734 8.16078 31.0255 8.464 29.6571 9.06916L28.1014 6.21631C28.0003 6.04402 27.8562 6.00027 27.6693 6.087C27.4962 6.18849 27.4604 6.33171 27.5615 6.51909L29.0958 9.34931C27.54 10.1427 26.301 11.2476 25.3791 12.6665C24.4571 14.0862 23.996 15.6375 23.996 17.3234H43.9832C43.9832 15.6379 43.522 14.0865 42.6002 12.6665C41.6782 11.2476 40.4463 10.1427 38.9053 9.34931ZM30.0351 13.4659C29.8692 13.6322 29.671 13.715 29.4407 13.715C29.2099 13.715 29.0157 13.6322 28.8573 13.4659C28.699 13.3004 28.6198 13.103 28.6198 12.8719C28.6198 12.6415 28.699 12.4438 28.8573 12.2778C29.0157 12.1123 29.2103 12.0295 29.4407 12.0295C29.671 12.0295 29.8692 12.1123 30.0351 12.2778C30.2006 12.4441 30.2838 12.6415 30.2838 12.8719C30.2833 13.1026 30.2002 13.3004 30.0351 13.4659ZM39.1428 13.4659C38.9841 13.6322 38.7895 13.715 38.5595 13.715C38.3286 13.715 38.1305 13.6322 37.9649 13.4659C37.7991 13.3004 37.7163 13.103 37.7163 12.8719C37.7163 12.6415 37.7991 12.4438 37.9649 12.2778C38.1305 12.1123 38.3286 12.0295 38.5595 12.0295C38.7899 12.0295 38.984 12.1123 39.1428 12.2778C39.3013 12.4441 39.3803 12.6415 39.3803 12.8719C39.3803 13.1026 39.3012 13.3004 39.1428 13.4659ZM24.0818 32.4918C24.0818 33.1551 24.3122 33.7165 24.7729 34.1773C25.2341 34.638 25.7955 34.8684 26.4584 34.8684H28.0575L28.0794 39.774C28.0794 40.3935 28.2954 40.9195 28.7275 41.3517C29.1596 41.7838 29.6785 41.9999 30.2832 41.9999C30.9024 41.9999 31.4284 41.7838 31.8605 41.3517C32.2927 40.9195 32.5087 40.3935 32.5087 39.774V34.8688H35.4905V39.774C35.4905 40.3935 35.7065 40.9195 36.1387 41.3517C36.5708 41.7838 37.0963 41.9999 37.7159 41.9999C38.3351 41.9999 38.861 41.7838 39.2932 41.3517C39.7253 40.9195 39.9413 40.3935 39.9413 39.774V34.8688H41.562C42.2102 34.8688 42.7644 34.6384 43.226 34.1777C43.6867 33.7169 43.9172 33.1554 43.9172 32.4922V18.1005H24.0818V32.4918ZM46.9868 17.6903C46.3816 17.6903 45.8631 17.9032 45.431 18.3277C44.9989 18.753 44.7829 19.2755 44.7829 19.8942V29.1857C44.7829 29.806 44.9988 30.3312 45.431 30.7634C45.8631 31.1955 46.382 31.4116 46.9868 31.4116C47.6059 31.4116 48.1319 31.1955 48.5641 30.7634C48.9962 30.3312 49.2122 29.806 49.2122 29.1857V19.8942C49.2122 19.2754 48.9962 18.753 48.5641 18.3277C48.1319 17.9032 47.6059 17.6903 46.9868 17.6903Z" fill="white"/>
</svg>
