<svg width="185" height="48" viewBox="0 0 185 48" fill="none" xmlns="http://www.w3.org/2000/svg">
<rect x="0.5" y="0.5" width="184" height="47" rx="11.5" stroke="white"/>
<g clip-path="url(#clip0_89_1290)">
<path fill-rule="evenodd" clip-rule="evenodd" d="M30.4946 38.0001H30.7535V37.9897C30.6672 37.9897 30.5809 38.0001 30.4946 38.0001Z" fill="white"/>
<path fill-rule="evenodd" clip-rule="evenodd" d="M44.6225 18.1915C42.4332 16.9729 38.939 16.7354 37.5586 16.694C37.2135 16.6837 36.9223 16.4565 36.8252 16.1363C36.3399 14.3703 34.4849 8.91733 30.4946 8.99995C26.5151 8.91733 24.6601 14.3703 24.164 16.1363C24.0777 16.4565 23.7865 16.6837 23.4414 16.694C22.061 16.7354 18.5668 16.9729 16.3775 18.1915C16.1402 18.3258 16 18.5737 16 18.8422C16.0216 21.6616 16.7118 37.5352 30.2358 37.9896C30.3221 37.9896 30.4083 37.9999 30.4946 37.9999C30.5809 37.9999 30.6672 37.9896 30.7534 37.9896C44.2882 37.5352 44.9784 21.6616 45 18.8422C45 18.5737 44.8598 18.3258 44.6225 18.1915ZM32.9751 16.4358H28.0249C27.4641 16.4358 27.0866 15.8885 27.2916 15.3928C28.8338 11.7574 29.8152 11.5096 30.473 11.4786C30.4838 11.4786 30.4838 11.4786 30.4946 11.4786C30.5054 11.4786 30.5054 11.4786 30.5162 11.4786C31.1848 11.5096 32.177 11.7574 33.7084 15.3928C33.9134 15.8885 33.5251 16.4358 32.9751 16.4358Z" fill="url(#paint0_linear_89_1290)"/>
<path fill-rule="evenodd" clip-rule="evenodd" d="M30.2358 37.9897L30.4946 38.0001C30.4083 38.0001 30.3221 37.9897 30.2358 37.9897Z" fill="white"/>
</g>
<path d="M132.366 23.06L131.596 22.29L132.366 21.51L133.146 22.29L132.366 23.06ZM130.666 29.56L130.426 28.56C131.212 28.3467 131.706 28.1833 131.906 28.07C132.286 27.8633 132.466 27.5433 132.446 27.11C132.439 27.0633 132.432 27.01 132.426 26.95L132.026 24.07L132.946 23.93L133.336 26.83C133.382 27.1767 133.372 27.4833 133.306 27.75C133.239 28.0167 133.136 28.2367 132.996 28.41C132.862 28.59 132.666 28.7533 132.406 28.9C132.146 29.0533 131.889 29.1733 131.636 29.26C131.382 29.3533 131.059 29.4533 130.666 29.56ZM134.913 27.03L134.653 20.32L135.583 20.27L135.833 26.99L134.913 27.03ZM143.783 22.98L143.093 23.66L142.403 22.98L143.093 22.29L143.783 22.98ZM145.603 22.98L144.913 23.66L144.233 22.98L144.913 22.29L145.603 22.98ZM148.113 25.22C148.14 25.5 148.21 25.6933 148.323 25.8C148.437 25.9067 148.64 25.96 148.933 25.96V27C148.38 27 147.96 26.8467 147.673 26.54C147.347 26.8467 146.913 27 146.373 27H143.963C142.857 27 142.11 26.9833 141.723 26.95C141.343 26.91 141.023 26.8367 140.763 26.73C140.35 26.5433 140.067 26.2533 139.913 25.86C139.76 25.4667 139.75 25.0167 139.883 24.51L140.253 23.08L141.143 23.34L140.763 24.81C140.697 25.07 140.69 25.2767 140.743 25.43C140.803 25.5767 140.933 25.6933 141.133 25.78C141.293 25.8467 141.54 25.8933 141.873 25.92C142.213 25.9467 142.91 25.96 143.963 25.96H146.373C146.673 25.96 146.887 25.91 147.013 25.81C147.147 25.7033 147.207 25.54 147.193 25.32V25.3L147.083 24.07L148.003 23.98L148.113 25.21V25.22ZM151.863 20.06L151.083 20.83L150.313 20.06L151.083 19.28L151.863 20.06ZM153.073 25.12C153.133 25.8 153.006 26.2833 152.693 26.57C152.386 26.8567 151.759 27 150.813 27H148.833V25.96H150.833C151.453 25.96 151.843 25.9167 152.003 25.83C152.163 25.7367 152.226 25.5367 152.193 25.23C151.786 25.2767 151.393 25.3 151.013 25.3C150.519 25.3 150.119 25.1567 149.813 24.87C149.513 24.5833 149.359 24.1967 149.353 23.71C149.339 23.1433 149.476 22.6567 149.763 22.25C150.049 21.8433 150.459 21.6233 150.993 21.59C151.526 21.5567 151.973 21.73 152.333 22.11C152.699 22.4833 152.909 22.99 152.963 23.63L153.073 25.12ZM150.193 23.64C150.206 23.86 150.286 24.0333 150.433 24.16C150.579 24.28 150.773 24.34 151.013 24.34C151.439 24.34 151.806 24.3133 152.113 24.26L152.063 23.71C152.016 23.3233 151.903 23.0267 151.723 22.82C151.543 22.6133 151.313 22.5133 151.033 22.52C150.753 22.5333 150.536 22.65 150.383 22.87C150.236 23.09 150.173 23.3467 150.193 23.64ZM156.3 27C155.64 27 155.176 26.8467 154.91 26.54C154.643 26.2333 154.493 25.6933 154.46 24.92L154.28 20.32L155.21 20.28L155.39 24.92C155.403 25.3733 155.46 25.66 155.56 25.78C155.666 25.9 155.913 25.96 156.3 25.96H156.4V27H156.3ZM156.304 27V25.96H157.784C158.17 25.96 158.45 25.8767 158.624 25.71C158.797 25.5367 158.827 25.2367 158.714 24.81L158.324 23.32L159.224 23.06L159.624 24.6C159.824 25.3333 159.734 25.9167 159.354 26.35C158.98 26.7833 158.457 27 157.784 27H156.304ZM156.444 29.14L155.764 28.46L156.444 27.77L157.134 28.46L156.444 29.14ZM158.274 29.14L157.584 28.46L158.274 27.77L158.964 28.46L158.274 29.14ZM160.461 29.56L160.221 28.56C161.007 28.3467 161.501 28.1833 161.701 28.07C162.081 27.8633 162.261 27.5433 162.241 27.11C162.234 27.0633 162.227 27.01 162.221 26.95L161.821 24.07L162.741 23.93L163.131 26.83C163.177 27.1767 163.167 27.4833 163.101 27.75C163.034 28.0167 162.931 28.2367 162.791 28.41C162.657 28.59 162.461 28.7533 162.201 28.9C161.941 29.0533 161.684 29.1733 161.431 29.26C161.177 29.3533 160.854 29.4533 160.461 29.56ZM166.018 27C165.512 27 165.105 26.89 164.798 26.67C164.498 26.45 164.335 26.1667 164.308 25.82L164.268 25.17H165.128C165.128 25.3567 165.138 25.5133 165.158 25.64C165.198 25.8533 165.432 25.96 165.858 25.96H166.688C167.402 25.96 167.685 25.7 167.538 25.18C167.438 24.8733 167.258 24.49 166.998 24.03C166.738 23.57 166.505 23.1867 166.298 22.88L165.978 22.43L166.728 21.82C166.835 21.96 166.968 22.1467 167.128 22.38C167.288 22.6133 167.522 23.01 167.828 23.57C168.142 24.1233 168.345 24.5833 168.438 24.95C168.578 25.53 168.488 26.0167 168.168 26.41C167.855 26.8033 167.322 27 166.568 27H166.018Z" fill="white"/>
<path d="M71.2348 27.9096C70.0342 27.9096 69.0614 26.8937 69.0614 25.6399V14.2697C69.0614 13.016 70.0342 12 71.2348 12C72.4354 12 73.4082 13.016 73.4082 14.2697V25.6399C73.4082 26.8937 72.4354 27.9096 71.2348 27.9096Z" fill="white"/>
<path d="M63.6173 30.1793H58.1734C56.9729 30.1793 56 29.1633 56 27.9096C56 26.6558 56.9729 25.6399 58.1734 25.6399H62.5306V18.8199C62.5306 17.5662 63.5035 16.5502 64.7041 16.5502C65.9046 16.5502 66.8775 17.5662 66.8775 18.8199V26.7747C66.8775 28.6553 65.4182 30.1793 63.6173 30.1793Z" fill="white"/>
<path d="M76.6684 34.7295H71.2348C70.0342 34.7295 69.0614 33.7135 69.0614 32.4598C69.0614 31.206 70.0342 30.1901 71.2348 30.1901H75.592V23.3701C75.592 22.1164 76.5649 21.1004 77.7654 21.1004C78.966 21.1004 79.9389 22.1164 79.9389 23.3701V31.3141C79.9389 33.1947 78.4692 34.7295 76.6684 34.7295Z" fill="white"/>
<path d="M90.8266 30.18H85.4137C83.6025 30.18 82.1225 28.6344 82.1225 26.743V16.5401C82.1225 15.2863 83.0954 14.2703 84.2959 14.2703C85.4965 14.2703 86.4694 15.2863 86.4694 16.5401V25.6297H90.8266C92.0271 25.6297 93 26.6457 93 27.8994C93 29.164 92.0271 30.18 90.8266 30.18Z" fill="white"/>
<path fill-rule="evenodd" clip-rule="evenodd" d="M79.9389 16.5401C79.9389 17.7938 78.9661 18.8098 77.7655 18.8098C76.5649 18.8098 75.5921 17.7938 75.5921 16.5401C75.5921 15.2863 76.5649 14.2703 77.7655 14.2703C78.9661 14.2703 79.9389 15.2863 79.9389 16.5401Z" fill="white"/>
<path fill-rule="evenodd" clip-rule="evenodd" d="M86.4694 34.7303C86.4694 35.984 85.4965 37 84.2959 37C83.0954 37 82.1225 35.984 82.1225 34.7303C82.1225 33.4765 83.0954 32.4606 84.2959 32.4606C85.4965 32.4606 86.4694 33.4765 86.4694 34.7303Z" fill="white"/>
<defs>
<linearGradient id="paint0_linear_89_1290" x1="30.5" y1="8.99902" x2="30.5" y2="38" gradientUnits="userSpaceOnUse">
<stop stop-color="#97D700"/>
<stop offset="1" stop-color="#009A52"/>
</linearGradient>
<clipPath id="clip0_89_1290">
<rect width="29" height="29" fill="white" transform="translate(16 9)"/>
</clipPath>
</defs>
</svg>
