<svg width="185" height="49" viewBox="0 0 185 49" fill="none" xmlns="http://www.w3.org/2000/svg">
<rect x="0.5" y="0.5" width="184" height="48" rx="11.5" stroke="white"/>
<path d="M132.366 22.06L131.596 21.29L132.366 20.51L133.146 21.29L132.366 22.06ZM130.666 28.56L130.426 27.56C131.212 27.3467 131.706 27.1833 131.906 27.07C132.286 26.8633 132.466 26.5433 132.446 26.11C132.439 26.0633 132.432 26.01 132.426 25.95L132.026 23.07L132.946 22.93L133.336 25.83C133.382 26.1767 133.372 26.4833 133.306 26.75C133.239 27.0167 133.136 27.2367 132.996 27.41C132.862 27.59 132.666 27.7533 132.406 27.9C132.146 28.0533 131.889 28.1733 131.636 28.26C131.382 28.3533 131.059 28.4533 130.666 28.56ZM134.913 26.03L134.653 19.32L135.583 19.27L135.833 25.99L134.913 26.03ZM143.783 21.98L143.093 22.66L142.403 21.98L143.093 21.29L143.783 21.98ZM145.603 21.98L144.913 22.66L144.233 21.98L144.913 21.29L145.603 21.98ZM148.113 24.22C148.14 24.5 148.21 24.6933 148.323 24.8C148.437 24.9067 148.64 24.96 148.933 24.96V26C148.38 26 147.96 25.8467 147.673 25.54C147.347 25.8467 146.913 26 146.373 26H143.963C142.857 26 142.11 25.9833 141.723 25.95C141.343 25.91 141.023 25.8367 140.763 25.73C140.35 25.5433 140.067 25.2533 139.913 24.86C139.76 24.4667 139.75 24.0167 139.883 23.51L140.253 22.08L141.143 22.34L140.763 23.81C140.697 24.07 140.69 24.2767 140.743 24.43C140.803 24.5767 140.933 24.6933 141.133 24.78C141.293 24.8467 141.54 24.8933 141.873 24.92C142.213 24.9467 142.91 24.96 143.963 24.96H146.373C146.673 24.96 146.887 24.91 147.013 24.81C147.147 24.7033 147.207 24.54 147.193 24.32V24.3L147.083 23.07L148.003 22.98L148.113 24.21V24.22ZM151.863 19.06L151.083 19.83L150.313 19.06L151.083 18.28L151.863 19.06ZM153.073 24.12C153.133 24.8 153.006 25.2833 152.693 25.57C152.386 25.8567 151.759 26 150.813 26H148.833V24.96H150.833C151.453 24.96 151.843 24.9167 152.003 24.83C152.163 24.7367 152.226 24.5367 152.193 24.23C151.786 24.2767 151.393 24.3 151.013 24.3C150.519 24.3 150.119 24.1567 149.813 23.87C149.513 23.5833 149.359 23.1967 149.353 22.71C149.339 22.1433 149.476 21.6567 149.763 21.25C150.049 20.8433 150.459 20.6233 150.993 20.59C151.526 20.5567 151.973 20.73 152.333 21.11C152.699 21.4833 152.909 21.99 152.963 22.63L153.073 24.12ZM150.193 22.64C150.206 22.86 150.286 23.0333 150.433 23.16C150.579 23.28 150.773 23.34 151.013 23.34C151.439 23.34 151.806 23.3133 152.113 23.26L152.063 22.71C152.016 22.3233 151.903 22.0267 151.723 21.82C151.543 21.6133 151.313 21.5133 151.033 21.52C150.753 21.5333 150.536 21.65 150.383 21.87C150.236 22.09 150.173 22.3467 150.193 22.64ZM156.3 26C155.64 26 155.176 25.8467 154.91 25.54C154.643 25.2333 154.493 24.6933 154.46 23.92L154.28 19.32L155.21 19.28L155.39 23.92C155.403 24.3733 155.46 24.66 155.56 24.78C155.666 24.9 155.913 24.96 156.3 24.96H156.4V26H156.3ZM156.304 26V24.96H157.784C158.17 24.96 158.45 24.8767 158.624 24.71C158.797 24.5367 158.827 24.2367 158.714 23.81L158.324 22.32L159.224 22.06L159.624 23.6C159.824 24.3333 159.734 24.9167 159.354 25.35C158.98 25.7833 158.457 26 157.784 26H156.304ZM156.444 28.14L155.764 27.46L156.444 26.77L157.134 27.46L156.444 28.14ZM158.274 28.14L157.584 27.46L158.274 26.77L158.964 27.46L158.274 28.14ZM160.461 28.56L160.221 27.56C161.007 27.3467 161.501 27.1833 161.701 27.07C162.081 26.8633 162.261 26.5433 162.241 26.11C162.234 26.0633 162.227 26.01 162.221 25.95L161.821 23.07L162.741 22.93L163.131 25.83C163.177 26.1767 163.167 26.4833 163.101 26.75C163.034 27.0167 162.931 27.2367 162.791 27.41C162.657 27.59 162.461 27.7533 162.201 27.9C161.941 28.0533 161.684 28.1733 161.431 28.26C161.177 28.3533 160.854 28.4533 160.461 28.56ZM166.018 26C165.512 26 165.105 25.89 164.798 25.67C164.498 25.45 164.335 25.1667 164.308 24.82L164.268 24.17H165.128C165.128 24.3567 165.138 24.5133 165.158 24.64C165.198 24.8533 165.432 24.96 165.858 24.96H166.688C167.402 24.96 167.685 24.7 167.538 24.18C167.438 23.8733 167.258 23.49 166.998 23.03C166.738 22.57 166.505 22.1867 166.298 21.88L165.978 21.43L166.728 20.82C166.835 20.96 166.968 21.1467 167.128 21.38C167.288 21.6133 167.522 22.01 167.828 22.57C168.142 23.1233 168.345 23.5833 168.438 23.95C168.578 24.53 168.488 25.0167 168.168 25.41C167.855 25.8033 167.322 26 166.568 26H166.018Z" fill="white"/>
<path d="M58.8986 24.3514C59.3642 24.3514 59.7633 24.184 60.0959 23.8491C60.1957 23.7487 60.2789 23.6315 60.3454 23.531C60.4119 23.6482 60.495 23.7487 60.5782 23.8491C60.9108 24.184 61.2933 24.3514 61.7589 24.3514C62.2245 24.3514 62.6236 24.184 62.9396 23.8491C63.2722 23.5143 63.4219 23.1125 63.4219 22.6438C63.4219 22.175 63.2556 21.7732 62.9396 21.4552C62.6236 21.1371 62.2245 20.9697 61.7589 20.9697C61.2933 20.9697 60.8942 21.1371 60.5782 21.4552C60.4784 21.5556 60.3953 21.656 60.3454 21.7732C60.2789 21.656 60.1957 21.5556 60.0959 21.4552C59.7633 21.1203 59.3642 20.9697 58.8986 20.9697C58.4496 20.9697 58.0338 21.1371 57.7179 21.4719C57.4019 21.8067 57.219 22.1918 57.219 22.6605C57.219 23.1293 57.3853 23.5311 57.7012 23.8659C58.0338 24.184 58.433 24.3514 58.8986 24.3514Z" fill="white"/>
<path d="M93.0393 21.4716C92.6402 21.4716 92.3076 21.6055 92.0582 21.9069C91.7921 22.1915 91.6591 22.543 91.6591 22.9448C91.6591 23.2294 91.7422 23.6647 91.8753 24.2339C92.0083 24.7863 92.0914 25.2216 92.0914 25.5229C92.0914 26.5442 91.3597 27.0631 89.913 27.0631H89.3974H88.566H88.2167C86.9196 27.0631 85.689 26.4939 84.5083 25.3555C83.128 23.9828 82.2134 23.062 81.7311 22.5765C80.0349 20.9192 78.5881 19.6134 77.3742 18.6089C77.1746 18.4415 77.0748 18.2573 77.0748 18.0564C77.0748 17.8555 77.2079 17.7049 77.4407 17.6044C79.8686 16.6502 82.4795 15.8466 85.24 15.2104C86.1048 15.0263 86.5205 14.5575 86.5205 13.8377C86.5205 12.8834 85.9717 12.3979 84.8575 12.3979C84.6746 12.3979 84.4418 12.4314 84.1923 12.4817C80.1347 13.4359 77.1746 14.5073 75.2788 15.6625C74.4307 16.1814 74.015 17.0352 74.015 18.2071C74.015 18.7763 74.0981 19.2283 74.2977 19.5799C74.6303 20.1658 75.7112 21.2707 77.5571 22.8611C79.2034 24.2841 80.0183 25.2551 80.0183 25.7573C80.0183 26.4437 79.3198 26.8455 77.9229 26.9962C77.6236 27.0296 76.4928 27.0296 74.5139 27.0296H74.0981H73.6158C72.3021 27.0296 71.5538 26.4939 71.3376 25.4225C71.2212 24.8198 71.1546 24.4515 71.1214 24.3009C70.9385 23.8656 70.6059 23.648 70.107 23.648C69.658 23.648 69.2921 23.9325 69.0427 24.5185C68.6269 25.456 68.3775 26.0084 68.2445 26.1591C67.3797 27.264 65.0848 27.8165 61.3764 27.8165H59.5804C57.0527 27.8165 55.3232 27.5319 54.3919 26.9292C53.76 26.5274 53.444 25.908 53.444 25.0877C53.444 24.8533 53.4939 24.485 53.5937 24.0163C53.6935 23.5308 53.7433 23.1792 53.7433 22.9448C53.7433 22.225 53.3941 21.8734 52.679 21.8734C52.0139 21.8734 51.4817 22.4593 51.1325 23.6312C50.883 24.4515 50.75 25.3053 50.75 26.1926C50.75 29.6078 53.6436 31.3154 59.4307 31.3154C64.985 31.3154 68.444 30.4448 69.7411 28.687C70.3065 29.8924 71.4207 30.495 73.0671 30.495H73.2334H74.0815H74.1147C76.6258 30.495 78.3886 30.3444 79.4196 30.0263C80.9994 29.5408 81.964 28.5363 82.3298 27.0296C83.9595 29.3399 85.9883 30.495 88.3997 30.495H88.5493H89.3808H89.7134C91.3431 30.495 92.607 30.0096 93.5382 29.0553C94.4695 28.1011 94.9185 26.7953 94.9185 25.1379C94.9019 22.6937 94.2866 21.4716 93.0393 21.4716Z" fill="white"/>
<path d="M90.628 32.3191C90.179 32.3191 89.7632 32.4865 89.4472 32.8213C89.2311 33.039 89.098 33.2901 89.0149 33.5579C88.9317 33.2733 88.7987 33.039 88.5825 32.8213C88.2499 32.4865 87.8674 32.3191 87.4018 32.3191C86.9362 32.3191 86.5371 32.4865 86.2045 32.8046C85.8719 33.1227 85.7056 33.5244 85.7056 33.9932C85.7056 34.4619 85.8719 34.8637 86.2045 35.1986C86.5371 35.5334 86.9362 35.7008 87.4018 35.7008C87.8674 35.7008 88.2665 35.5334 88.5825 35.1986C88.7987 34.9809 88.9151 34.7298 88.9982 34.4452C89.0814 34.7298 89.1978 34.9809 89.414 35.1986C89.7466 35.5334 90.1291 35.7008 90.5947 35.7008C91.0603 35.7008 91.4594 35.5334 91.792 35.1986C92.1246 34.8637 92.2909 34.4619 92.2909 33.9932C92.2909 33.5244 92.1246 33.1227 91.792 32.8046C91.4594 32.4865 91.1102 32.3191 90.628 32.3191Z" fill="white"/>
<path d="M111.249 23.8485C110.65 22.8943 109.786 22.4088 108.671 22.4088C107.74 22.4088 106.826 22.911 105.894 23.9155C105.711 24.1331 105.246 24.7693 104.514 25.824C104.181 26.3095 103.865 26.6443 103.549 26.795C103.25 26.9624 102.818 27.0461 102.252 27.0461H101.87C100.323 27.0461 99.575 26.0918 99.575 24.2001V14.2726C99.575 12.9501 99.0761 12.2972 98.0783 12.2972C97.5794 12.2972 97.1803 12.5148 96.9142 12.9333C96.6814 13.3016 96.5816 13.7537 96.5816 14.2726L96.9142 23.6644C96.9974 26.0081 97.2468 27.5818 97.6293 28.4356C98.2779 29.8251 99.575 30.5115 101.521 30.5115H101.67H102.502H102.585C103.666 30.5115 104.581 30.1264 105.329 29.3731C106.177 30.3943 107.258 30.8965 108.605 30.8965C109.653 30.8965 110.501 30.478 111.133 29.6242C111.715 28.8541 111.997 27.9501 111.997 26.8619C112.031 25.6566 111.748 24.6521 111.249 23.8485ZM108.538 28.0338C108.206 28.0338 107.873 27.9333 107.474 27.7492C107.025 27.5148 106.809 27.247 106.809 26.9624C106.809 26.5773 106.992 26.209 107.374 25.8742C107.757 25.5394 108.139 25.3552 108.505 25.3552C108.888 25.3552 109.187 25.5394 109.42 25.8909C109.603 26.1923 109.702 26.5438 109.702 26.9624C109.702 27.6822 109.337 28.0338 108.538 28.0338Z" fill="white"/>
<path d="M30.9002 39C39.1294 39 45.8004 32.2843 45.8004 24C45.8004 15.7157 39.1294 9 30.9002 9C22.6711 9 16 15.7157 16 24C16 32.2843 22.6711 39 30.9002 39Z" fill="#0091EA"/>
<path d="M40.0468 22.2252C39.9303 19.3792 37.6022 17.1359 34.7585 17.1359C33.1787 17.1359 31.7485 17.8391 30.784 18.944C29.8195 17.8391 28.3893 17.1359 26.8095 17.1359C24.0157 17.1359 21.7208 19.3123 21.5213 22.0745C21.5213 22.1415 21.5046 22.2085 21.5046 22.2754V28.3022C21.5046 29.0388 22.1033 29.6415 22.835 29.6415H22.8683C23.6 29.6415 24.1987 29.0388 24.1987 28.3022V22.4763C24.1987 21.0199 25.3794 19.8312 26.8261 19.8312C28.2729 19.8312 29.4536 21.0199 29.4536 22.4763V27.3982C29.4536 28.1348 30.0523 28.7375 30.784 28.7375H30.8173C31.549 28.7375 32.1476 28.1348 32.1476 27.3982V22.4763C32.1476 21.0199 33.3284 19.8312 34.7751 19.8312C36.2219 19.8312 37.4026 21.0199 37.4026 22.4763V28.319C37.4026 29.0556 37.9847 29.6415 38.7164 29.6415H38.7496C39.4813 29.6415 40.0634 29.0556 40.0634 28.319V22.3591C40.0468 22.3089 40.0468 22.2587 40.0468 22.2252Z" fill="white"/>
<path d="M35.0243 30.1447C34.9577 30.0443 34.7748 30.2452 34.7748 30.2452C34.0431 31.0487 32.5132 31.5677 30.9334 31.5677C29.3535 31.5677 27.8402 31.0487 27.0919 30.2452C27.0919 30.2452 26.8923 30.0443 26.8424 30.1447C26.7593 30.2619 26.8757 30.4461 26.8757 30.4461C27.8236 31.8188 29.2538 32.4215 30.9334 32.4215C32.613 32.4215 34.0431 31.8021 34.991 30.4461C34.9744 30.4628 35.1074 30.2787 35.0243 30.1447Z" fill="white"/>
</svg>
