<svg width="30" height="29" viewBox="0 0 30 29" fill="none" xmlns="http://www.w3.org/2000/svg">
<path fill-rule="evenodd" clip-rule="evenodd" d="M9.25017 0.583292H5.50017C2.96815 0.583292 0.91684 2.6346 0.91684 5.16663V8.91663C0.91684 11.4486 2.96815 13.5 5.50017 13.5H9.25017C11.7822 13.5 13.8335 11.4486 13.8335 8.91663V5.16663C13.8335 2.6346 11.7822 0.583292 9.25017 0.583292ZM5.50017 3.08329H9.25017C10.4015 3.08329 11.3335 4.01531 11.3335 5.16663V8.91663C11.3335 10.0679 10.4015 11 9.25017 11H5.50017C4.34886 11 3.41684 10.0679 3.41684 8.91663V5.16663C3.41684 4.01531 4.34886 3.08329 5.50017 3.08329ZM24.6668 0.583292H20.9168C18.3848 0.583292 16.3335 2.6346 16.3335 5.16663V8.91663C16.3335 11.4486 18.3848 13.5 20.9168 13.5H24.6668C27.1989 13.5 29.2502 11.4486 29.2502 8.91663V5.16663C29.2502 2.6346 27.1989 0.583292 24.6668 0.583292ZM20.9168 3.08329H24.6668C25.8181 3.08329 26.7502 4.01531 26.7502 5.16663V8.91663C26.7502 10.0679 25.8181 11 24.6668 11H20.9168C19.7655 11 18.8335 10.0679 18.8335 8.91663V5.16663C18.8335 4.01531 19.7655 3.08329 20.9168 3.08329ZM5.50017 16H9.25017C11.7822 16 13.8335 18.0513 13.8335 20.5833V24.3333C13.8335 26.8653 11.7822 28.9166 9.25017 28.9166H5.50017C2.96815 28.9166 0.91684 26.8653 0.91684 24.3333V20.5833C0.91684 18.0513 2.96815 16 5.50017 16ZM9.25017 18.5H5.50017C4.34886 18.5 3.41684 19.432 3.41684 20.5833V24.3333C3.41684 25.4846 4.34886 26.4166 5.50017 26.4166H9.25017C10.4015 26.4166 11.3335 25.4846 11.3335 24.3333V20.5833C11.3335 19.432 10.4015 18.5 9.25017 18.5ZM24.6668 16H20.9168C18.3848 16 16.3335 18.0513 16.3335 20.5833V24.3333C16.3335 26.8653 18.3848 28.9166 20.9168 28.9166H24.6668C27.1989 28.9166 29.2502 26.8653 29.2502 24.3333V20.5833C29.2502 18.0513 27.1989 16 24.6668 16ZM20.9168 18.5H24.6668C25.8181 18.5 26.7502 19.432 26.7502 20.5833V24.3333C26.7502 25.4846 25.8181 26.4166 24.6668 26.4166H20.9168C19.7655 26.4166 18.8335 25.4846 18.8335 24.3333V20.5833C18.8335 19.432 19.7655 18.5 20.9168 18.5Z" fill="#003AAF"/>
</svg>
