<svg width="32" height="32" viewBox="0 0 32 32" fill="none" xmlns="http://www.w3.org/2000/svg">
<path fill-rule="evenodd" clip-rule="evenodd" d="M8 5.33333H10.6667V6H8V5.33333ZM6.66667 6V5.33333C6.66667 4.59695 7.26362 4 8 4H10.6667C11.403 4 12 4.59695 12 5.33333V6H20V5.33333C20 4.59695 20.597 4 21.3333 4H24C24.7364 4 25.3333 4.59695 25.3333 5.33333V6H26.6667C27.403 6 28 6.59695 28 7.33333V10.6667C28 11.403 27.403 12 26.6667 12V22.0299C27.403 22.0299 28 22.6269 28 23.3633V26.6667C28 27.403 27.403 28 26.6667 28H5.33333C4.59695 28 4 27.403 4 26.6667V23.3633C4 22.6269 4.59695 22.0299 5.33333 22.0299L5.33333 12C4.59695 12 4 11.403 4 10.6667V7.33333C4 6.59695 4.59695 6 5.33333 6H6.66667ZM7.80498 7.33333H5.33333V10.6667H26.6667L26.6667 7.33333H24.195C24.1314 7.34266 24.0662 7.34749 24 7.34749H21.3333C21.2671 7.34749 21.202 7.34266 21.1383 7.33333H10.8617C10.798 7.34266 10.7329 7.34749 10.6667 7.34749H8C7.93375 7.34749 7.86864 7.34266 7.80498 7.33333ZM6.66667 12V22.0104H25.3333V12H6.66667ZM24 6V5.33333H21.3333V6H24ZM26.6667 23.3633H5.33333V26.6667H26.6667V23.3633ZM17.2889 14.8719C17.5835 14.651 17.6432 14.2331 17.4223 13.9386C17.2014 13.644 16.7835 13.5843 16.4889 13.8052L12.9334 16.4719C12.7038 16.6441 12.6102 16.9438 12.7009 17.2161C12.7917 17.4883 13.0464 17.6719 13.3334 17.6719H16.6667L14.7112 19.1386C14.4166 19.3595 14.3569 19.7774 14.5778 20.0719C14.7987 20.3665 15.2166 20.4262 15.5112 20.2052L19.0667 17.5386C19.2963 17.3664 19.3899 17.0667 19.2992 16.7944C19.2084 16.5222 18.9537 16.3386 18.6667 16.3386H15.3334L15.6509 16.1004L15.6636 16.0909L17.2889 14.8719Z" fill="#003AAF"/>
</svg>
