<svg width="32" height="32" viewBox="0 0 32 32" fill="none" xmlns="http://www.w3.org/2000/svg">
<path fill-rule="evenodd" clip-rule="evenodd" d="M25.2029 12.1863C25.1712 12.173 25.1382 12.1593 25.1038 12.145C24.6518 11.9578 23.864 11.6341 23.1109 11.6341C22.3649 11.6341 21.6802 11.952 21.2894 12.1335C21.265 12.1449 21.2418 12.1557 21.2198 12.1658C20.7062 12.4023 20.5406 12.4529 20.4442 12.4529C20.4219 12.4529 20.3507 12.4481 20.141 12.3838C20.0431 12.3538 19.9376 12.3183 19.8004 12.2721L19.7765 12.264C19.6335 12.2159 19.4659 12.1597 19.2805 12.1028C18.5092 11.8661 17.488 11.635 16.0006 11.6341L15.999 11.6341C14.5116 11.635 13.4904 11.8661 12.7191 12.1028C12.5337 12.1597 12.3661 12.2159 12.2231 12.264L12.1992 12.2721C12.062 12.3183 11.9565 12.3538 11.8586 12.3838C11.6489 12.4481 11.5777 12.4529 11.5554 12.4529C11.459 12.4529 11.2934 12.4023 10.7798 12.1658C10.7578 12.1557 10.7346 12.1449 10.7102 12.1336C10.3193 11.952 9.63473 11.6341 8.88868 11.6341C8.13562 11.6341 7.34781 11.9578 6.89578 12.145C6.86136 12.1593 6.82837 12.173 6.79665 12.1863C7.56379 8.57154 10.9116 5.67697 15.1631 5.33342L16.8365 5.33342C21.088 5.67697 24.4358 8.57154 25.2029 12.1863ZM16.8887 4.00008C22.0732 4.3945 26.2383 8.19524 26.6665 12.9674C26.6665 13.4194 26.2682 13.7863 25.7776 13.7863C25.5684 13.7863 25.2145 13.6375 24.8085 13.4668C24.262 13.237 23.6209 12.9674 23.1109 12.9674C22.6665 12.9674 22.222 13.1721 21.7776 13.3768C21.3331 13.5816 20.8887 13.7863 20.4442 13.7863C20.1188 13.7863 19.7935 13.6767 19.381 13.5377C18.6669 13.2972 17.6912 12.9685 15.9998 12.9674C14.3084 12.9685 13.3327 13.2972 12.6186 13.5377C12.2061 13.6767 11.8808 13.7863 11.5554 13.7863C11.1109 13.7863 10.6665 13.5816 10.222 13.3768C9.77757 13.1721 9.33313 12.9674 8.88868 12.9674C8.3787 12.9674 7.73763 13.237 7.1911 13.4668C6.78504 13.6375 6.43117 13.7863 6.22202 13.7863C5.73135 13.7863 5.33313 13.4194 5.33313 12.9674C5.76132 8.19525 9.92641 4.3945 15.1109 4.00008L16.8887 4.00008Z" fill="#003AAF"/>
<path fill-rule="evenodd" clip-rule="evenodd" d="M15.9999 2.69336C16.3681 2.69336 16.6665 2.99184 16.6665 3.36003V4.21098C16.6665 4.57917 16.3681 4.87765 15.9999 4.87765C15.6317 4.87765 15.3332 4.57917 15.3332 4.21098V3.36003C15.3332 2.99184 15.6317 2.69336 15.9999 2.69336Z" fill="#003AAF"/>
<path fill-rule="evenodd" clip-rule="evenodd" d="M14.9462 19.9436L14.9463 21.3334H20.8689V18.6667H17.0082L14.9462 19.9436ZM17.1695 18.5669C17.1694 18.5669 17.1696 18.5668 17.1695 18.5669ZM13.6129 19.5723C13.6129 19.3414 13.7323 19.127 13.9286 19.0055L16.4675 17.4333C16.573 17.368 16.6945 17.3334 16.8185 17.3334H21.5356C21.9038 17.3334 22.2023 17.6319 22.2023 18.0001V22.0001C22.2023 22.3683 21.9038 22.6667 21.5356 22.6667H14.2796C13.9114 22.6667 13.613 22.3683 13.6129 22.0001L13.6129 19.5723Z" fill="#003AAF"/>
<path fill-rule="evenodd" clip-rule="evenodd" d="M16.1948 14.7122L7.3151 19.4635C7.20825 19.5265 7.14207 19.6455 7.14207 19.7746L7.13319 24.0291C7.13212 24.5398 7.69575 24.8749 8.19413 24.7635C8.46659 24.7027 8.74914 24.6707 9.0388 24.6707C11.2778 24.6707 13.0929 26.5837 13.0929 28.9436C13.0929 29.1534 13.2567 29.333 13.4665 29.3327C15.9328 29.3282 18.3991 29.3297 20.8654 29.3311C22.0872 29.3318 23.3089 29.3325 24.5307 29.3325C24.7175 29.3325 24.8689 29.1729 24.8689 28.976V15.0233C24.8689 14.8264 24.7175 14.6667 24.5307 14.6667H16.36C16.3022 14.6667 16.2453 14.6824 16.1948 14.7122ZM8.4742 20.3555L8.46791 23.3685C8.6558 23.3479 8.84628 23.3373 9.0388 23.3373C11.757 23.3373 13.9208 25.3969 14.349 27.998C16.5222 27.9952 18.696 27.9965 20.8684 27.9978C21.7578 27.9983 22.6469 27.9988 23.5356 27.9991V16.0001H16.614L8.4742 20.3555Z" fill="#003AAF"/>
<path fill-rule="evenodd" clip-rule="evenodd" d="M19.2613 24.6856C19.2613 24.3174 19.5598 24.019 19.928 24.019H21.6012C21.9694 24.019 22.2678 24.3174 22.2678 24.6856C22.2678 25.0538 21.9694 25.3523 21.6012 25.3523H19.928C19.5598 25.3523 19.2613 25.0538 19.2613 24.6856Z" fill="#003AAF"/>
</svg>
