<svg width="32" height="32" viewBox="0 0 32 32" fill="none" xmlns="http://www.w3.org/2000/svg">
<path fill-rule="evenodd" clip-rule="evenodd" d="M11.325 5.75358C11.6932 5.75358 11.9917 6.05206 11.9917 6.42025V17.6704C11.9917 18.0386 11.6932 18.3371 11.325 18.3371C10.9568 18.3371 10.6584 18.0386 10.6584 17.6704L10.6584 6.42025C10.6584 6.05206 10.9568 5.75358 11.325 5.75358Z" fill="#003AAF"/>
<path d="M6.6665 11.333C6.6665 10.9648 6.96498 10.6663 7.33317 10.6663C7.70136 10.6663 7.99984 10.9648 7.99984 11.333V12.6663C7.99984 13.0345 7.70136 13.333 7.33317 13.333C6.96498 13.333 6.6665 13.0345 6.6665 12.6663V11.333Z" fill="#003AAF"/>
<path d="M14.6665 11.3787C14.6665 11.0105 14.965 10.712 15.3332 10.712C15.7014 10.712 15.9998 11.0105 15.9998 11.3787V12.712C15.9998 13.0802 15.7014 13.3787 15.3332 13.3787C14.965 13.3787 14.6665 13.0802 14.6665 12.712V11.3787Z" fill="#003AAF"/>
<path d="M22.7847 11.3787C22.7847 11.0105 23.0831 10.712 23.4513 10.712C23.8195 10.712 24.118 11.0105 24.118 11.3787V12.712C24.118 13.0802 23.8195 13.3787 23.4513 13.3787C23.0831 13.3787 22.7847 13.0802 22.7847 12.712V11.3787Z" fill="#003AAF"/>
<path fill-rule="evenodd" clip-rule="evenodd" d="M22.4745 23.5478C24.4533 23.5478 26.0574 21.9436 26.0574 19.9649C26.0574 17.9861 24.4533 16.382 22.4745 16.382C20.4957 16.382 18.8916 17.9861 18.8916 19.9649C18.8916 21.9436 20.4957 23.5478 22.4745 23.5478ZM27.3907 19.9649C27.3907 22.68 25.1896 24.8811 22.4745 24.8811C19.7593 24.8811 17.5583 22.68 17.5583 19.9649C17.5583 17.2497 19.7593 15.0487 22.4745 15.0487C25.1896 15.0487 27.3907 17.2497 27.3907 19.9649Z" fill="#003AAF"/>
<path d="M26.0334 24.4096C25.7731 24.1492 25.7731 23.7271 26.0334 23.4667C26.2938 23.2064 26.7159 23.2064 26.9762 23.4667L28.8618 25.3524C29.1222 25.6127 29.1222 26.0348 28.8618 26.2952C28.6015 26.5555 28.1794 26.5555 27.919 26.2952L26.0334 24.4096Z" fill="#003AAF"/>
<path d="M18.6665 11.3787C18.6665 11.0105 18.965 10.712 19.3332 10.712C19.7014 10.712 19.9998 11.0105 19.9998 11.3787V12.712C19.9998 13.0802 19.7014 13.3787 19.3332 13.3787C18.965 13.3787 18.6665 13.0802 18.6665 12.712V11.3787Z" fill="#003AAF"/>
<path fill-rule="evenodd" clip-rule="evenodd" d="M4.6665 6.66634H25.9998C26.368 6.66634 26.6665 6.96482 26.6665 7.33301V14.6663H27.9998V7.33301C27.9998 6.22844 27.1044 5.33301 25.9998 5.33301H4.6665C3.56193 5.33301 2.6665 6.22844 2.6665 7.33301V16.6663C2.6665 17.7709 3.56193 18.6663 4.6665 18.6663H15.9998V17.333H4.6665C4.29831 17.333 3.99984 17.0345 3.99984 16.6663V7.33301C3.99984 6.96482 4.29831 6.66634 4.6665 6.66634Z" fill="#003AAF"/>
</svg>
