<svg width="33" height="32" viewBox="0 0 33 32" fill="none" xmlns="http://www.w3.org/2000/svg">
<path fill-rule="evenodd" clip-rule="evenodd" d="M18.3748 2.2793C20.3249 2.2793 21.9194 3.80157 22.0348 5.7226L22.0415 5.94596V13.6126C22.0415 14.1649 21.5938 14.6126 21.0415 14.6126C20.5352 14.6126 20.1168 14.2364 20.0506 13.7483L20.0415 13.6126V5.94596C20.0415 5.08302 19.3857 4.37325 18.5452 4.2879L18.3748 4.2793H7.70816C6.84521 4.2793 6.13544 4.93513 6.05009 5.77556L6.04149 5.94596V24.6126C6.04149 25.4756 6.69732 26.1853 7.53775 26.2707L7.70816 26.2793H10.0415C10.5938 26.2793 11.0415 26.727 11.0415 27.2793C11.0415 27.7856 10.6653 28.204 10.1772 28.2702L10.0415 28.2793H7.70816C5.75811 28.2793 4.16362 26.757 4.04818 24.836L4.04149 24.6126V5.94596C4.04149 3.99592 5.56376 2.40142 7.48479 2.28599L7.70816 2.2793H18.3748ZM26.252 19.1483C25.8606 17.91 24.7081 17.054 23.3919 17.054H18.5245L18.2941 17.0628C16.9993 17.1619 15.9032 18.0891 15.6034 19.3707L15.2775 20.7637L14.7403 20.4938L14.6149 20.4411C14.1491 20.2811 13.6251 20.4861 13.3978 20.9385C13.1499 21.432 13.349 22.0331 13.8425 22.281L14.4077 22.5649C13.7228 23.1754 13.2915 24.0644 13.2915 25.054V27.3874C13.2915 28.676 14.3362 29.7207 15.6248 29.7207H16.9582L17.1495 29.713C18.2224 29.6259 19.0902 28.8129 19.261 27.7659L19.2662 27.7207H22.6488L22.6554 27.7659C22.8362 28.8745 23.7984 29.7207 24.9582 29.7207H26.2915C27.5802 29.7207 28.6248 28.676 28.6248 27.3874V25.054C28.6248 24.0644 28.1935 23.1754 27.5086 22.5649L28.0738 22.281L28.1909 22.2119C28.5974 21.9337 28.7457 21.3909 28.5184 20.9385C28.2705 20.445 27.6695 20.2459 27.176 20.4938L26.6389 20.7636L26.313 19.3707L26.252 19.1483ZM24.3656 19.8262L24.8088 21.7207H17.1076L17.5508 19.8262L17.5913 19.6947C17.7379 19.3131 18.1065 19.054 18.5245 19.054H23.3919L23.5292 19.0634C23.9341 19.1193 24.2704 19.4192 24.3656 19.8262ZM25.6708 23.7754C25.7263 23.8023 25.7845 23.8241 25.8445 23.8404C26.3049 24.0506 26.6248 24.5149 26.6248 25.054V27.3874C26.6248 27.5715 26.4756 27.7207 26.2915 27.7207H24.9582C24.7741 27.7207 24.6248 27.5715 24.6248 27.3874V26.7207C24.6248 26.1684 24.1771 25.7207 23.6248 25.7207H18.2915C17.7392 25.7207 17.2915 26.1684 17.2915 26.7207V27.3874C17.2915 27.5715 17.1423 27.7207 16.9582 27.7207H15.6248C15.4407 27.7207 15.2915 27.5715 15.2915 27.3874V25.054C15.2915 24.515 15.6114 24.0507 16.0716 23.8405C16.1318 23.8242 16.1901 23.8023 16.2459 23.7753C16.366 23.7398 16.4932 23.7207 16.6248 23.7207H25.2915C25.4233 23.7207 25.5506 23.7398 25.6708 23.7754ZM16.7082 6.94596C16.7082 6.39368 16.2604 5.94596 15.7082 5.94596H10.3748L10.2391 5.95509C9.75103 6.02131 9.37482 6.4397 9.37482 6.94596C9.37482 7.49825 9.82254 7.94596 10.3748 7.94596H15.7082L15.8438 7.93684C16.332 7.87062 16.7082 7.45222 16.7082 6.94596Z" fill="#FF7E29"/>
</svg>
