<svg width="32" height="32" viewBox="0 0 32 32" fill="none" xmlns="http://www.w3.org/2000/svg">
<path fill-rule="evenodd" clip-rule="evenodd" d="M18.6668 4.00033H12.0002V6.66699H18.6668V4.00033ZM12.0002 2.66699C11.2638 2.66699 10.6668 3.26395 10.6668 4.00033V6.66699C10.6668 7.40337 11.2638 8.00033 12.0002 8.00033H18.6668C19.4032 8.00033 20.0002 7.40337 20.0002 6.66699V4.00033C20.0002 3.26395 19.4032 2.66699 18.6668 2.66699H12.0002Z" fill="#003AAF"/>
<path fill-rule="evenodd" clip-rule="evenodd" d="M14.4047 27.667V27.6236C14.4047 26.7031 15.1509 25.957 16.0713 25.957H22.9334C23.8539 25.957 24.6 26.7031 24.6 27.6236V27.667C24.6 27.8511 24.7493 28.0004 24.9334 28.0004H25.0002C25.1843 28.0004 25.3335 27.8511 25.3335 27.667V24.4791C25.3335 23.3745 24.4381 22.4791 23.3335 22.4791H15.6712C14.5667 22.4791 13.6712 23.3745 13.6712 24.4791V27.667C13.6712 27.8511 13.8205 28.0004 14.0046 28.0004H14.0713C14.2554 28.0004 14.4047 27.8511 14.4047 27.667ZM15.738 27.6236V27.667C15.738 28.5875 14.9918 29.3337 14.0713 29.3337H14.0046C13.0841 29.3337 12.3379 28.5875 12.3379 27.667V24.4791C12.3379 22.6381 13.8303 21.1457 15.6712 21.1457H23.3335C25.1744 21.1457 26.6668 22.6381 26.6668 24.4791V27.667C26.6668 28.5875 25.9206 29.3337 25.0002 29.3337H24.9334C24.0129 29.3337 23.2667 28.5875 23.2667 27.667V27.6236C23.2667 27.4395 23.1175 27.2903 22.9334 27.2903H16.0713C15.8872 27.2903 15.738 27.4395 15.738 27.6236Z" fill="#003AAF"/>
<path fill-rule="evenodd" clip-rule="evenodd" d="M21.9402 18.4857H17.0644C16.7441 18.4857 16.4691 18.7134 16.4094 19.028L15.9951 21.2105H23.0095L22.5952 19.028C22.5355 18.7134 22.2605 18.4857 21.9402 18.4857ZM23.9051 18.7793C23.726 17.8355 22.901 17.1524 21.9402 17.1524H17.0644C16.1036 17.1524 15.2786 17.8355 15.0995 18.7793L14.3848 22.5438H24.6198L23.9051 18.7793Z" fill="#003AAF"/>
<path fill-rule="evenodd" clip-rule="evenodd" d="M13.2187 19.9795C13.479 19.7191 13.9011 19.7191 14.1615 19.9795L14.8852 20.7032C15.1456 20.9635 15.1456 21.3856 14.8852 21.646C14.6249 21.9063 14.2027 21.9063 13.9424 21.646L13.2187 20.9223C12.9583 20.6619 12.9583 20.2398 13.2187 19.9795Z" fill="#003AAF"/>
<path fill-rule="evenodd" clip-rule="evenodd" d="M25.815 19.9795C25.5546 19.7191 25.1325 19.7191 24.8722 19.9795L24.1484 20.7032C23.8881 20.9635 23.8881 21.3856 24.1484 21.646C24.4088 21.9063 24.8309 21.9063 25.0912 21.646L25.815 20.9223C26.0753 20.6619 26.0753 20.2398 25.815 19.9795Z" fill="#003AAF"/>
<path fill-rule="evenodd" clip-rule="evenodd" d="M14.7419 24.2163C14.7419 23.8481 15.0404 23.5496 15.4086 23.5496H16.9438C17.312 23.5496 17.6105 23.8481 17.6105 24.2163C17.6105 24.5845 17.312 24.8829 16.9438 24.8829H15.4086C15.0404 24.8829 14.7419 24.5845 14.7419 24.2163Z" fill="#003AAF"/>
<path fill-rule="evenodd" clip-rule="evenodd" d="M21.3946 24.2163C21.3946 23.8481 21.693 23.5496 22.0612 23.5496H23.5965C23.9647 23.5496 24.2631 23.8481 24.2631 24.2163C24.2631 24.5845 23.9647 24.8829 23.5965 24.8829H22.0612C21.693 24.8829 21.3946 24.5845 21.3946 24.2163Z" fill="#003AAF"/>
<path fill-rule="evenodd" clip-rule="evenodd" d="M9.26698 11.3033C9.267 10.9351 9.56548 10.6366 9.93367 10.6366L20.7334 10.6369C21.1016 10.637 21.4 10.9354 21.4 11.3036C21.4 11.6718 21.1015 11.9703 20.7333 11.9703L9.93363 11.9699C9.56544 11.9699 9.26697 11.6714 9.26698 11.3033Z" fill="#003AAF"/>
<path fill-rule="evenodd" clip-rule="evenodd" d="M11.6712 13.9657C11.6712 13.5975 11.9697 13.299 12.3379 13.299H20.7333C21.1015 13.299 21.4 13.5975 21.4 13.9657C21.4 14.3338 21.1015 14.6323 20.7333 14.6323L12.3379 14.6323C11.9697 14.6323 11.6712 14.3338 11.6712 13.9657Z" fill="#003AAF"/>
<path fill-rule="evenodd" clip-rule="evenodd" d="M7.3335 5.33366H10.6668V6.66699H7.3335C6.96531 6.66699 6.66683 6.96547 6.66683 7.33366V22.645C6.66683 23.0132 6.96531 23.3117 7.3335 23.3117H11.2676V24.645H7.3335C6.22893 24.645 5.3335 23.7496 5.3335 22.645V7.33366C5.3335 6.22909 6.22893 5.33366 7.3335 5.33366ZM25.3335 16.7985V7.33366C25.3335 6.22909 24.4381 5.33366 23.3335 5.33366H20.0002V6.66699H23.3335C23.7017 6.66699 24.0002 6.96547 24.0002 7.33366V16.7985H25.3335Z" fill="#003AAF"/>
</svg>
