<svg width="32" height="32" viewBox="0 0 32 32" fill="none" xmlns="http://www.w3.org/2000/svg">
<path fill-rule="evenodd" clip-rule="evenodd" d="M25.2029 12.1863C25.1712 12.173 25.1382 12.1593 25.1038 12.145C24.6518 11.9578 23.864 11.6341 23.1109 11.6341C22.3649 11.6341 21.6802 11.952 21.2894 12.1335C21.265 12.1449 21.2418 12.1557 21.2198 12.1658C20.7062 12.4023 20.5406 12.4529 20.4442 12.4529C20.4219 12.4529 20.3507 12.4481 20.141 12.3838C20.0431 12.3538 19.9376 12.3183 19.8004 12.2721L19.7765 12.264C19.6335 12.2159 19.4659 12.1597 19.2805 12.1028C18.5092 11.8661 17.488 11.635 16.0006 11.6341L15.999 11.6341C14.5116 11.635 13.4904 11.8661 12.7191 12.1028C12.5337 12.1597 12.3661 12.2159 12.2231 12.264L12.1992 12.2721C12.062 12.3183 11.9565 12.3538 11.8586 12.3838C11.6489 12.4481 11.5777 12.4529 11.5554 12.4529C11.459 12.4529 11.2934 12.4023 10.7798 12.1658C10.7578 12.1557 10.7346 12.1449 10.7102 12.1336C10.3193 11.952 9.63473 11.6341 8.88868 11.6341C8.13562 11.6341 7.34781 11.9578 6.89578 12.145C6.86136 12.1593 6.82837 12.173 6.79665 12.1863C7.56379 8.57154 10.9116 5.67697 15.1631 5.33342L16.8365 5.33342C21.088 5.67697 24.4358 8.57154 25.2029 12.1863ZM16.8887 4.00008C22.0732 4.3945 26.2383 8.19524 26.6665 12.9674C26.6665 13.4194 26.2682 13.7863 25.7776 13.7863C25.5684 13.7863 25.2145 13.6375 24.8085 13.4668C24.262 13.237 23.6209 12.9674 23.1109 12.9674C22.6665 12.9674 22.222 13.1721 21.7776 13.3768C21.3331 13.5816 20.8887 13.7863 20.4442 13.7863C20.1188 13.7863 19.7935 13.6767 19.381 13.5377C18.6669 13.2972 17.6912 12.9685 15.9998 12.9674C14.3084 12.9685 13.3327 13.2972 12.6186 13.5377C12.2061 13.6767 11.8808 13.7863 11.5554 13.7863C11.1109 13.7863 10.6665 13.5816 10.222 13.3768C9.77757 13.1721 9.33313 12.9674 8.88868 12.9674C8.3787 12.9674 7.73763 13.237 7.1911 13.4668C6.78504 13.6375 6.43117 13.7863 6.22202 13.7863C5.73135 13.7863 5.33313 13.4194 5.33313 12.9674C5.76132 8.19525 9.92641 4.3945 15.1109 4.00008L16.8887 4.00008Z" fill="#003AAF"/>
<path fill-rule="evenodd" clip-rule="evenodd" d="M15.9999 2.69336C16.3681 2.69336 16.6665 2.99184 16.6665 3.36003V4.21098C16.6665 4.57917 16.3681 4.87765 15.9999 4.87765C15.6317 4.87765 15.3332 4.57917 15.3332 4.21098V3.36003C15.3332 2.99184 15.6317 2.69336 15.9999 2.69336Z" fill="#003AAF"/>
<path fill-rule="evenodd" clip-rule="evenodd" d="M10.1972 27.6667V27.2405C10.1972 26.3201 10.9434 25.5739 11.8639 25.5739H20.1361C21.0566 25.5739 21.8028 26.3201 21.8028 27.2405V27.6667C21.8028 27.8508 21.952 28 22.1361 28H22.8398C23.0239 28 23.1731 27.8508 23.1731 27.6667V22.9451C23.1731 21.8405 22.2777 20.9451 21.1731 20.9451H10.8269C9.72236 20.9451 8.82693 21.8405 8.82693 22.9451V27.6667C8.82693 27.8508 8.97617 28 9.16026 28H9.86391C10.048 28 10.1972 27.8508 10.1972 27.6667ZM11.5306 27.2405V27.6667C11.5306 28.5872 10.7844 29.3334 9.86391 29.3334H9.16026C8.23979 29.3334 7.4936 28.5872 7.4936 27.6667V22.9451C7.4936 21.1041 8.98598 19.6117 10.8269 19.6117H21.1731C23.0141 19.6117 24.5065 21.1041 24.5065 22.9451V27.6667C24.5065 28.5872 23.7603 29.3334 22.8398 29.3334H22.1361C21.2157 29.3334 20.4695 28.5872 20.4695 27.6667V27.2405C20.4695 27.0565 20.3202 26.9072 20.1361 26.9072H11.8639C11.6798 26.9072 11.5306 27.0565 11.5306 27.2405Z" fill="#003AAF"/>
<path fill-rule="evenodd" clip-rule="evenodd" d="M19.2211 16.2036H12.7787C12.4609 16.2036 12.1873 16.4279 12.1249 16.7395L11.5503 19.613H20.4495L19.8748 16.7395C19.8125 16.4279 19.5389 16.2036 19.2211 16.2036ZM21.1822 16.4781C20.9953 15.5432 20.1744 14.8703 19.2211 14.8703H12.7787C11.8253 14.8703 11.0045 15.5432 10.8175 16.4781L9.92385 20.9463H22.0759L21.1822 16.4781Z" fill="#003AAF"/>
<path fill-rule="evenodd" clip-rule="evenodd" d="M8.6275 18.3153C8.88785 18.0549 9.30996 18.0549 9.57031 18.3153L10.4296 19.1746C10.6899 19.4349 10.6899 19.857 10.4296 20.1174C10.1692 20.3777 9.74713 20.3777 9.48678 20.1174L8.6275 19.2581C8.36715 18.9978 8.36715 18.5756 8.6275 18.3153Z" fill="#003AAF"/>
<path fill-rule="evenodd" clip-rule="evenodd" d="M23.4067 18.3153C23.1464 18.0549 22.7243 18.0549 22.4639 18.3153L21.6046 19.1746C21.3443 19.4349 21.3443 19.857 21.6046 20.1174C21.865 20.3777 22.2871 20.3777 22.5475 20.1174L23.4067 19.2581C23.6671 18.9978 23.6671 18.5756 23.4067 18.3153Z" fill="#003AAF"/>
<path fill-rule="evenodd" clip-rule="evenodd" d="M10.4726 23.2574C10.4726 22.8892 10.7711 22.5907 11.1393 22.5907H12.9621C13.3303 22.5907 13.6287 22.8892 13.6287 23.2574C13.6287 23.6256 13.3303 23.9241 12.9621 23.9241H11.1393C10.7711 23.9241 10.4726 23.6256 10.4726 23.2574Z" fill="#003AAF"/>
<path fill-rule="evenodd" clip-rule="evenodd" d="M18.3714 23.2574C18.3714 22.8892 18.6698 22.5907 19.038 22.5907H20.8608C21.229 22.5907 21.5275 22.8892 21.5275 23.2574C21.5275 23.6256 21.229 23.9241 20.8608 23.9241H19.038C18.6698 23.9241 18.3714 23.6256 18.3714 23.2574Z" fill="#003AAF"/>
</svg>
