<svg width="33" height="34" viewBox="0 0 33 34" fill="none" xmlns="http://www.w3.org/2000/svg">
<path fill-rule="evenodd" clip-rule="evenodd" d="M20.2867 0.75C21.3911 0.75 22.4554 1.14948 23.2854 1.8678L23.5272 2.09278L28.2406 6.80612C29.0218 7.5874 29.4923 8.62229 29.5714 9.71674L29.5833 10.0467V10.3333V15.3333C29.5833 16.0237 29.0237 16.5833 28.3333 16.5833C27.7005 16.5833 27.1775 16.1131 27.0948 15.503L27.0833 15.3333V11.5833H21.6667C20.1368 11.5833 18.8814 10.4044 18.7597 8.90581L18.75 8.66667V3.25H5C3.92065 3.25 3.03403 4.06916 2.92742 5.12021L2.91667 5.33333V28.6667C2.91667 29.746 3.73583 30.6326 4.78688 30.7393L5 30.75H16.6667C17.357 30.75 17.9167 31.3096 17.9167 32C17.9167 32.6328 17.4464 33.1558 16.8363 33.2386L16.6667 33.25H5C2.56176 33.25 0.56928 31.3478 0.425034 28.9459L0.416672 28.6667V5.33333C0.416672 2.89509 2.31885 0.902608 4.72073 0.758362L5 0.75H20H20.2867ZM26.6296 8.74954C26.7128 8.85406 26.7854 8.9659 26.8468 9.08333H21.6667L21.5713 9.0723C21.3874 9.02903 21.25 8.8635 21.25 8.66667V3.48659C21.4362 3.58377 21.6083 3.70937 21.7595 3.86055L26.4728 8.57388L26.6296 8.74954ZM20.5795 20.9144C23.021 18.4729 26.9794 18.4729 29.4193 20.9148C31.5831 23.0787 31.8052 26.3726 30.2141 28.7797L32.5506 31.1161C33.0387 31.6043 33.0387 32.3957 32.5506 32.8839C32.1068 33.3277 31.4123 33.368 30.923 33.0049L30.7828 32.8839L28.45 30.5511C26.3565 31.9535 23.5093 31.9292 21.4423 30.4784C18.2116 28.2126 17.8375 23.6564 20.5795 20.9144ZM27.8398 22.8849C29.1133 24.3559 29.0374 26.5399 27.6998 27.9351C27.6827 27.9505 27.6659 27.9663 27.6495 27.9828C27.6316 28.0007 27.6144 28.0189 27.5978 28.0376C27.4521 28.1786 27.2927 28.3107 27.1199 28.4321C25.8795 29.3027 24.1188 29.3027 22.8781 28.4319C20.9239 27.0613 20.6997 24.3298 22.3472 22.6822C23.7426 21.2869 25.9631 21.2204 27.4357 22.4826L27.6511 22.6822L27.8398 22.8849ZM17.5 17C17.5 16.3096 16.9404 15.75 16.25 15.75H8.33334L8.16372 15.7614C7.5536 15.8442 7.08334 16.3672 7.08334 17C7.08334 17.6904 7.64298 18.25 8.33334 18.25H16.25L16.4196 18.2386C17.0297 18.1558 17.5 17.6328 17.5 17ZM13.0729 22.4167C13.7633 22.4167 14.3229 22.9763 14.3229 23.6667C14.3229 24.2995 13.8527 24.8225 13.2425 24.9053L13.0729 24.9167H8.33334C7.64298 24.9167 7.08334 24.357 7.08334 23.6667C7.08334 23.0338 7.5536 22.5108 8.16372 22.4281L8.33334 22.4167H13.0729ZM14.5833 10.3333C14.5833 9.64298 14.0237 9.08333 13.3333 9.08333H8.33334L8.16372 9.09474C7.5536 9.17751 7.08334 9.70051 7.08334 10.3333C7.08334 11.0237 7.64298 11.5833 8.33334 11.5833H13.3333L13.503 11.5719C14.1131 11.4892 14.5833 10.9662 14.5833 10.3333Z" fill="#003AAF"/>
</svg>
