<svg width="32" height="32" viewBox="0 0 32 32" fill="none" xmlns="http://www.w3.org/2000/svg">
<path fill-rule="evenodd" clip-rule="evenodd" d="M17.4515 9.98139C17.4515 9.6132 17.7499 9.31472 18.1181 9.31472H23.3358C23.704 9.31472 24.0025 9.6132 24.0025 9.98139C24.0025 10.3496 23.704 10.6481 23.3358 10.6481H18.1181C17.7499 10.6481 17.4515 10.3496 17.4515 9.98139Z" fill="#003AAF"/>
<path fill-rule="evenodd" clip-rule="evenodd" d="M19.465 12.5687C19.465 12.2005 19.7635 11.902 20.1317 11.902H23.3357C23.7039 11.902 24.0024 12.2005 24.0024 12.5687C24.0024 12.9369 23.7039 13.2353 23.3357 13.2353H20.1317C19.7635 13.2353 19.465 12.9369 19.465 12.5687Z" fill="#003AAF"/>
<path fill-rule="evenodd" clip-rule="evenodd" d="M11.4523 9.19818C11.0197 9.19818 10.6691 9.54882 10.6691 9.98136C10.6691 10.4139 11.0197 10.7645 11.4523 10.7645C11.8848 10.7645 12.2354 10.4139 12.2354 9.98136C12.2354 9.54883 11.8848 9.19818 11.4523 9.19818ZM9.33574 9.98136C9.33574 8.81244 10.2833 7.86485 11.4523 7.86485C12.6212 7.86485 13.5688 8.81244 13.5688 9.98136C13.5688 11.1503 12.6212 12.0979 11.4523 12.0979C10.2833 12.0979 9.33574 11.1503 9.33574 9.98136Z" fill="#003AAF"/>
<path fill-rule="evenodd" clip-rule="evenodd" d="M12.1243 12.6259C13.603 12.7602 14.7767 13.9242 14.9196 15.4043C14.955 15.7708 14.6866 16.0966 14.3201 16.1319C13.9536 16.1673 13.6278 15.8989 13.5924 15.5324C13.5112 14.6907 12.8443 14.0291 12.0017 13.9536L11.9949 13.953C11.6389 13.9174 11.2744 13.9172 10.9087 13.9531C10.0589 14.0351 9.39339 14.6944 9.31248 15.5324C9.27709 15.8989 8.95131 16.1673 8.58483 16.1319C8.21834 16.0966 7.94993 15.7708 7.98531 15.4043C8.12867 13.9195 9.30628 12.7685 10.7791 12.626C11.2292 12.582 11.6805 12.5817 12.1243 12.6259Z" fill="#003AAF"/>
<path fill-rule="evenodd" clip-rule="evenodd" d="M22.0599 17.3383C19.4814 17.3383 17.3932 19.4265 17.3932 22.005C17.3932 22.88 17.6381 23.7057 18.0673 24.4017L18.0729 24.4108C18.8772 25.7629 20.3569 26.6717 22.0599 26.6717C23.7629 26.6717 25.2427 25.763 26.0469 24.4109L26.0524 24.4017C26.4816 23.7057 26.7266 22.88 26.7266 22.005C26.7266 19.4265 24.6384 17.3383 22.0599 17.3383ZM16.0599 22.005C16.0599 18.6902 18.745 16.005 22.0599 16.005C25.3748 16.005 28.0599 18.6902 28.0599 22.005C28.0599 23.1281 27.7459 24.194 27.1902 25.0971C26.1538 26.8358 24.2483 28.005 22.0599 28.005C19.8715 28.005 17.966 26.8358 16.9296 25.0971C16.3739 24.194 16.0599 23.1281 16.0599 22.005Z" fill="#003AAF"/>
<path fill-rule="evenodd" clip-rule="evenodd" d="M24.6292 20.2457C24.8792 20.516 24.8628 20.9378 24.5925 21.1878L21.7525 23.8144C21.4896 24.0576 21.0816 24.0496 20.8284 23.7964L19.5084 22.4764C19.2481 22.2161 19.2481 21.794 19.5084 21.5336C19.7688 21.2733 20.1909 21.2733 20.4512 21.5336L21.3178 22.4002L23.6872 20.2089C23.9575 19.9589 24.3792 19.9754 24.6292 20.2457Z" fill="#003AAF"/>
<path d="M6 5.33333H26C26.3682 5.33333 26.6667 5.63181 26.6667 6V16.005H28V6C28 4.89543 27.1046 4 26 4H6C4.89543 4 4 4.89543 4 6V18C4 19.1046 4.89543 20 6 20H14.9229V18.6667H6C5.63181 18.6667 5.33333 18.3682 5.33333 18V6C5.33333 5.63181 5.63181 5.33333 6 5.33333Z" fill="#003AAF"/>
</svg>
