<svg width="24" height="24" viewBox="0 0 24 24" fill="none" xmlns="http://www.w3.org/2000/svg">
<path fill-rule="evenodd" clip-rule="evenodd" d="M13.5 1.25H7.5C6.5335 1.25 5.75 2.0335 5.75 3V3.25H4.5L4.33248 3.25502C2.8917 3.3416 1.75 4.53747 1.75 6V18L1.75502 18.1675C1.8416 19.6083 3.03747 20.75 4.5 20.75H7.5L7.60177 20.7432C7.96785 20.6935 8.25 20.3797 8.25 20C8.25 19.5858 7.91421 19.25 7.5 19.25H4.5L4.37219 19.2435C3.74187 19.1795 3.25 18.6472 3.25 18V6L3.25645 5.87219C3.32047 5.24187 3.85279 4.75 4.5 4.75H5.75V5C5.75 5.9665 6.5335 6.75 7.5 6.75H13.5C14.4665 6.75 15.25 5.9665 15.25 5V4.75H16.5L16.6278 4.75645C17.2581 4.82047 17.75 5.35279 17.75 6V10L17.7568 10.1018C17.8065 10.4678 18.1203 10.75 18.5 10.75C18.9142 10.75 19.25 10.4142 19.25 10V6L19.245 5.83248C19.1584 4.3917 17.9625 3.25 16.5 3.25H15.25V3C15.25 2.0335 14.4665 1.25 13.5 1.25ZM13.75 3V4V5C13.75 5.13807 13.6381 5.25 13.5 5.25H7.5C7.36193 5.25 7.25 5.13807 7.25 5V4V3C7.25 2.86193 7.36193 2.75 7.5 2.75H13.5C13.6381 2.75 13.75 2.86193 13.75 3ZM22.25 19.25C22.25 18.5077 21.9265 17.841 21.4128 17.3831L21.8367 17.1702L21.9246 17.1184C22.2294 16.9096 22.3407 16.5026 22.1702 16.1633C21.9843 15.7932 21.5335 15.6439 21.1634 15.8298L20.7606 16.0322L20.5162 14.9875L20.4704 14.8207C20.1768 13.892 19.3124 13.25 18.3253 13.25H14.6748L14.502 13.2566C13.5308 13.3309 12.7088 14.0263 12.4839 14.9875L12.2395 16.0322L11.8367 15.8298L11.7427 15.7902C11.3933 15.6703 11.0003 15.824 10.8299 16.1633C10.6439 16.5334 10.7932 16.9842 11.1634 17.1702L11.5872 17.3831C11.0735 17.841 10.75 18.5077 10.75 19.25V21C10.75 21.9665 11.5335 22.75 12.5 22.75H13.5L13.6435 22.7442C14.4482 22.6789 15.099 22.0692 15.2271 21.2839L15.231 21.25H17.768L17.7729 21.2839C17.9085 22.1154 18.6302 22.75 19.5 22.75H20.5C21.4665 22.75 22.25 21.9665 22.25 21V19.25ZM19.75 18.25C19.8488 18.25 19.9443 18.2643 20.0345 18.291C20.0761 18.3112 20.1198 18.3276 20.1648 18.3398C20.51 18.4974 20.75 18.8457 20.75 19.25V21C20.75 21.1381 20.6381 21.25 20.5 21.25H19.5C19.3619 21.25 19.25 21.1381 19.25 21V20.5C19.25 20.0858 18.9142 19.75 18.5 19.75H14.5C14.0858 19.75 13.75 20.0858 13.75 20.5V21C13.75 21.1381 13.6381 21.25 13.5 21.25H12.5C12.3619 21.25 12.25 21.1381 12.25 21V19.25C12.25 18.8457 12.4899 18.4975 12.8351 18.3399C12.8802 18.3276 12.924 18.3112 12.9658 18.291C13.0559 18.2643 13.1513 18.25 13.25 18.25H19.75ZM19.0556 15.3292L19.388 16.75H13.6121L13.9445 15.3292L13.9748 15.2305C14.0848 14.9443 14.3612 14.75 14.6748 14.75H18.3253L18.4283 14.7571C18.732 14.799 18.9842 15.0238 19.0556 15.3292ZM9.05802 13.6506C8.78125 13.3424 8.30706 13.3169 7.99888 13.5937L7.16301 14.343L7.00126 14.1974L6.91339 14.1294C6.60856 13.9275 6.19379 13.9739 5.94212 14.254C5.66528 14.5621 5.69063 15.0363 5.99875 15.3132L6.66253 15.9096L6.75216 15.9787C7.03254 16.1631 7.40832 16.1401 7.66491 15.9097L9.00113 14.7097L9.07816 14.6296C9.31144 14.3481 9.30962 13.9307 9.05802 13.6506ZM14.5 10.25C14.9142 10.25 15.25 10.5858 15.25 11C15.25 11.3797 14.9678 11.6935 14.6018 11.7432L14.5 11.75H11.5C11.0858 11.75 10.75 11.4142 10.75 11C10.75 10.6203 11.0322 10.3065 11.3982 10.2568L11.5 10.25H14.5ZM9.05802 9.65056C8.78125 9.34237 8.30706 9.31691 7.99888 9.59367L7.16301 10.343L7.00126 10.1974L6.91339 10.1294C6.60856 9.9275 6.19379 9.97392 5.94212 10.254C5.66528 10.5621 5.69063 11.0363 5.99875 11.3132L6.66253 11.9096L6.75216 11.9787C7.03254 12.1631 7.40832 12.1401 7.66491 11.9097L9.00113 10.7097L9.07816 10.6296C9.31144 10.3481 9.30962 9.93072 9.05802 9.65056Z" fill="#003AAF"/>
</svg>
