<svg width="41" height="40" viewBox="0 0 41 40" fill="none" xmlns="http://www.w3.org/2000/svg">
<path d="M17.9973 21.5551L18.8772 23.3294C18.9972 23.5764 19.3172 23.8134 19.5872 23.8587L21.182 24.1259C22.2019 24.2973 22.4419 25.0433 21.7069 25.7793L20.4671 27.0294C20.2571 27.2411 20.1421 27.6494 20.2071 27.9418L20.5621 29.4893C20.842 30.7142 20.1971 31.188 19.1222 30.5478L17.6274 29.6556C17.3574 29.4943 16.9125 29.4943 16.6375 29.6556L15.1427 30.5478C14.0728 31.188 13.4229 30.7091 13.7028 29.4893L14.0578 27.9418C14.1228 27.6494 14.0078 27.2411 13.7978 27.0294L12.558 25.7793C11.828 25.0433 12.063 24.2973 13.0829 24.1259L14.6777 23.8587C14.9427 23.8134 15.2627 23.5764 15.3826 23.3294L16.2625 21.5551C16.7425 20.5923 17.5224 20.5923 17.9973 21.5551Z" stroke="#003AAF" stroke-width="2" stroke-linecap="round" stroke-linejoin="round"/>
<path d="M7.13354 16.667H27.1335" stroke="#003AAF" stroke-width="2.5" stroke-linecap="round" stroke-linejoin="round"/>
<path d="M7.13354 35V15C7.13354 10.2859 7.13355 7.92893 8.59801 6.46447C10.0625 5 12.4195 5 17.1335 5C21.8475 5 24.2045 5 25.669 6.46447C27.1335 7.92893 27.1335 10.2859 27.1335 15V35H7.13354Z" stroke="#003AAF" stroke-width="2.5"/>
<path d="M3.80005 35H30.4667" stroke="#003AAF" stroke-width="2.5" stroke-linecap="round" stroke-linejoin="round"/>
<path d="M27.1335 23.3333H29.9114C30.428 23.3333 30.6864 23.3333 30.8982 23.3902C31.4734 23.5442 31.9227 23.9935 32.0767 24.5687C32.1335 24.7805 32.1335 25.0388 32.1335 25.5555V27.5C32.1335 28.8807 33.2529 30 34.6335 30C36.0142 30 37.1335 28.8807 37.1335 27.5V17.0185C37.1335 16.0166 37.1335 15.5157 36.9905 15.0433C36.8475 14.5709 36.5695 14.1541 36.0139 13.3205L34.7247 11.3867C34.1472 10.5204 33.1747 10 32.1335 10" stroke="#003AAF" stroke-width="2.5" stroke-linecap="round" stroke-linejoin="round"/>
</svg>
