<svg width="34" height="36" viewBox="0 0 34 36" fill="none" xmlns="http://www.w3.org/2000/svg">
<path fill-rule="evenodd" clip-rule="evenodd" d="M17 0.0524063C17.6904 0.0524063 18.25 0.61205 18.25 1.30241V1.76207C26.5107 2.33206 33.2271 8.50273 33.25 16.2987C33.2514 16.788 32.9673 17.2331 32.5229 17.4378C32.0784 17.6425 31.5555 17.569 31.1846 17.2499C28.8917 15.2765 25.1083 15.2765 22.8154 17.2499C22.3466 17.6533 21.6534 17.6533 21.1846 17.2499C18.8917 15.2765 15.1083 15.2765 12.8154 17.2499C12.3466 17.6533 11.6534 17.6533 11.1846 17.2499C8.8917 15.2765 5.1083 15.2765 2.81538 17.2499C2.44453 17.569 1.92156 17.6425 1.47714 17.4378C1.03272 17.2331 0.748566 16.788 0.750005 16.2987C0.772936 8.50273 7.48933 2.33206 15.75 1.76207V1.30241C15.75 0.61205 16.3096 0.0524063 17 0.0524063ZM17 4.21907C10.2315 4.21907 4.77809 8.47663 3.5226 13.9376C6.25501 12.8324 9.52907 13.0992 12 14.7379C14.9514 12.7805 19.0486 12.7805 22 14.7379C24.4709 13.0992 27.745 12.8324 30.4774 13.9376C29.2219 8.47663 23.7685 4.21907 17 4.21907ZM23.6173 22.732C23.128 21.1843 21.6874 20.1143 20.0422 20.1143H13.958L13.6699 20.1252C12.0514 20.2491 10.6813 21.4081 10.3066 23.01L9.8992 24.7514L9.22766 24.414L9.07098 24.3481C8.48862 24.1481 7.83364 24.4044 7.54956 24.9699C7.23965 25.5867 7.48851 26.3381 8.1054 26.648L8.8119 27.0029C7.95579 27.766 7.41667 28.8772 7.41667 30.1143V33.0309C7.41667 34.6418 8.7225 35.9476 10.3333 35.9476H12L12.2392 35.9379C13.5804 35.829 14.665 34.8129 14.8785 33.504L14.885 33.4476H19.1133L19.1215 33.504C19.3475 34.8899 20.5503 35.9476 22 35.9476H23.6667C25.2775 35.9476 26.5833 34.6418 26.5833 33.0309V30.1143C26.5833 28.8772 26.0442 27.766 25.1881 27.0029L25.8945 26.648L26.041 26.5616C26.549 26.2138 26.7344 25.5353 26.4504 24.9699C26.1405 24.353 25.3891 24.1041 24.7723 24.414L24.1009 24.7513L23.6936 23.01L23.6173 22.732ZM22.8908 28.516C22.9602 28.5496 23.0329 28.5769 23.108 28.5973C23.6834 28.8599 24.0833 29.4404 24.0833 30.1143V33.0309C24.0833 33.261 23.8968 33.4476 23.6667 33.4476H22C21.7699 33.4476 21.5833 33.261 21.5833 33.0309V32.1976C21.5833 31.5072 21.0237 30.9476 20.3333 30.9476H13.6667C12.9763 30.9476 12.4167 31.5072 12.4167 32.1976V33.0309C12.4167 33.261 12.2301 33.4476 12 33.4476H10.3333C10.1032 33.4476 9.91667 33.261 9.91667 33.0309V30.1143C9.91667 29.4405 10.3165 28.8601 10.8918 28.5974C10.9671 28.5769 11.04 28.5496 11.1096 28.5159C11.2598 28.4714 11.4188 28.4476 11.5833 28.4476H22.4167C22.5814 28.4476 22.7405 28.4715 22.8908 28.516ZM21.8133 25.9476L21.2593 23.5795C21.1403 23.0707 20.72 22.6959 20.2138 22.626L20.0422 22.6143H13.958C13.4354 22.6143 12.9747 22.9381 12.7914 23.4151L12.7409 23.5795L12.1868 25.9476H21.8133Z" fill="#003AAF"/>
</svg>
