<svg width="36" height="36" viewBox="0 0 36 36" fill="none" xmlns="http://www.w3.org/2000/svg">
<rect x="4.39024" y="4.39024" width="31.2195" height="31.2195" rx="15.6098" fill="white"/>
<rect x="4.39024" y="4.39024" width="31.2195" height="31.2195" rx="15.6098" stroke="#FF7E29" stroke-width="0.780488"/>
<path d="M18.7373 18.95H14.8764C14.8297 18.9499 14.7835 18.9591 14.7404 18.9771C14.6974 18.9952 14.6584 19.0217 14.6259 19.055C14.5934 19.0883 14.568 19.1279 14.5511 19.1712C14.5343 19.2145 14.5265 19.2608 14.528 19.3072C14.6195 22.1142 15.7818 24.7814 17.779 26.7673C19.7762 28.7531 22.4586 29.9089 25.2816 29.9998C25.3283 30.0014 25.3748 29.9936 25.4184 29.9768C25.4619 29.9601 25.5017 29.9348 25.5352 29.9025C25.5688 29.8701 25.5954 29.8314 25.6135 29.7886C25.6317 29.7458 25.6409 29.6998 25.6408 29.6534V24.8172C25.6395 24.7291 25.6053 24.6447 25.5449 24.5802C25.4846 24.5158 25.4023 24.4759 25.314 24.4683C24.1027 24.397 22.9481 23.9339 22.0261 23.1494C21.1042 22.365 20.4655 21.3022 20.2075 20.1233C20.1339 19.7903 19.9479 19.4923 19.6805 19.2789C19.413 19.0655 19.0802 18.9494 18.7373 18.95Z" fill="url(#paint0_linear_8015_4248)"/>
<path d="M17.3021 17.5667C19.1258 17.5667 20.6041 16.0967 20.6041 14.2834C20.6041 12.47 19.1258 11 17.3021 11C15.4784 11 14 12.47 14 14.2834C14 16.0967 15.4784 17.5667 17.3021 17.5667Z" fill="url(#paint1_linear_8015_4248)"/>
<path d="M12.46 5.88002V5.87949C12.4591 5.0411 12.2209 4.2201 11.7728 3.51147C11.3521 2.84598 10.7624 2.30514 10.0652 1.94332C9.85541 1.62228 9.57273 1.35428 9.23933 1.16173C8.85996 0.942642 8.42881 0.829257 7.99077 0.833359C7.13542 0.834243 6.361 1.27082 5.9114 1.96779C4.5215 2.71833 3.56671 4.18763 3.56671 5.88002V7.56669C3.56671 7.64142 3.54671 7.77871 3.50339 7.93801C3.46077 8.09478 3.40892 8.22376 3.36978 8.29195L2.69887 9.40127L2.69886 9.40127L2.6974 9.40372C2.36269 9.96435 2.27311 10.6139 2.4967 11.2239C2.71577 11.8334 3.22384 12.2786 3.839 12.4867C4.36702 12.6663 4.9053 12.8096 5.44966 12.9174L5.64687 13.4949C5.76158 13.8309 5.9593 14.1672 6.23553 14.4294C6.69902 14.9048 7.34637 15.1667 8.00004 15.1667L8.00083 15.1667C8.51616 15.1659 9.01874 15.0064 9.44028 14.71C9.86183 14.4136 10.1819 13.9946 10.357 13.5099L10.57 12.9203C11.1156 12.8135 11.6551 12.6718 12.1842 12.4946C12.7985 12.2923 13.2698 11.8263 13.4946 11.2297C13.7223 10.6253 13.6601 9.95819 13.321 9.40093C13.3208 9.40057 13.3206 9.4002 13.3203 9.39984L12.6589 8.30181C12.6177 8.22757 12.5658 8.09548 12.5235 7.9394C12.48 7.77877 12.46 7.64142 12.46 7.56669V5.88002Z" fill="#FF7E29" stroke="white"/>
<defs>
<linearGradient id="paint0_linear_8015_4248" x1="20.0844" y1="30.9862" x2="20.0844" y2="15.2838" gradientUnits="userSpaceOnUse">
<stop stop-color="#00BC3B"/>
<stop offset="1" stop-color="#47E531"/>
</linearGradient>
<linearGradient id="paint1_linear_8015_4248" x1="276.25" y1="1571.91" x2="276.25" y2="312.018" gradientUnits="userSpaceOnUse">
<stop stop-color="#00BC3B"/>
<stop offset="1" stop-color="#47E531"/>
</linearGradient>
</defs>
</svg>
