<svg width="32" height="32" viewBox="0 0 32 32" fill="none" xmlns="http://www.w3.org/2000/svg">
<rect x="0.390244" y="0.390244" width="31.2195" height="31.2195" rx="15.6098" fill="white"/>
<rect x="0.390244" y="0.390244" width="31.2195" height="31.2195" rx="15.6098" stroke="#D5D5D5" stroke-width="0.780488"/>
<path d="M14.7373 14.95H10.8764C10.8297 14.9499 10.7835 14.9591 10.7404 14.9771C10.6974 14.9952 10.6584 15.0217 10.6259 15.055C10.5934 15.0883 10.568 15.1279 10.5511 15.1712C10.5343 15.2145 10.5265 15.2608 10.528 15.3072C10.6195 18.1142 11.7818 20.7814 13.779 22.7673C15.7762 24.7531 18.4586 25.9089 21.2816 25.9998C21.3283 26.0014 21.3748 25.9936 21.4184 25.9768C21.4619 25.9601 21.5017 25.9348 21.5352 25.9025C21.5688 25.8701 21.5954 25.8314 21.6135 25.7886C21.6317 25.7458 21.6409 25.6998 21.6408 25.6534V20.8172C21.6395 20.7291 21.6053 20.6447 21.5449 20.5802C21.4846 20.5158 21.4023 20.4759 21.314 20.4683C20.1027 20.397 18.9481 19.9339 18.0261 19.1494C17.1042 18.365 16.4655 17.3022 16.2075 16.1233C16.1339 15.7903 15.9479 15.4923 15.6805 15.2789C15.413 15.0655 15.0802 14.9494 14.7373 14.95Z" fill="url(#paint0_linear_8015_4265)"/>
<path d="M13.3021 13.5667C15.1258 13.5667 16.6041 12.0967 16.6041 10.2834C16.6041 8.47001 15.1258 7 13.3021 7C11.4784 7 10 8.47001 10 10.2834C10 12.0967 11.4784 13.5667 13.3021 13.5667Z" fill="url(#paint1_linear_8015_4265)"/>
<defs>
<linearGradient id="paint0_linear_8015_4265" x1="16.0844" y1="26.9862" x2="16.0844" y2="11.2838" gradientUnits="userSpaceOnUse">
<stop stop-color="#00BC3B"/>
<stop offset="1" stop-color="#47E531"/>
</linearGradient>
<linearGradient id="paint1_linear_8015_4265" x1="272.25" y1="1567.91" x2="272.25" y2="308.018" gradientUnits="userSpaceOnUse">
<stop stop-color="#00BC3B"/>
<stop offset="1" stop-color="#47E531"/>
</linearGradient>
</defs>
</svg>
