<svg width="12" height="19" viewBox="0 0 12 19" fill="none" xmlns="http://www.w3.org/2000/svg">
<path d="M4.73731 7.95001H0.876445C0.829733 7.94988 0.783474 7.9591 0.740428 7.97714C0.697383 7.99518 0.658435 8.02166 0.625913 8.055C0.593391 8.08834 0.567961 8.12786 0.551143 8.17119C0.534325 8.21452 0.526462 8.26079 0.528027 8.30721C0.619484 11.1142 1.7818 13.7814 3.779 15.7673C5.7762 17.7531 8.45859 18.9089 11.2816 18.9998C11.3283 19.0014 11.3748 18.9936 11.4184 18.9768C11.4619 18.9601 11.5017 18.9348 11.5352 18.9025C11.5688 18.8701 11.5954 18.8314 11.6135 18.7886C11.6317 18.7458 11.6409 18.6998 11.6408 18.6534V13.8172C11.6395 13.7291 11.6053 13.6447 11.5449 13.5802C11.4846 13.5158 11.4023 13.4759 11.314 13.4683C10.1027 13.397 8.94806 12.9339 8.02612 12.1494C7.10417 11.365 6.4655 10.3022 6.20749 9.12329C6.13386 8.79027 5.94789 8.49231 5.68046 8.27889C5.41303 8.06547 5.08022 7.94942 4.73731 7.95001Z" fill="url(#paint0_linear_10842_3095)"/>
<path d="M3.30207 6.56671C5.12575 6.56671 6.60414 5.0967 6.60414 3.28336C6.60414 1.47001 5.12575 0 3.30207 0C1.47839 0 0 1.47001 0 3.28336C0 5.0967 1.47839 6.56671 3.30207 6.56671Z" fill="url(#paint1_linear_10842_3095)"/>
<defs>
<linearGradient id="paint0_linear_10842_3095" x1="6.08442" y1="19.9862" x2="6.08442" y2="4.28384" gradientUnits="userSpaceOnUse">
<stop stop-color="#00BC3B"/>
<stop offset="1" stop-color="#47E531"/>
</linearGradient>
<linearGradient id="paint1_linear_10842_3095" x1="262.25" y1="1560.91" x2="262.25" y2="301.018" gradientUnits="userSpaceOnUse">
<stop stop-color="#00BC3B"/>
<stop offset="1" stop-color="#47E531"/>
</linearGradient>
</defs>
</svg>
