<svg width="33" height="38" viewBox="0 0 33 38" fill="none" xmlns="http://www.w3.org/2000/svg">
<path fill-rule="evenodd" clip-rule="evenodd" d="M22.1621 0.770833C24.1937 0.770833 25.9702 2.10588 26.5499 4.02956L26.6245 4.30829L27.7315 9.03148L29.8708 7.96128C30.4883 7.65243 31.2392 7.90257 31.548 8.51998C31.8311 9.08595 31.6445 9.76407 31.1359 10.1111L30.9893 10.1971L29.1117 11.1364C30.5851 12.2121 31.57 13.5002 31.6715 15.4389L31.6801 15.7708V18.2708C31.6801 18.9612 31.1205 19.5208 30.4301 19.5208C29.7973 19.5208 29.2743 19.0506 29.1915 18.4404L29.1801 18.2708V15.7708C29.1801 14.1415 28.141 13.1716 26.6894 12.6542C26.6416 12.6413 26.5948 12.6256 26.5491 12.6073C26.2739 12.5214 25.9852 12.4663 25.6869 12.4462L25.4301 12.4375H7.09678C6.70734 12.4375 6.33177 12.4969 5.97861 12.607C5.93252 12.6256 5.88522 12.6414 5.83697 12.6544C4.46249 13.1445 3.45799 14.4139 3.35543 15.9308L3.34678 16.1875V23.6875C3.34678 23.8847 3.48384 24.05 3.66791 24.0932L3.76345 24.1042H7.49011C7.68736 24.1042 7.85259 23.9671 7.89578 23.783L7.90678 23.6875V21.1875C7.90678 20.5547 8.37704 20.0317 8.98716 19.9489L9.15678 19.9375H12.8818C13.5721 19.9375 14.1318 20.4971 14.1318 21.1875C14.1318 21.8203 13.6615 22.3433 13.0514 22.4261L12.8818 22.4375H10.4068V23.6875C10.4068 25.2178 9.22826 26.4728 7.72933 26.5945L7.49011 26.6042H3.76345C2.23316 26.6042 0.978128 25.4256 0.85645 23.9267L0.846781 23.6875V16.1875C0.846781 14.112 1.85841 12.2729 3.41548 11.1362L1.53763 10.1972C0.920158 9.88851 0.669878 9.13767 0.978614 8.52019C1.26162 7.95418 1.91612 7.69671 2.49885 7.89553L2.65567 7.96118L4.79567 9.03118L5.9026 4.3083C6.3662 2.33025 8.07139 0.905289 10.0766 0.779834L10.365 0.770833H22.1621ZM7.151 9.9375H25.3761L24.1904 4.87877C23.9867 4.0093 23.2551 3.37493 22.3828 3.28248L22.1621 3.27083H10.365C9.47197 3.27083 8.68741 3.83832 8.39836 4.66648L8.33664 4.87877L7.151 9.9375ZM10.8468 14.9375C11.5371 14.9375 12.0968 15.4971 12.0968 16.1875C12.0968 16.8203 11.6265 17.3433 11.0164 17.4261L10.8468 17.4375H7.51345C6.82309 17.4375 6.26345 16.8779 6.26345 16.1875C6.26345 15.5547 6.7337 15.0317 7.34383 14.9489L7.51345 14.9375H10.8468ZM22.4298 16.413L22.1295 16.3973L21.8134 16.4045C19.8621 16.5364 18.3202 18.1611 18.3202 20.1458L18.3185 25.0108L18.1622 24.9471C17.7702 24.8043 17.3528 24.7292 16.9275 24.7292C16.093 24.7292 15.2853 25.0185 14.6413 25.5462L14.4216 25.7432C13.1609 27.0016 12.9722 28.9066 13.926 30.3374L17.1594 35.188C18.0094 36.4632 19.4406 37.2292 20.9732 37.2292H27.3C29.6115 37.2292 31.5613 35.5079 31.8479 33.2142L32.4512 28.3861L32.4777 28.1049C32.6262 25.7701 30.98 23.6757 28.641 23.2943L25.8185 22.8342L25.8202 20.1458C25.8202 18.209 24.3459 16.5961 22.4298 16.413ZM21.9006 18.9073L22.0585 18.8958L22.2516 18.9059C22.8283 18.9624 23.3202 19.5005 23.3202 20.1458V23.897C23.3202 24.5097 23.7643 25.0321 24.369 25.1307L28.2386 25.7617C29.3443 25.942 30.1094 26.9645 29.9705 28.0761L29.3672 32.9042C29.2369 33.9468 28.3507 34.7292 27.3 34.7292H20.9732C20.2765 34.7292 19.626 34.381 19.2396 33.8013L16.0062 28.9507C15.7134 28.5115 15.7713 27.9268 16.1445 27.5536L16.2727 27.4396C16.4234 27.318 16.6714 27.2292 16.9275 27.2292C17.2212 27.2292 17.5029 27.3459 17.7105 27.5535L18.6863 28.5293C19.4737 29.3168 20.8202 28.7591 20.8202 27.6455V20.1458C20.8202 19.513 21.2904 18.99 21.9006 18.9073Z" fill="#003AAF"/>
</svg>
