<svg width="32" height="32" viewBox="0 0 32 32" fill="none" xmlns="http://www.w3.org/2000/svg">
<path d="M29.3333 13.3333V17.3333C29.3333 22.6667 26.6667 25.3333 21.3333 25.3333H20.6667C20.2533 25.3333 19.8533 25.5333 19.6 25.8667L17.6 28.5333C16.72 29.7067 15.28 29.7067 14.4 28.5333L12.4 25.8667C12.1867 25.5733 11.6933 25.3333 11.3333 25.3333H10.6667C5.33333 25.3333 2.66667 24 2.66667 17.3333V10.6667C2.66667 5.33333 5.33333 2.66667 10.6667 2.66667H18.6667" stroke="#003AAF" stroke-width="1.5" stroke-miterlimit="10" stroke-linecap="round" stroke-linejoin="round"/>
<path d="M26 9.33333C27.8409 9.33333 29.3333 7.84095 29.3333 6C29.3333 4.15905 27.8409 2.66667 26 2.66667C24.1591 2.66667 22.6667 4.15905 22.6667 6C22.6667 7.84095 24.1591 9.33333 26 9.33333Z" stroke="#003AAF" stroke-width="1.5" stroke-linecap="round" stroke-linejoin="round"/>
<path d="M21.3286 14.6667H21.3406" stroke="#003AAF" stroke-width="2" stroke-linecap="round" stroke-linejoin="round"/>
<path d="M15.994 14.6667H16.006" stroke="#003AAF" stroke-width="2" stroke-linecap="round" stroke-linejoin="round"/>
<path d="M10.6593 14.6667H10.6713" stroke="#003AAF" stroke-width="2" stroke-linecap="round" stroke-linejoin="round"/>
</svg>
