<svg width="32" height="32" viewBox="0 0 32 32" fill="none" xmlns="http://www.w3.org/2000/svg">
<path fill-rule="evenodd" clip-rule="evenodd" d="M20.1606 18.2857C20.4801 18.4688 20.5906 18.8762 20.4075 19.1956L17.557 24.1687C16.9452 25.236 15.524 25.5033 14.5664 24.731L8.89058 20.154C8.77205 20.0584 8.62437 20.0063 8.4721 20.0063H6.01307C5.64488 20.0063 5.34641 19.7078 5.34641 19.3396C5.34641 18.9714 5.64488 18.673 6.01307 18.673H8.4721C8.92891 18.673 9.37196 18.8293 9.72756 19.1161L15.4034 23.6931C15.7226 23.9505 16.1963 23.8614 16.4002 23.5057L19.2507 18.5326C19.4338 18.2131 19.8412 18.1026 20.1606 18.2857Z" fill="#003AAF"/>
<path fill-rule="evenodd" clip-rule="evenodd" d="M9.33307 28.0001C10.8058 28.0001 11.9997 26.8062 11.9997 25.3334C11.9997 23.8607 10.8058 22.6667 9.33307 22.6667C7.86032 22.6667 6.66641 23.8607 6.66641 25.3334C6.66641 26.8062 7.86032 28.0001 9.33307 28.0001ZM9.33307 29.3334C11.5422 29.3334 13.3331 27.5426 13.3331 25.3334C13.3331 23.1243 11.5422 21.3334 9.33307 21.3334C7.12394 21.3334 5.33307 23.1243 5.33307 25.3334C5.33307 27.5426 7.12394 29.3334 9.33307 29.3334Z" fill="#003AAF"/>
<path fill-rule="evenodd" clip-rule="evenodd" d="M22.6666 28.0001C24.1393 28.0001 25.3332 26.8062 25.3332 25.3334C25.3332 23.8607 24.1393 22.6667 22.6666 22.6667C21.1938 22.6667 19.9999 23.8607 19.9999 25.3334C19.9999 26.8062 21.1938 28.0001 22.6666 28.0001ZM22.6666 29.3334C24.8757 29.3334 26.6666 27.5426 26.6666 25.3334C26.6666 23.1243 24.8757 21.3334 22.6666 21.3334C20.4574 21.3334 18.6666 23.1243 18.6666 25.3334C18.6666 27.5426 20.4574 29.3334 22.6666 29.3334Z" fill="#003AAF"/>
<path fill-rule="evenodd" clip-rule="evenodd" d="M13.3389 16.6726C13.3389 16.3044 13.6374 16.0059 14.0056 16.0059H17.5909C18.2457 16.0059 18.8591 16.3265 19.2329 16.8642L22.5069 21.5727C22.7171 21.875 22.6424 22.2905 22.3402 22.5007C22.0379 22.7109 21.6224 22.6362 21.4122 22.3339L18.1382 17.6254C18.0136 17.4461 17.8091 17.3393 17.5909 17.3393H14.0056C13.6374 17.3393 13.3389 17.0408 13.3389 16.6726Z" fill="#003AAF"/>
<path fill-rule="evenodd" clip-rule="evenodd" d="M20.1864 20.0001L14.7646 20.0001C14.6258 20.0001 14.4905 20.0435 14.3775 20.1241L11.6615 22.0615C11.3617 22.2753 10.9454 22.2056 10.7316 21.9059C10.5178 21.6062 10.5874 21.1898 10.8872 20.976L13.6032 19.0386C13.9422 18.7968 14.3482 18.6668 14.7646 18.6668L20.1864 18.6667C20.5545 18.6667 20.853 18.9652 20.853 19.3334C20.853 19.7016 20.5546 20.0001 20.1864 20.0001Z" fill="#003AAF"/>
<path fill-rule="evenodd" clip-rule="evenodd" d="M23.9317 17.1615L20.8913 18.6667H23.9317V17.1615ZM23.8214 15.7284C24.486 15.3993 25.265 15.8829 25.265 16.6245V19.0001C25.265 19.5524 24.8173 20.0001 24.265 20.0001H20.5198C19.9675 20.0001 19.5198 19.5524 19.5198 19.0001V18.4787C19.5198 18.0985 19.7354 17.7512 20.0761 17.5825L23.8214 15.7284Z" fill="#003AAF"/>
<path fill-rule="evenodd" clip-rule="evenodd" d="M25.2028 12.1863C25.1711 12.173 25.1381 12.1593 25.1037 12.145C24.6517 11.9578 23.8638 11.6341 23.1108 11.6341C22.3647 11.6341 21.6801 11.952 21.2893 12.1335C21.2649 12.1449 21.2417 12.1557 21.2196 12.1658C20.7061 12.4023 20.5404 12.4529 20.4441 12.4529C20.4217 12.4529 20.3505 12.4481 20.1409 12.3838C20.043 12.3538 19.9375 12.3183 19.8003 12.2721L19.7763 12.264C19.6334 12.2159 19.4658 12.1597 19.2804 12.1028C18.5091 11.8661 17.4879 11.635 16.0005 11.6341L15.9989 11.6341C14.5114 11.635 13.4902 11.8661 12.719 12.1028C12.5336 12.1597 12.3659 12.2159 12.223 12.264L12.199 12.2721C12.0618 12.3183 11.9564 12.3538 11.8584 12.3838C11.6488 12.4481 11.5776 12.4529 11.5552 12.4529C11.4589 12.4529 11.2932 12.4023 10.7797 12.1658C10.7577 12.1557 10.7344 12.1449 10.7101 12.1336C10.3192 11.952 9.63461 11.6341 8.88856 11.6341C8.1355 11.6341 7.34769 11.9578 6.89566 12.145C6.86124 12.1593 6.82825 12.173 6.79653 12.1863C7.56367 8.57154 10.9115 5.67697 15.163 5.33342L16.8364 5.33342C21.0878 5.67697 24.4357 8.57154 25.2028 12.1863ZM16.8886 4.00008C22.0731 4.3945 26.2381 8.19524 26.6663 12.9674C26.6663 13.4194 26.2681 13.7863 25.7775 13.7863C25.5683 13.7863 25.2144 13.6375 24.8084 13.4668C24.2618 13.237 23.6208 12.9674 23.1108 12.9674C22.6663 12.9674 22.2219 13.1721 21.7775 13.3768C21.333 13.5816 20.8886 13.7863 20.4441 13.7863C20.1186 13.7863 19.7934 13.6767 19.3809 13.5377C18.6668 13.2972 17.691 12.9685 15.9997 12.9674C14.3083 12.9685 13.3326 13.2972 12.6185 13.5377C12.2059 13.6767 11.8807 13.7863 11.5552 13.7863C11.1108 13.7863 10.6663 13.5816 10.2219 13.3768C9.77745 13.1721 9.33301 12.9674 8.88856 12.9674C8.37858 12.9674 7.73751 13.237 7.19098 13.4668C6.78492 13.6375 6.43105 13.7863 6.2219 13.7863C5.73123 13.7863 5.33301 13.4194 5.33301 12.9674C5.7612 8.19525 9.92629 4.3945 15.1108 4.00008L16.8886 4.00008Z" fill="#003AAF"/>
<path fill-rule="evenodd" clip-rule="evenodd" d="M15.9997 2.69336C16.3679 2.69336 16.6664 2.99184 16.6664 3.36003V4.21098C16.6664 4.57917 16.3679 4.87765 15.9997 4.87765C15.6316 4.87765 15.3331 4.57917 15.3331 4.21098V3.36003C15.3331 2.99184 15.6316 2.69336 15.9997 2.69336Z" fill="#003AAF"/>
</svg>
