<svg width="32" height="32" viewBox="0 0 29 28" fill="none" xmlns="http://www.w3.org/2000/svg">
<path fill-rule="evenodd" clip-rule="evenodd" d="M15.7379 26.3333V26.2899C15.7379 25.3694 16.4841 24.6232 17.4046 24.6232H24.2666C25.1871 24.6232 25.9333 25.3694 25.9333 26.2899V26.3333C25.9333 26.5174 26.0825 26.6666 26.2666 26.6666H26.3334C26.5175 26.6666 26.6667 26.5174 26.6667 26.3333V23.1453C26.6667 22.0407 25.7713 21.1453 24.6667 21.1453H17.0045C15.8999 21.1453 15.0045 22.0407 15.0045 23.1453V26.3333C15.0045 26.5174 15.1537 26.6666 15.3378 26.6666H15.4046C15.5887 26.6666 15.7379 26.5174 15.7379 26.3333ZM17.0713 26.2899V26.3333C17.0713 27.2538 16.3251 28 15.4046 28H15.3378C14.4173 28 13.6711 27.2538 13.6711 26.3333V23.1453C13.6711 21.3044 15.1635 19.812 17.0045 19.812H24.6667C26.5077 19.812 28.0001 21.3044 28.0001 23.1453V26.3333C28.0001 27.2538 27.2539 28 26.3334 28H26.2666C25.3462 28 24.6 27.2538 24.6 26.3333V26.2899C24.6 26.1058 24.4507 25.9565 24.2666 25.9565H17.4046C17.2205 25.9565 17.0713 26.1058 17.0713 26.2899Z" fill="#003AAF"/>
<path fill-rule="evenodd" clip-rule="evenodd" d="M23.2735 17.1519H18.3976C18.0774 17.1519 17.8024 17.3796 17.7426 17.6943L17.3283 19.8767H24.3428L23.9285 17.6943C23.8687 17.3796 23.5937 17.1519 23.2735 17.1519ZM25.2384 17.4456C25.0592 16.5017 24.2342 15.8186 23.2735 15.8186H18.3976C17.4369 15.8186 16.6119 16.5017 16.4327 17.4456L15.7181 21.21H25.953L25.2384 17.4456Z" fill="#003AAF"/>
<path fill-rule="evenodd" clip-rule="evenodd" d="M14.5519 18.6457C14.8123 18.3854 15.2344 18.3854 15.4947 18.6457L16.2185 19.3694C16.4788 19.6298 16.4788 20.0519 16.2185 20.3122C15.9581 20.5726 15.536 20.5726 15.2757 20.3122L14.5519 19.5885C14.2916 19.3282 14.2916 18.9061 14.5519 18.6457Z" fill="#003AAF"/>
<path fill-rule="evenodd" clip-rule="evenodd" d="M27.1482 18.6457C26.8879 18.3854 26.4658 18.3854 26.2054 18.6457L25.4817 19.3694C25.2213 19.6298 25.2213 20.0519 25.4817 20.3122C25.742 20.5726 26.1641 20.5726 26.4245 20.3122L27.1482 19.5885C27.4086 19.3282 27.4086 18.9061 27.1482 18.6457Z" fill="#003AAF"/>
<path fill-rule="evenodd" clip-rule="evenodd" d="M16.0751 22.8825C16.0751 22.5143 16.3736 22.2159 16.7418 22.2159H18.2771C18.6452 22.2159 18.9437 22.5143 18.9437 22.8825C18.9437 23.2507 18.6452 23.5492 18.2771 23.5492H16.7418C16.3736 23.5492 16.0751 23.2507 16.0751 22.8825Z" fill="#003AAF"/>
<path fill-rule="evenodd" clip-rule="evenodd" d="M22.7278 22.8825C22.7278 22.5143 23.0263 22.2159 23.3945 22.2159H24.9297C25.2979 22.2159 25.5964 22.5143 25.5964 22.8825C25.5964 23.2507 25.2979 23.5492 24.9297 23.5492H23.3945C23.0263 23.5492 22.7278 23.2507 22.7278 22.8825Z" fill="#003AAF"/>
<path fill-rule="evenodd" clip-rule="evenodd" d="M16.3104 11.1259V9.01211C16.3104 8.424 16.0715 7.88266 15.6757 7.47975C15.2922 7.09794 14.7558 6.85895 14.1625 6.85155C13.923 6.8541 13.7362 7.05076 13.7362 7.27388V12.0462H15.3901C15.7947 12.0462 15.9952 11.9239 16.0917 11.8275C16.1881 11.731 16.3104 11.5305 16.3104 11.1259ZM14.1673 5.51819C13.1977 5.51819 12.4028 6.30432 12.4028 7.27388V13.3795H15.3901C16.7702 13.3795 17.6437 12.506 17.6437 11.1259V9.01211C17.6437 8.05128 17.2507 7.1778 16.6217 6.54016C15.9928 5.91125 15.1194 5.52692 14.1673 5.51819Z" fill="#003AAF"/>
<path fill-rule="evenodd" clip-rule="evenodd" d="M3.97103 18.4173L4.4911 18.0549C5.32094 17.4762 6.46075 17.5516 7.20644 18.2458L7.20937 18.2486L8.17258 19.1507L9.15243 18.2385C9.88938 17.5524 11.0311 17.4733 11.8562 18.0579L12.372 18.4173V6.99011C12.372 6.94353 12.3732 6.89733 12.3754 6.85152H5.79989C4.8581 6.85152 4.47371 7.10717 4.30695 7.28694C4.12239 7.48591 3.97103 7.84364 3.97103 8.46202V18.4173ZM5.79989 5.51819C3.42824 5.51819 2.6377 6.83555 2.6377 8.46202V19.5014C2.6377 20.1122 3.38081 20.4582 3.90257 20.0902L5.25441 19.1481C5.57063 18.9274 6.01333 18.9568 6.29793 19.2217L7.61024 20.4508C7.91855 20.7378 8.4245 20.7378 8.73282 20.4508L10.0609 19.2144C10.3376 18.9568 10.7803 18.9274 11.0886 19.1481L12.4405 20.0902C12.9622 20.4508 13.7054 20.1049 13.7054 19.5014V6.99011C13.7054 6.94339 13.7077 6.89716 13.7124 6.85152C13.788 6.10631 14.467 5.51819 15.2865 5.51819H5.79989Z" fill="#003AAF"/>
<path fill-rule="evenodd" clip-rule="evenodd" d="M7.36612 13.8798C7.36612 13.5116 7.66459 13.2131 8.03278 13.2131H10.1596C10.5278 13.2131 10.8262 13.5116 10.8262 13.8798C10.8262 14.248 10.5278 14.5464 10.1596 14.5464H8.03278C7.66459 14.5464 7.36612 14.248 7.36612 13.8798Z" fill="#003AAF"/>
<path fill-rule="evenodd" clip-rule="evenodd" d="M7.36612 11.0442C7.36612 10.676 7.66459 10.3776 8.03278 10.3776H10.1596C10.5278 10.3776 10.8262 10.676 10.8262 11.0442C10.8262 11.4124 10.5278 11.7109 10.1596 11.7109H8.03278C7.66459 11.7109 7.36612 11.4124 7.36612 11.0442Z" fill="#003AAF"/>
<path fill-rule="evenodd" clip-rule="evenodd" d="M5.23612 13.8728C5.23612 13.5046 5.5346 13.2061 5.90279 13.2061H5.90915C6.27734 13.2061 6.57582 13.5046 6.57582 13.8728C6.57582 14.241 6.27734 14.5395 5.90915 14.5395H5.90279C5.5346 14.5395 5.23612 14.241 5.23612 13.8728Z" fill="#003AAF"/>
<path fill-rule="evenodd" clip-rule="evenodd" d="M5.23612 11.0371C5.23612 10.6689 5.5346 10.3705 5.90279 10.3705H5.90915C6.27734 10.3705 6.57582 10.6689 6.57582 11.0371C6.57582 11.4053 6.27734 11.7038 5.90915 11.7038H5.90279C5.5346 11.7038 5.23612 11.4053 5.23612 11.0371Z" fill="#003AAF"/>
</svg>
