<svg width="32" height="32" viewBox="0 0 32 32" fill="none" xmlns="http://www.w3.org/2000/svg">
  <path fill-rule="evenodd" clip-rule="evenodd" d="M22.4746 23.4478C24.4533 23.4478 26.0574 21.8437 26.0574 19.8649C26.0574 17.8862 24.4533 16.2821 22.4746 16.2821C20.4958 16.2821 18.8917 17.8862 18.8917 19.8649C18.8917 21.8437 20.4958 23.4478 22.4746 23.4478ZM27.3908 19.8649C27.3908 22.5801 25.1897 24.7812 22.4746 24.7812C19.7594 24.7812 17.5583 22.5801 17.5583 19.8649C17.5583 17.1498 19.7594 14.9487 22.4746 14.9487C25.1897 14.9487 27.3908 17.1498 27.3908 19.8649Z" fill="#003AAF"/>
  <path d="M26.0335 24.3097C25.7731 24.0493 25.7731 23.6272 26.0335 23.3669C26.2938 23.1065 26.7159 23.1065 26.9763 23.3669L28.8619 25.2525C29.1223 25.5128 29.1223 25.9349 28.8619 26.1953C28.6016 26.4556 28.1794 26.4556 27.9191 26.1953L26.0335 24.3097Z" fill="#003AAF"/>
  <path fill-rule="evenodd" clip-rule="evenodd" d="M14.6667 6.66671H8.00002L8.00002 9.33337H14.6667V6.66671ZM8.00002 5.33337C7.26364 5.33337 6.66669 5.93033 6.66669 6.66671L4.66669 6.66671C3.56212 6.66671 2.66669 7.56214 2.66669 8.66671V23.3334C2.66669 24.4379 3.56212 25.3334 4.66669 25.3334H18C18.0634 25.3334 18.1262 25.3304 18.1881 25.3246V23.9731C18.1284 23.9906 18.0653 24 18 24H4.66669C4.2985 24 4.00002 23.7016 4.00002 23.3334V8.66671C4.00002 8.29852 4.2985 8.00004 4.66669 8.00004H6.66669V9.33337C6.66669 10.0698 7.26364 10.6667 8.00002 10.6667H14.6667C15.4031 10.6667 16 10.0698 16 9.33337V8.00004H18C18.3682 8.00004 18.6667 8.29852 18.6667 8.66671V14.1615H20V8.66671C20 7.56214 19.1046 6.66671 18 6.66671L16 6.66671C16 5.93033 15.4031 5.33337 14.6667 5.33337H8.00002ZM17.2312 12.3215C17.4812 12.5918 17.4647 13.0136 17.1944 13.2636L15.1481 15.1561C14.8852 15.3993 14.4772 15.3913 14.224 15.1381L13.2729 14.187C13.0126 13.9267 13.0126 13.5046 13.2729 13.2442C13.5333 12.9839 13.9554 12.9839 14.2157 13.2442L14.7135 13.742L16.2891 12.2847C16.5594 12.0347 16.9812 12.0512 17.2312 12.3215ZM5.29934 14.1615C5.29934 13.7933 5.59781 13.4948 5.966 13.4948H10.9973C11.3654 13.4948 11.6639 13.7933 11.6639 14.1615C11.6639 14.5297 11.3654 14.8282 10.9973 14.8282H5.966C5.59781 14.8282 5.29934 14.5297 5.29934 14.1615ZM5.966 16.6667C5.59781 16.6667 5.29934 16.9652 5.29934 17.3334C5.29934 17.7016 5.59781 18 5.966 18H10.9973C11.3654 18 11.6639 17.7016 11.6639 17.3334C11.6639 16.9652 11.3654 16.6667 10.9973 16.6667H5.966ZM5.29934 20.5054C5.29934 20.1372 5.59781 19.8387 5.966 19.8387H10.9973C11.3654 19.8387 11.6639 20.1372 11.6639 20.5054C11.6639 20.8736 11.3654 21.1721 10.9973 21.1721H5.966C5.59781 21.1721 5.29934 20.8736 5.29934 20.5054Z" fill="#003AAF"/>
</svg>
