<svg width="32" height="32" viewBox="0 0 32 32" fill="none" xmlns="http://www.w3.org/2000/svg">
<path fill-rule="evenodd" clip-rule="evenodd" d="M22.2897 12.4833L19.5524 9.72725C19.3021 9.47522 18.9616 9.3335 18.6064 9.3335H18.1971C17.8409 9.3335 17.4995 9.47603 17.249 9.72931L15.4844 11.5138C14.9688 12.0351 14.971 12.8749 15.4892 13.3936L20.3946 18.3041C21.2337 19.144 22.6695 18.5509 22.6712 17.3637L22.677 13.4248C22.6775 13.0721 22.5382 12.7336 22.2897 12.4833ZM18.6064 10.6668L21.3437 13.4229L21.3379 17.3617L16.4325 12.4513L18.1971 10.6668H18.6064Z" fill="#003AAF"/>
<path fill-rule="evenodd" clip-rule="evenodd" d="M11.9997 6.66688L11.9873 4.66923C11.9805 3.56952 11.0871 2.68164 9.98734 2.68164L7.31396 2.68165C6.20471 2.68166 5.30736 3.5844 5.314 4.69362L5.3267 6.81513V27.3396C5.3267 28.4446 6.22276 29.3338 7.32773 29.3332L24.6674 29.3243C25.7716 29.3237 26.6664 28.4285 26.6664 27.3243V11.724C26.6664 11.3686 26.5245 11.028 26.2722 10.7776L21.371 5.91394C20.9964 5.54218 20.49 5.33357 19.9622 5.33357H16.8281C16.2977 5.33357 15.789 5.54429 15.4139 5.91935L11.9997 9.33354V6.66688ZM6.66003 27.3396V7.9943L10.6664 7.9943V9.33354C10.6664 9.87283 10.9912 10.359 11.4895 10.5654C11.9877 10.7718 12.5612 10.6577 12.9425 10.2764L16.3567 6.86217C16.4818 6.73714 16.6513 6.66691 16.8281 6.66691H19.9622C20.1382 6.66691 20.307 6.73644 20.4318 6.86036L25.333 11.724V27.3243C25.333 27.6924 25.0348 27.9908 24.6667 27.991L7.32704 27.9999C6.95317 28.0001 6.66003 27.7024 6.66003 27.3396ZM10.654 4.6775L10.6663 6.66097L6.65911 6.66097L6.64731 4.68564C6.6451 4.3159 6.94422 4.01499 7.31396 4.01499L9.98735 4.01497C10.3539 4.01497 10.6517 4.31093 10.654 4.6775Z" fill="#003AAF"/>
</svg>
