<svg width="17" height="17" viewBox="0 0 17 17" fill="none" xmlns="http://www.w3.org/2000/svg">
<g clip-path="url(#clip0_11378_2953)">
<path d="M8.75001 13.9995H3.47917C3.35208 13.9995 3.23021 13.949 3.14034 13.8592C3.05048 13.7693 3 13.6474 3 13.5203V8.2495C3 7.4944 3.14873 6.7467 3.43769 6.04907C3.72666 5.35145 4.1502 4.71758 4.68413 4.18364C5.21807 3.64971 5.85194 3.22617 6.54956 2.9372C7.24718 2.64824 7.99489 2.49951 8.74999 2.49951C9.50509 2.49951 10.2528 2.64824 10.9504 2.9372C11.6481 3.22617 12.2819 3.64971 12.8159 4.18365C13.3498 4.71758 13.7733 5.35146 14.0623 6.04908C14.3513 6.7467 14.5 7.49441 14.5 8.24951C14.5 9.7745 13.8942 11.237 12.8159 12.3154C11.7375 13.3937 10.275 13.9995 8.75001 13.9995Z" stroke="#6B6B6B" stroke-width="1.5" stroke-linecap="round" stroke-linejoin="round"/>
<path d="M8.75 9.25C9.16421 9.25 9.5 8.91421 9.5 8.5C9.5 8.08579 9.16421 7.75 8.75 7.75C8.33579 7.75 8 8.08579 8 8.5C8 8.91421 8.33579 9.25 8.75 9.25Z" fill="#6B6B6B"/>
<path d="M5.75 9.25C6.16421 9.25 6.5 8.91421 6.5 8.5C6.5 8.08579 6.16421 7.75 5.75 7.75C5.33579 7.75 5 8.08579 5 8.5C5 8.91421 5.33579 9.25 5.75 9.25Z" fill="#6B6B6B"/>
<path d="M11.75 9.25C12.1642 9.25 12.5 8.91421 12.5 8.5C12.5 8.08579 12.1642 7.75 11.75 7.75C11.3358 7.75 11 8.08579 11 8.5C11 8.91421 11.3358 9.25 11.75 9.25Z" fill="#6B6B6B"/>
</g>
<defs>
<clipPath id="clip0_11378_2953">
<rect width="16" height="16" fill="white" transform="translate(0.5 0.5)"/>
</clipPath>
</defs>
</svg>
