<svg width="32" height="32" viewBox="0 0 32 32" fill="none" xmlns="http://www.w3.org/2000/svg">
  <path fill-rule="evenodd" clip-rule="evenodd" d="M18.6666 5.33333H12V8H18.6666V5.33333ZM12 4C11.2636 4 10.6666 4.59695 10.6666 5.33333V8C10.6666 8.73638 11.2636 9.33333 12 9.33333H18.6666C19.403 9.33333 20 8.73638 20 8V5.33333C20 4.59695 19.403 4 18.6666 4H12Z" fill="#003AAF"/>
  <path fill-rule="evenodd" clip-rule="evenodd" d="M21.5673 12.3214C21.8173 12.5917 21.8008 13.0135 21.5305 13.2635L19.4842 15.1561C19.2213 15.3992 18.8133 15.3913 18.5601 15.1381L17.609 14.187C17.3487 13.9266 17.3487 13.5045 17.609 13.2442C17.8694 12.9838 18.2915 12.9838 18.5518 13.2442L19.0496 13.7419L20.6252 12.2846C20.8955 12.0347 21.3173 12.0511 21.5673 12.3214Z" fill="#003AAF"/>
  <path fill-rule="evenodd" clip-rule="evenodd" d="M9.6354 14.1615C9.6354 13.7933 9.93387 13.4948 10.3021 13.4948H15.3333C15.7015 13.4948 16 13.7933 16 14.1615C16 14.5296 15.7015 14.8281 15.3333 14.8281H10.3021C9.93387 14.8281 9.6354 14.5296 9.6354 14.1615Z" fill="#003AAF"/>
  <path fill-rule="evenodd" clip-rule="evenodd" d="M9.6354 17.3333C9.6354 16.9651 9.93387 16.6667 10.3021 16.6667H15.3333C15.7015 16.6667 16 16.9651 16 17.3333C16 17.7015 15.7015 18 15.3333 18H10.3021C9.93387 18 9.6354 17.7015 9.6354 17.3333Z" fill="#003AAF"/>
  <path d="M7.33331 8C6.96512 8 6.66665 8.29848 6.66665 8.66667V23.978C6.66665 24.3462 6.96512 24.6447 7.33331 24.6447H14.6666V25.978H7.33331C6.22874 25.978 5.33331 25.0826 5.33331 23.978V8.66667C5.33331 7.5621 6.22874 6.66667 7.33331 6.66667H11.2151V8L20 8V6.66667H23.3333C24.4379 6.66667 25.3333 7.5621 25.3333 8.66667V18.6667H24V8.66667C24 8.29848 23.7015 8 23.3333 8H7.33331Z" fill="#003AAF"/>
  <path d="M23.6666 29.2133C23.2303 29.1978 22.8064 29.0641 22.44 28.8267L20.84 27.88C20.7813 27.8535 20.7177 27.8398 20.6533 27.8398C20.5889 27.8398 20.5253 27.8535 20.4666 27.88L18.88 28.8133C17.8 29.4533 17.1333 29.1867 16.84 28.96C16.5466 28.7333 16.08 28.1867 16.36 26.9733L16.7333 25.3333C16.7354 25.2053 16.6982 25.0796 16.6266 24.9733L15.2933 23.64C15.0426 23.4267 14.8562 23.1479 14.7549 22.8347C14.6536 22.5215 14.6416 22.1863 14.72 21.8667C14.8405 21.5584 15.0461 21.2907 15.3128 21.0948C15.5795 20.8989 15.8965 20.7828 16.2266 20.76L17.92 20.48C18.025 20.4381 18.117 20.3691 18.1866 20.28L19.12 18.4C19.2435 18.09 19.4513 17.8208 19.72 17.6228C19.9886 17.4249 20.3073 17.3061 20.64 17.28C20.9751 17.3041 21.2963 17.4237 21.5656 17.6245C21.835 17.8253 22.0412 18.099 22.16 18.4133L23.1066 20.28C23.1684 20.3712 23.2569 20.4411 23.36 20.48L25.0666 20.76C25.3964 20.7843 25.7126 20.901 25.9791 21.0968C26.2455 21.2925 26.4515 21.5593 26.5733 21.8667C26.6518 22.1875 26.6384 22.524 26.5346 22.8376C26.4309 23.1512 26.241 23.4292 25.9866 23.64L24.6533 24.9733C24.5809 25.0736 24.5477 25.1969 24.56 25.32L24.9333 26.96C25.2133 28.1733 24.7466 28.7333 24.4533 28.9467C24.2262 29.1171 23.9506 29.2105 23.6666 29.2133ZM20.6533 18.6667C20.6533 18.6667 20.4933 18.7333 20.3333 19.0533L19.3866 20.9333C19.2618 21.1656 19.087 21.3674 18.8749 21.5242C18.6628 21.6809 18.4187 21.7888 18.16 21.84L16.4533 22.1333C16.1333 22.1333 16.0133 22.2933 16 22.32C15.9866 22.3467 16 22.52 16.2533 22.7467L17.5866 24.08C17.7816 24.293 17.9241 24.5485 18.0028 24.8263C18.0815 25.1041 18.0943 25.3964 18.04 25.68L17.6666 27.3067C17.5965 27.5097 17.5965 27.7303 17.6666 27.9333C17.8682 27.9016 18.0598 27.8241 18.2266 27.7067L19.8133 26.7733C20.0772 26.6225 20.376 26.5432 20.68 26.5432C20.984 26.5432 21.2827 26.6225 21.5466 26.7733L23.1466 27.72C23.3173 27.8447 23.522 27.9145 23.7333 27.92C23.7684 27.7171 23.7684 27.5096 23.7333 27.3067L23.3466 25.6667C23.2941 25.3841 23.309 25.0932 23.3901 24.8175C23.4712 24.5418 23.6162 24.2891 23.8133 24.08L25.1466 22.7467C25.3866 22.5067 25.4 22.3467 25.4 22.32C25.2736 22.2094 25.1142 22.1438 24.9466 22.1333L23.24 21.84C22.9789 21.7906 22.7321 21.6836 22.5176 21.5267C22.3031 21.3699 22.1262 21.1672 22 20.9333L21.0666 19.0533C20.8266 18.7333 20.68 18.6667 20.6533 18.6667Z" fill="#003AAF"/>
</svg>
