<svg width="28" height="28" viewBox="0 0 28 32" fill="none" xmlns="http://www.w3.org/2000/svg">
<path fill-rule="evenodd" clip-rule="evenodd" d="M17.0711 25.0004V24.957C17.0711 24.0365 17.8173 23.2903 18.7378 23.2903H25.5998C26.5203 23.2903 27.2665 24.0365 27.2665 24.957V25.0004C27.2665 25.1845 27.4157 25.3337 27.5998 25.3337H27.6666C27.8507 25.3337 28 25.1845 28 25.0004V21.8124C28 20.7079 27.1045 19.8124 26 19.8124H18.3377C17.2331 19.8124 16.3377 20.7079 16.3377 21.8124V25.0004C16.3377 25.1845 16.4869 25.3337 16.671 25.3337H16.7378C16.9219 25.3337 17.0711 25.1845 17.0711 25.0004ZM18.4045 24.957V25.0004C18.4045 25.9209 17.6583 26.6671 16.7378 26.6671H16.671C15.7505 26.6671 15.0044 25.9209 15.0044 25.0004V21.8124C15.0044 19.9715 16.4967 18.4791 18.3377 18.4791H26C27.8409 18.4791 29.3333 19.9715 29.3333 21.8124V25.0004C29.3333 25.9209 28.5871 26.6671 27.6666 26.6671H27.5998C26.6794 26.6671 25.9332 25.9209 25.9332 25.0004V24.957C25.9332 24.7729 25.7839 24.6237 25.5998 24.6237H18.7378C18.5537 24.6237 18.4045 24.7729 18.4045 24.957Z" fill="#003AAF"/>
<path fill-rule="evenodd" clip-rule="evenodd" d="M24.6067 15.819H19.7308C19.4106 15.819 19.1356 16.0468 19.0759 16.3614L18.6615 18.5438H25.676L25.2617 16.3614C25.2019 16.0468 24.9269 15.819 24.6067 15.819ZM26.5716 16.1127C26.3924 15.1688 25.5674 14.4857 24.6067 14.4857H19.7308C18.7701 14.4857 17.9451 15.1688 17.7659 16.1127L17.0513 19.8772H27.2862L26.5716 16.1127Z" fill="#003AAF"/>
<path fill-rule="evenodd" clip-rule="evenodd" d="M15.8851 17.3128C16.1455 17.0525 16.5676 17.0525 16.828 17.3128L17.5517 18.0365C17.812 18.2969 17.812 18.719 17.5517 18.9793C17.2913 19.2397 16.8692 19.2397 16.6089 18.9793L15.8851 18.2556C15.6248 17.9953 15.6248 17.5732 15.8851 17.3128Z" fill="#003AAF"/>
<path fill-rule="evenodd" clip-rule="evenodd" d="M28.4814 17.3128C28.2211 17.0525 27.799 17.0525 27.5386 17.3128L26.8149 18.0365C26.5546 18.2969 26.5546 18.719 26.8149 18.9793C27.0753 19.2397 27.4974 19.2397 27.7577 18.9793L28.4814 18.2556C28.7418 17.9953 28.7418 17.5732 28.4814 17.3128Z" fill="#003AAF"/>
<path fill-rule="evenodd" clip-rule="evenodd" d="M17.4084 21.5496C17.4084 21.1814 17.7068 20.883 18.075 20.883H19.6103C19.9785 20.883 20.2769 21.1814 20.2769 21.5496C20.2769 21.9178 19.9785 22.2163 19.6103 22.2163H18.075C17.7068 22.2163 17.4084 21.9178 17.4084 21.5496Z" fill="#003AAF"/>
<path fill-rule="evenodd" clip-rule="evenodd" d="M24.061 21.5496C24.061 21.1814 24.3595 20.883 24.7277 20.883H26.2629C26.6311 20.883 26.9296 21.1814 26.9296 21.5496C26.9296 21.9178 26.6311 22.2163 26.2629 22.2163H24.7277C24.3595 22.2163 24.061 21.9178 24.061 21.5496Z" fill="#003AAF"/>
<path fill-rule="evenodd" clip-rule="evenodd" d="M21.3333 5.87369C21.1362 5.67454 20.9015 5.51645 20.6429 5.40856C20.3843 5.30067 20.1068 5.24512 19.8266 5.24512C19.5464 5.24512 19.269 5.30067 19.0104 5.40856C18.7518 5.51645 18.5171 5.67454 18.32 5.87369L12.8933 11.3137V9.42036C12.8933 9.06673 12.7528 8.7276 12.5028 8.47755C12.2527 8.2275 11.9136 8.08702 11.56 8.08702H3.99996C3.64634 8.08702 3.3072 8.2275 3.05715 8.47755C2.8071 8.7276 2.66663 9.06673 2.66663 9.42036V25.4204C2.66663 25.774 2.8071 26.1131 3.05715 26.3632C3.3072 26.6132 3.64634 26.7537 3.99996 26.7537H11.56C11.9136 26.7537 12.2527 26.6132 12.5028 26.3632C12.7528 26.1131 12.8933 25.774 12.8933 25.4204V17.3404L21.3333 8.88702C21.729 8.48539 21.9509 7.94419 21.9509 7.38036C21.9509 6.81652 21.729 6.27532 21.3333 5.87369ZM11.56 25.4204H3.99996V9.42036H11.56V25.4204ZM20.4 7.94036L12.8933 15.4604V13.1937L19.2666 6.82036C19.34 6.74414 19.428 6.68351 19.5254 6.6421C19.6228 6.60068 19.7275 6.57934 19.8333 6.57934C19.9391 6.57934 20.0438 6.60068 20.1412 6.6421C20.2386 6.68351 20.3266 6.74414 20.4 6.82036C20.4758 6.89258 20.5362 6.97946 20.5774 7.07573C20.6187 7.17199 20.64 7.27563 20.64 7.38036C20.64 7.48509 20.6187 7.58872 20.5774 7.68499C20.5362 7.78125 20.4758 7.86813 20.4 7.94036Z" fill="#003AAF"/>
<path fill-rule="evenodd" clip-rule="evenodd" d="M9.22663 10.7537H6.34663C5.993 10.7537 5.65387 10.8942 5.40382 11.1442C5.15377 11.3943 5.01329 11.7334 5.01329 12.087V17.4204C5.01129 17.75 5.13146 18.0687 5.35061 18.3149C5.56975 18.5611 5.87233 18.7174 6.19996 18.7537H9.22663C9.38275 18.7561 9.5375 18.7243 9.67996 18.6604C9.86432 18.6015 10.0319 18.4993 10.1688 18.3625C10.3056 18.2256 10.4077 18.058 10.4666 17.8737C10.5305 17.7312 10.5624 17.5765 10.56 17.4204V12.087C10.56 11.7334 10.4195 11.3943 10.1694 11.1442C9.91939 10.8942 9.58025 10.7537 9.22663 10.7537ZM9.22663 17.4204H6.34663V12.087H9.22663V17.4204Z" fill="#003AAF"/>
<path fill-rule="evenodd" clip-rule="evenodd" d="M10.5066 20.847C10.5066 21.0238 10.4364 21.1934 10.3114 21.3184C10.1863 21.4435 10.0168 21.5137 9.83996 21.5137H5.71996C5.54422 21.5103 5.37662 21.4389 5.25233 21.3147C5.12804 21.1904 5.05671 21.0228 5.05329 20.847C5.05329 20.6702 5.12353 20.5006 5.24855 20.3756C5.37358 20.2506 5.54315 20.1804 5.71996 20.1804H10.0266C10.1696 20.2219 10.2945 20.3102 10.3815 20.431C10.4685 20.5518 10.5125 20.6983 10.5066 20.847Z" fill="#003AAF"/>
</svg>
