<svg width="33" height="36" viewBox="0 0 33 36" fill="none" xmlns="http://www.w3.org/2000/svg">
<path fill-rule="evenodd" clip-rule="evenodd" d="M27.9379 1.26303C27.083 0.804482 26.056 0.80105 25.198 1.25388L22.9933 2.41668L20.8444 1.26413L20.5823 1.13995C19.7827 0.808621 18.8709 0.848136 18.0977 1.25897L15.9166 2.41668L13.7356 1.259L13.4731 1.13581C12.6722 0.807486 11.7606 0.850428 10.9889 1.26416L8.8383 2.41668L6.6353 1.25391C5.77731 0.801083 4.75032 0.804516 3.89537 1.26307L2.03807 2.25922C1.09099 2.76717 0.499969 3.75479 0.499969 4.82949V28.8333C0.499969 31.3646 2.552 33.4167 5.0833 33.4167H11.75C12.4403 33.4167 13 32.857 13 32.1667C13 31.4763 12.4403 30.9167 11.75 30.9167H5.0833C3.93271 30.9167 2.99997 29.9839 2.99997 28.8333V4.82949C2.99997 4.67599 3.0844 4.53491 3.2197 4.46234L5.077 3.46619C5.19914 3.40068 5.34586 3.40019 5.46843 3.46488L8.2601 4.93822C8.62775 5.13225 9.06781 5.13081 9.43419 4.93438L12.1702 3.46746C12.2927 3.40179 12.4399 3.40151 12.5626 3.46672L15.3301 4.9372C15.6969 5.13205 16.1364 5.13205 16.5032 4.93719L19.2707 3.46668C19.3934 3.40148 19.5406 3.40175 19.6631 3.46742L22.3991 4.93434C22.7655 5.13078 23.2055 5.13221 23.5732 4.93818L26.3649 3.46485C26.4874 3.40015 26.6341 3.40065 26.7563 3.46615L28.6136 4.4623C28.7489 4.53487 28.8333 4.67596 28.8333 4.82949V11.3333C28.8333 12.0237 29.3929 12.5833 30.0833 12.5833C30.7737 12.5833 31.3333 12.0237 31.3333 11.3333V4.82949C31.3333 3.75479 30.7423 2.76716 29.7952 2.25919L27.9379 1.26303ZM24.6666 11.3333C24.6666 10.643 24.107 10.0833 23.4166 10.0833H8.41664C7.72628 10.0833 7.16664 10.643 7.16664 11.3333C7.16664 12.0237 7.72628 12.5833 8.41664 12.5833H23.4166C24.107 12.5833 24.6666 12.0237 24.6666 11.3333ZM13 17.1667C13 16.4763 12.4403 15.9167 11.75 15.9167H8.41664C7.72628 15.9167 7.16664 16.4763 7.16664 17.1667C7.16664 17.857 7.72628 18.4167 8.41664 18.4167H11.75C12.4403 18.4167 13 17.857 13 17.1667ZM11.75 21.75C12.4403 21.75 13 22.3096 13 23C13 23.6904 12.4403 24.25 11.75 24.25H8.41664C7.72628 24.25 7.16664 23.6904 7.16664 23C7.16664 22.3096 7.72628 21.75 8.41664 21.75H11.75ZM19.25 15.9167H29.25C30.8608 15.9167 32.1666 17.2225 32.1666 18.8333V22.1667V32.1667C32.1666 33.7775 30.8608 35.0833 29.25 35.0833H19.25C17.6391 35.0833 16.3333 33.7775 16.3333 32.1667V22.1667V18.8333C16.3333 17.2225 17.6391 15.9167 19.25 15.9167ZM18.8333 23.4167V32.1667C18.8333 32.3968 19.0199 32.5833 19.25 32.5833H29.25C29.4801 32.5833 29.6666 32.3968 29.6666 32.1667V23.4167H18.8333ZM29.6666 20.9167H18.8333V18.8333C18.8333 18.6032 19.0199 18.4167 19.25 18.4167H29.25C29.4801 18.4167 29.6666 18.6032 29.6666 18.8333V20.9167ZM22.165 24.5833C22.5191 24.5828 22.8589 24.7233 23.1094 24.9738C23.2596 25.124 23.3703 25.3065 23.4347 25.5049L23.4835 25.708L23.4999 25.9182L23.4898 26.0733C23.4132 26.6876 22.9355 27.1645 22.3332 27.2396L22.166 27.2499C21.4301 27.2496 20.8335 26.6531 20.8332 25.9171C20.8329 25.1812 21.429 24.5841 22.165 24.5833ZM27.276 24.9738C27.0256 24.7233 26.6858 24.5828 26.3316 24.5833C25.5957 24.5841 24.9996 25.1812 24.9999 25.9171C25.0002 26.6531 25.5967 27.2496 26.3327 27.2499L26.4999 27.2396C27.1022 27.1645 27.5799 26.6876 27.6565 26.0733L27.6666 25.9182L27.6501 25.708L27.6014 25.5049C27.537 25.3065 27.4263 25.124 27.276 24.9738ZM26.3316 28.7499C26.6858 28.7495 27.0256 28.89 27.276 29.1404C27.4263 29.2907 27.537 29.4731 27.6014 29.6715L27.6501 29.8747L27.6666 30.0849L27.6565 30.2399C27.5799 30.8542 27.1022 31.3312 26.4999 31.4063L26.3327 31.4166C25.5967 31.4163 25.0002 30.8198 24.9999 30.0838C24.9996 29.3478 25.5957 28.7508 26.3316 28.7499ZM23.1094 29.1404C22.8589 28.89 22.5191 28.7495 22.165 28.7499C21.429 28.7508 20.8329 29.3478 20.8332 30.0838C20.8335 30.8198 21.4301 31.4163 22.166 31.4166L22.3332 31.4063C22.9355 31.3312 23.4132 30.8542 23.4898 30.2399L23.4999 30.0849L23.4835 29.8747L23.4347 29.6715C23.3703 29.4731 23.2596 29.2907 23.1094 29.1404Z" fill="#003AAF"/>
</svg>
