<svg width="20" height="21" viewBox="0 0 20 21" fill="none" xmlns="http://www.w3.org/2000/svg">
<path d="M11.2498 7.91927H1.6665C1.32484 7.91927 1.0415 7.63593 1.0415 7.29427C1.0415 6.9526 1.32484 6.66927 1.6665 6.66927H11.2498C11.5915 6.66927 11.8748 6.9526 11.8748 7.29427C11.8748 7.63593 11.5915 7.91927 11.2498 7.91927ZM6.6665 14.5859H4.99984C4.65817 14.5859 4.37484 14.3026 4.37484 13.9609C4.37484 13.6193 4.65817 13.3359 4.99984 13.3359H6.6665C7.00817 13.3359 7.2915 13.6193 7.2915 13.9609C7.2915 14.3026 7.00817 14.5859 6.6665 14.5859ZM12.0832 14.5859H8.74984C8.40817 14.5859 8.12484 14.3026 8.12484 13.9609C8.12484 13.6193 8.40817 13.3359 8.74984 13.3359H12.0832C12.4248 13.3359 12.7082 13.6193 12.7082 13.9609C12.7082 14.3026 12.4248 14.5859 12.0832 14.5859Z" fill="#A0A0A0"/>
<path d="M14.6332 17.9193H5.3665C2.04984 17.9193 1.0415 16.9193 1.0415 13.6359V6.78594C1.0415 3.50261 2.04984 2.50261 5.3665 2.50261H11.2498C11.5915 2.50261 11.8748 2.78594 11.8748 3.12761C11.8748 3.46928 11.5915 3.75261 11.2498 3.75261H5.3665C2.74984 3.75261 2.2915 4.20261 2.2915 6.78594V13.6276C2.2915 16.2109 2.74984 16.6609 5.3665 16.6609H14.6248C17.2415 16.6609 17.6998 16.2109 17.6998 13.6276V10.2276C17.6998 9.88594 17.9832 9.60261 18.3248 9.60261C18.6665 9.60261 18.9498 9.88594 18.9498 10.2276V13.6276C18.9582 16.9193 17.9498 17.9193 14.6332 17.9193Z" fill="#A0A0A0"/>
<path d="M18.3333 6.04427H13.75C13.4083 6.04427 13.125 5.76093 13.125 5.41927C13.125 5.0776 13.4083 4.79427 13.75 4.79427H18.3333C18.675 4.79427 18.9583 5.0776 18.9583 5.41927C18.9583 5.76093 18.675 6.04427 18.3333 6.04427Z" fill="#A0A0A0"/>
<path d="M16.0415 8.33594C15.6998 8.33594 15.4165 8.05261 15.4165 7.71094V3.12761C15.4165 2.78594 15.6998 2.50261 16.0415 2.50261C16.3832 2.50261 16.6665 2.78594 16.6665 3.12761V7.71094C16.6665 8.05261 16.3832 8.33594 16.0415 8.33594Z" fill="#A0A0A0"/>
</svg>
