<svg width="20" height="21" viewBox="0 0 20 21" fill="none" xmlns="http://www.w3.org/2000/svg">
<path d="M8.32515 19.1693C8.15848 19.1693 8.02515 19.1359 7.92515 19.0943C7.59181 18.9693 7.02515 18.5609 7.02515 17.2693V11.8943H5.07515C3.95848 11.8943 3.55848 11.3693 3.41681 11.0609C3.27515 10.7443 3.15015 10.1026 3.88348 9.26093L10.1918 2.09427C11.0418 1.1276 11.7335 1.19427 12.0668 1.31927C12.4001 1.44427 12.9668 1.8526 12.9668 3.14427V8.51927H14.9168C16.0335 8.51927 16.4335 9.04427 16.5751 9.3526C16.7168 9.66927 16.8418 10.3109 16.1085 11.1526L9.80015 18.3193C9.20848 18.9943 8.69181 19.1693 8.32515 19.1693ZM11.6085 2.49427C11.5835 2.5276 11.4085 2.61093 11.1335 2.9276L4.82515 10.0943C4.59181 10.3609 4.55848 10.5276 4.55848 10.5609C4.57515 10.5693 4.72515 10.6526 5.07515 10.6526H7.65015C7.99181 10.6526 8.27515 10.9359 8.27515 11.2776V17.2776C8.27515 17.6943 8.35015 17.8776 8.38348 17.9276C8.40848 17.8943 8.58348 17.8109 8.85848 17.4943L15.1668 10.3276C15.4001 10.0609 15.4335 9.89427 15.4335 9.86094C15.4168 9.8526 15.2668 9.76927 14.9168 9.76927H12.3418C12.0001 9.76927 11.7168 9.48594 11.7168 9.14427V3.14427C11.7251 2.7276 11.6418 2.5526 11.6085 2.49427Z" fill="#A0A0A0"/>
</svg>
