<svg width="20" height="21" viewBox="0 0 20 21" fill="none" xmlns="http://www.w3.org/2000/svg">
<path d="M7.30003 1.65261H7.40836C11.1084 1.65261 12.8917 3.11094 13.2 6.3776C13.2334 6.71927 12.9834 7.02761 12.6334 7.06094C12.3 7.09427 11.9834 6.83594 11.95 6.49427C11.7084 3.87761 10.475 2.90261 7.40003 2.90261H7.2917C3.90003 2.90261 2.70003 4.1026 2.70003 7.49427L2.70003 12.9276C2.70003 16.3193 3.90003 17.5193 7.2917 17.5193H7.40003C10.4917 17.5193 11.725 16.5276 11.95 13.8609C11.9917 13.5193 12.2834 13.2609 12.6334 13.2943C12.7155 13.3007 12.7955 13.3233 12.8689 13.3607C12.9423 13.3981 13.0076 13.4497 13.061 13.5124C13.1144 13.5751 13.155 13.6477 13.1802 13.7261C13.2055 13.8045 13.2151 13.8872 13.2084 13.9693C12.925 17.2859 11.1334 18.7693 7.40836 18.7693H7.30003C3.20836 18.7693 1.45836 17.0193 1.45836 12.9276L1.45836 7.49427C1.45836 3.40261 3.20836 1.65261 7.30003 1.65261Z" fill="#A0A0A0"/>
<path d="M7.50006 9.58594L16.9834 9.58594C17.3251 9.58594 17.6084 9.86927 17.6084 10.2109C17.6084 10.5526 17.3251 10.8359 16.9834 10.8359L7.50006 10.8359C7.1584 10.8359 6.87506 10.5526 6.87506 10.2109C6.87506 9.86927 7.1584 9.58594 7.50006 9.58594Z" fill="#A0A0A0"/>
<path d="M15.1248 6.79427C15.2831 6.79427 15.4415 6.8526 15.5665 6.9776L18.3581 9.76927C18.4744 9.88688 18.5396 10.0456 18.5396 10.2109C18.5396 10.3763 18.4744 10.535 18.3581 10.6526L15.5665 13.4443C15.3248 13.6859 14.9248 13.6859 14.6831 13.4443C14.4415 13.2026 14.4415 12.8026 14.6831 12.5609L17.0331 10.2109L14.6831 7.86094C14.4415 7.61927 14.4415 7.21927 14.6831 6.9776C14.7998 6.8526 14.9665 6.79427 15.1248 6.79427Z" fill="#A0A0A0"/>
</svg>
