<svg width="20" height="21" viewBox="0 0 20 21" fill="none" xmlns="http://www.w3.org/2000/svg">
<path d="M18.3331 8.54433V11.0443C18.3331 14.3777 16.6665 16.0443 13.3331 16.0443H12.9165C12.6581 16.0443 12.4081 16.1693 12.2498 16.3777L10.9998 18.0443C10.4498 18.7777 9.54984 18.7777 8.99984 18.0443L7.74984 16.3777C7.61652 16.1943 7.30815 16.0443 7.08315 16.0443H6.66652C3.33317 16.0443 1.6665 15.211 1.6665 11.0443V6.8777C1.6665 3.54435 3.33317 1.87769 6.66652 1.87769H11.6665" stroke="#A0A0A0" stroke-width="1.25" stroke-miterlimit="10" stroke-linecap="round" stroke-linejoin="round"/>
<path d="M16.2498 6.04435C17.4004 6.04435 18.3331 5.11161 18.3331 3.96102C18.3331 2.81042 17.4004 1.87769 16.2498 1.87769C15.0993 1.87769 14.1665 2.81042 14.1665 3.96102C14.1665 5.11161 15.0993 6.04435 16.2498 6.04435Z" stroke="#A0A0A0" stroke-width="1.25" stroke-linecap="round" stroke-linejoin="round"/>
<path d="M13.3306 9.37769H13.3381" stroke="#A0A0A0" stroke-width="2" stroke-linecap="round" stroke-linejoin="round"/>
<path d="M9.99609 9.37769H10.0036" stroke="#A0A0A0" stroke-width="2" stroke-linecap="round" stroke-linejoin="round"/>
<path d="M6.66211 9.37769H6.66961" stroke="#A0A0A0" stroke-width="2" stroke-linecap="round" stroke-linejoin="round"/>
</svg>
