<svg width="20" height="21" viewBox="0 0 20 21" fill="none" xmlns="http://www.w3.org/2000/svg">
<path d="M14.8898 18.4376C14.6314 18.4376 14.3731 18.3709 14.1398 18.2293L10.7981 16.2459C10.4481 16.2376 10.0981 16.2126 9.76478 16.1626C9.65341 16.1464 9.54839 16.1008 9.46051 16.0304C9.37262 15.9601 9.30506 15.8677 9.26478 15.7626C9.18145 15.5459 9.22311 15.3126 9.37311 15.1376C9.92311 14.4959 10.2064 13.7293 10.2064 12.9126C10.2064 10.8959 8.43145 9.25427 6.24811 9.25427C5.43145 9.25427 4.64811 9.47927 3.98978 9.9126C3.9002 9.9699 3.79761 10.0037 3.69151 10.0107C3.58541 10.0178 3.47924 9.99801 3.38284 9.95314C3.28643 9.90826 3.20292 9.83977 3.14004 9.75402C3.07715 9.66827 3.03694 9.56804 3.02311 9.4626C2.99653 9.22741 2.98262 8.99096 2.98145 8.75427C2.98145 4.62094 6.56478 1.2626 10.9648 1.2626C15.3648 1.2626 18.9481 4.62094 18.9481 8.75427C18.9481 11.0209 17.8981 13.1043 16.0481 14.5293L16.3314 16.7959C16.3571 17.0008 16.3391 17.2088 16.2785 17.4062C16.2179 17.6036 16.1161 17.7859 15.9798 17.941C15.8436 18.0962 15.676 18.2206 15.4881 18.3062C15.3002 18.3918 15.0963 18.4366 14.8898 18.4376ZM10.9564 14.9876C11.0731 14.9793 11.1898 15.0126 11.2898 15.0793L14.7814 17.1543C14.8731 17.2126 14.9481 17.1876 14.9981 17.1543C15.0398 17.1293 15.1064 17.0626 15.0898 16.9459L14.7648 14.3126C14.7398 14.0793 14.8398 13.8543 15.0231 13.7209C16.7231 12.5293 17.6981 10.7126 17.6981 8.7376C17.6981 5.29594 14.6814 2.49594 10.9648 2.49594C7.38978 2.49594 4.45645 5.09594 4.23978 8.3626C4.86478 8.12094 5.53978 7.9876 6.23978 7.9876C9.11478 7.9876 11.4481 10.1876 11.4481 12.8959C11.4564 13.6293 11.2814 14.3376 10.9564 14.9876Z" fill="#A0A0A0"/>
<path d="M3.81501 19.1693C3.59834 19.1693 3.39001 19.1109 3.19834 18.9859C3.01585 18.8709 2.86968 18.7065 2.77676 18.5119C2.68385 18.3172 2.64799 18.1002 2.67334 17.8859L2.84001 16.6026C1.71501 15.6859 1.04834 14.3276 1.04834 12.9026C1.04834 11.2776 1.89834 9.76094 3.32334 8.8526C4.19734 8.28841 5.2164 7.99022 6.25667 7.99427C9.13167 7.99427 11.465 10.1943 11.465 12.9026C11.465 14.0026 11.065 15.0859 10.3317 15.9443C9.39001 17.0859 7.98167 17.7526 6.43167 17.8026L4.39834 19.0109C4.21501 19.1193 4.01501 19.1693 3.81501 19.1693ZM6.24834 9.24427C5.43167 9.24427 4.64834 9.46927 3.99001 9.9026C2.92334 10.5859 2.29001 11.7026 2.29001 12.9026C2.29001 14.0609 2.85667 15.1193 3.85667 15.8026C4.04834 15.9359 4.14834 16.1609 4.12334 16.3943L3.94001 17.8193L5.93167 16.6359C6.03167 16.5776 6.14001 16.5443 6.24834 16.5443C7.47334 16.5443 8.63167 16.0193 9.36501 15.1276C9.91501 14.4776 10.2067 13.7109 10.2067 12.8943C10.2067 10.8859 8.43167 9.24427 6.24834 9.24427Z" fill="#A0A0A0"/>
</svg>
