<svg width="20" height="21" viewBox="0 0 20 21" fill="none" xmlns="http://www.w3.org/2000/svg">
<path d="M9.99984 19.1693C9.34984 19.1693 8.7165 18.8359 8.28317 18.2526L7.4415 17.1276C7.2665 16.8943 7.03317 16.7609 6.78317 16.7443C6.53317 16.7359 6.28317 16.8443 6.08317 17.0526L5.60817 16.6276L6.0665 17.0526C4.8665 18.3359 3.9415 18.2359 3.49984 18.0609C3.04984 17.8859 2.2915 17.3109 2.2915 15.4609V6.0776C2.2915 2.3776 3.35817 1.2526 6.84984 1.2526H13.1498C16.6415 1.2526 17.7082 2.3776 17.7082 6.0776V15.4609C17.7082 17.3026 16.9498 17.8776 16.4998 18.0609C16.0582 18.2359 15.1415 18.3359 13.9332 17.0526C13.7332 16.8359 13.4915 16.7193 13.2248 16.7443C12.9748 16.7609 12.7332 16.8943 12.5582 17.1276L11.7165 18.2526C11.2832 18.8359 10.6498 19.1693 9.99984 19.1693ZM6.73317 15.4859H6.8415C7.45817 15.5193 8.0415 15.8443 8.43317 16.3693L9.27484 17.4943C9.68317 18.0359 10.3082 18.0359 10.7165 17.4943L11.5582 16.3693C11.9582 15.8443 12.5332 15.5193 13.1582 15.4859C13.7748 15.4526 14.3915 15.7109 14.8415 16.1943C15.4748 16.8693 15.8915 16.9526 16.0332 16.8943C16.2332 16.8109 16.4498 16.3276 16.4498 15.4609V6.0776C16.4498 3.06927 15.9248 2.5026 13.1415 2.5026H6.84984C4.0665 2.5026 3.5415 3.06927 3.5415 6.0776V15.4609C3.5415 16.3359 3.75817 16.8193 3.95817 16.8943C4.09984 16.9526 4.5165 16.8693 5.14984 16.1943C5.59984 15.7359 6.15817 15.4859 6.73317 15.4859Z" fill="#A0A0A0"/>
<path d="M13.3332 6.66927H6.6665C6.32484 6.66927 6.0415 6.38594 6.0415 6.04427C6.0415 5.7026 6.32484 5.41927 6.6665 5.41927H13.3332C13.6748 5.41927 13.9582 5.7026 13.9582 6.04427C13.9582 6.38594 13.6748 6.66927 13.3332 6.66927ZM12.4998 10.0026H7.49984C7.15817 10.0026 6.87484 9.71927 6.87484 9.3776C6.87484 9.03594 7.15817 8.7526 7.49984 8.7526H12.4998C12.8415 8.7526 13.1248 9.03594 13.1248 9.3776C13.1248 9.71927 12.8415 10.0026 12.4998 10.0026Z" fill="#A0A0A0"/>
</svg>
