<svg width="20" height="21" viewBox="0 0 20 21" fill="none" xmlns="http://www.w3.org/2000/svg">
<path d="M14.1665 17.5026H5.83317C2.15817 17.5026 1.0415 16.3859 1.0415 12.7109V12.2943C1.0415 11.9526 1.32484 11.6693 1.6665 11.6693C2.4665 11.6693 3.12484 11.0109 3.12484 10.2109C3.12484 9.41093 2.4665 8.7526 1.6665 8.7526C1.32484 8.7526 1.0415 8.46927 1.0415 8.1276V7.71093C1.0415 4.03593 2.15817 2.91927 5.83317 2.91927H14.1665C17.8415 2.91927 18.9582 4.03593 18.9582 7.71093V8.54427C18.9582 8.88593 18.6748 9.16927 18.3332 9.16927C17.5332 9.16927 16.8748 9.8276 16.8748 10.6276C16.8748 11.4276 17.5332 12.0859 18.3332 12.0859C18.6748 12.0859 18.9582 12.3693 18.9582 12.7109C18.9582 16.3859 17.8415 17.5026 14.1665 17.5026ZM2.2915 12.8443C2.30817 15.7109 2.89984 16.2526 5.83317 16.2526H14.1665C16.9498 16.2526 17.6248 15.7609 17.6998 13.2609C17.1085 13.1187 16.5823 12.7816 16.2059 12.3039C15.8295 11.8262 15.6248 11.2358 15.6248 10.6276C15.6248 9.3526 16.5165 8.2776 17.7082 7.99427V7.71093C17.7082 4.73593 17.1415 4.16927 14.1665 4.16927H5.83317C2.89984 4.16927 2.30817 4.71093 2.2915 7.5776C3.48317 7.86093 4.37484 8.93593 4.37484 10.2109C4.37484 11.4859 3.48317 12.5609 2.2915 12.8443Z" fill="#A0A0A0"/>
<path d="M12.4981 13.4434C12.0314 13.4434 11.6564 13.0684 11.6564 12.6101C11.6564 12.1518 12.0314 11.7768 12.4898 11.7768C12.9481 11.7768 13.3231 12.1518 13.3231 12.6101C13.3231 13.0684 12.9648 13.4434 12.4981 13.4434ZM7.49811 9.27677C7.03144 9.27677 6.65644 8.90177 6.65644 8.44344C6.65644 7.98511 7.03144 7.61011 7.48978 7.61011C7.94811 7.61011 8.32311 7.98511 8.32311 8.44344C8.32311 8.90177 7.96478 9.27677 7.49811 9.27677ZM7.19144 13.9026C7.03311 13.9026 6.87478 13.8443 6.74978 13.7193C6.63354 13.6017 6.56836 13.443 6.56836 13.2776C6.56836 13.1122 6.63354 12.9536 6.74978 12.8359L12.3581 7.22761C12.5998 6.98594 12.9998 6.98594 13.2414 7.22761C13.4831 7.46927 13.4831 7.86927 13.2414 8.11094L7.63311 13.7193C7.51644 13.8443 7.34978 13.9026 7.19144 13.9026Z" fill="#A0A0A0"/>
</svg>
