<svg width="20" height="21" viewBox="0 0 20 21" fill="none" xmlns="http://www.w3.org/2000/svg">
<path d="M7.63246 9.89427H7.56579C7.51614 9.88593 7.46545 9.88593 7.41579 9.89427C4.99913 9.81927 3.17413 7.91927 3.17413 5.57761C3.17413 3.19427 5.11579 1.25261 7.49913 1.25261C9.88246 1.25261 11.8241 3.19427 11.8241 5.57761C11.8158 7.91927 9.98246 9.81927 7.65746 9.89427H7.63246ZM7.49913 2.50261C6.68426 2.5048 5.9034 2.82948 5.3272 3.40568C4.75101 3.98188 4.42633 4.76274 4.42413 5.57761C4.42413 7.24427 5.72413 8.58594 7.38246 8.64427C7.43246 8.63594 7.54079 8.63594 7.64913 8.64427C9.28246 8.56927 10.5658 7.22761 10.5741 5.57761C10.5719 4.76274 10.2472 3.98188 9.67105 3.40568C9.09485 2.82948 8.31399 2.5048 7.49913 2.50261ZM13.7816 10.0026C13.7566 10.0026 13.7316 10.0026 13.7066 9.99427C13.365 10.0276 13.015 9.78594 12.9816 9.44427C12.9483 9.10261 13.1566 8.79427 13.4983 8.75261C13.5983 8.74427 13.7066 8.74427 13.7983 8.74427C15.015 8.67761 15.965 7.67761 15.965 6.45261C15.965 5.18594 14.94 4.16094 13.6733 4.16094C13.5916 4.16204 13.5105 4.14691 13.4347 4.11641C13.359 4.08592 13.29 4.04067 13.2318 3.98329C13.1737 3.92592 13.1275 3.85757 13.096 3.7822C13.0645 3.70684 13.0483 3.62596 13.0483 3.54427C13.0483 3.20261 13.3316 2.91927 13.6733 2.91927C14.6119 2.92147 15.5115 3.29532 16.1752 3.95903C16.8389 4.62275 17.2128 5.52231 17.215 6.46094C17.215 8.37761 15.715 9.92761 13.8066 10.0026H13.7816ZM7.64329 19.0026C6.00996 19.0026 4.36829 18.5859 3.12663 17.7526C1.96829 16.9859 1.33496 15.9359 1.33496 14.7943C1.33496 13.6526 1.96829 12.5943 3.12663 11.8193C5.62663 10.1609 9.67663 10.1609 12.16 11.8193C13.31 12.5859 13.9516 13.6359 13.9516 14.7776C13.9516 15.9193 13.3183 16.9776 12.16 17.7526C10.91 18.5859 9.27663 19.0026 7.64329 19.0026ZM3.81829 12.8693C3.01829 13.4026 2.58496 14.0859 2.58496 14.8026C2.58496 15.5109 3.02663 16.1943 3.81829 16.7193C5.89329 18.1109 9.39329 18.1109 11.4683 16.7193C12.2683 16.1859 12.7016 15.5026 12.7016 14.7859C12.7016 14.0776 12.26 13.3943 11.4683 12.8693C9.39329 11.4859 5.89329 11.4859 3.81829 12.8693ZM15.2816 17.5026C14.99 17.5026 14.7316 17.3026 14.6733 17.0026C14.641 16.8403 14.6735 16.6719 14.7639 16.5333C14.8542 16.3947 14.9952 16.2969 15.1566 16.2609C15.6816 16.1526 16.165 15.9443 16.54 15.6526C17.015 15.2943 17.2733 14.8443 17.2733 14.3693C17.2733 13.8943 17.015 13.4443 16.5483 13.0943C16.1816 12.8109 15.7233 12.6109 15.1816 12.4859C15.0195 12.4489 14.8786 12.3493 14.7896 12.2088C14.7006 12.0683 14.6708 11.8983 14.7066 11.7359C14.7816 11.4026 15.115 11.1859 15.4566 11.2609C16.1733 11.4193 16.7983 11.7026 17.3066 12.0943C18.0816 12.6776 18.5233 13.5026 18.5233 14.3693C18.5233 15.2359 18.0733 16.0609 17.2983 16.6526C16.7816 17.0526 16.1316 17.3443 15.415 17.4859C15.365 17.5026 15.3233 17.5026 15.2816 17.5026Z" fill="#A0A0A0"/>
</svg>
