<svg width="20" height="20" viewBox="0 0 20 20" fill="none" xmlns="http://www.w3.org/2000/svg">
<path d="M10.8335 8.125H5.8335C5.49183 8.125 5.2085 7.84167 5.2085 7.5C5.2085 7.15833 5.49183 6.875 5.8335 6.875H10.8335C11.1752 6.875 11.4585 7.15833 11.4585 7.5C11.4585 7.84167 11.1752 8.125 10.8335 8.125ZM15.8668 12.3333C14.6085 12.3333 13.5418 11.4 13.4418 10.2C13.3752 9.50833 13.6252 8.83333 14.1252 8.34167C14.5418 7.90833 15.1335 7.66667 15.7585 7.66667H17.5002C18.3252 7.69167 18.9585 8.34167 18.9585 9.14167V10.8583C18.9585 11.6583 18.3252 12.3083 17.5252 12.3333H15.8668ZM17.4752 8.91667H15.7668C15.4752 8.91667 15.2085 9.025 15.0168 9.225C14.7752 9.45833 14.6585 9.775 14.6918 10.0917C14.7335 10.6417 15.2668 11.0833 15.8668 11.0833H17.5002C17.6085 11.0833 17.7085 10.9833 17.7085 10.8583V9.14167C17.7085 9.01667 17.6085 8.925 17.4752 8.91667Z" fill="#A0A0A0"/>
<path d="M13.3332 17.7083H5.83317C2.9665 17.7083 1.0415 15.7833 1.0415 12.9167V7.08334C1.0415 4.51667 2.62484 2.65834 5.08317 2.35001C5.30817 2.31667 5.5665 2.29167 5.83317 2.29167H13.3332C13.5332 2.29167 13.7915 2.30001 14.0582 2.34167C16.5165 2.62501 18.1248 4.49167 18.1248 7.08334V8.29167C18.1248 8.63334 17.8415 8.91667 17.4998 8.91667H15.7665C15.4748 8.91667 15.2082 9.02501 15.0165 9.22501L15.0082 9.23334C14.7748 9.45834 14.6665 9.76667 14.6915 10.0833C14.7332 10.6333 15.2665 11.075 15.8665 11.075H17.4998C17.8415 11.075 18.1248 11.3583 18.1248 11.7V12.9083C18.1248 15.7833 16.1998 17.7083 13.3332 17.7083ZM5.83317 3.54167C5.63317 3.54167 5.4415 3.55834 5.24984 3.58334C3.4165 3.81667 2.2915 5.15001 2.2915 7.08334V12.9167C2.2915 15.0667 3.68317 16.4583 5.83317 16.4583H13.3332C15.4832 16.4583 16.8748 15.0667 16.8748 12.9167V12.3333H15.8665C14.6082 12.3333 13.5415 11.4 13.4415 10.2C13.3748 9.51667 13.6248 8.83334 14.1248 8.35001C14.5582 7.90834 15.1415 7.66667 15.7665 7.66667H16.8748V7.08334C16.8748 5.13334 15.7332 3.79167 13.8832 3.57501C13.6832 3.54167 13.5082 3.54167 13.3332 3.54167H5.83317Z" fill="#A0A0A0"/>
</svg>
